<?xml version="1.0" encoding="UTF-8" standalone="no"?>
<!DOCTYPE svg PUBLIC "-//W3C//DTD SVG 1.1//EN" "http://www.w3.org/Graphics/SVG/1.1/DTD/svg11.dtd">
<svg xmlns="http://www.w3.org/2000/svg" version="1.1">
    <metadata>
        Created by FontForge 20161003 at Thu Dec 6 14:14:25 2018
        By www-data
        Copyright (c) 2018 by www.fontiran.com (Moslem Ebrahimi). All rights reserved.
    </metadata>
    <defs>
        <font id="Aviny" horiz-adv-x="0">
            <font-face font-family="Aviny" font-weight="400" font-stretch="normal" units-per-em="2300"
                       panose-1="2 11 5 6 3 8 4 2 2 4" ascent="1840" descent="-460" x-height="655" cap-height="1123"
                       bbox="-1106 -1681.77 4182.33 2641" underline-thickness="100" underline-position="-650"
                       unicode-range="U+001D-FEFF"/>
            <missing-glyph horiz-adv-x="1229" d="M102 -362v1806h1024v-1806h-1024zM217 -248h795v1577h-795v-1577z"/>
            <glyph glyph-name="uni06440627.isol" unicode="ﻟﺎ" horiz-adv-x="852" arabic-form="isolated"
                   d="M41 214v0q17 44 50 46t71 -10q13 -3 25 -6q24 -7 48 -4q24 4 38 26q15 24 10 76q-15 91 -56 201q0 1 -1 3q-37 110 -54 164q-4 13 -8 27l-50 166q-4 12 -7 24q-24 66 -26.5 117t52.5 74q86 28 140 -31.5t84.5 -153.5t46.5 -171l4 -18l6 -24q39 -147 60 -320 q9 -105 -10 -165q16 3 28 7q76 29 88 135l-3 609q0 82 31.5 117t72 33t71.5 -34t33 -87q1 -68 1 -137q0 -142 4 -282q5 -118 -4.5 -240.5t-54.5 -210.5q-23 -46 -62 -75q-57 -40 -141 -59q-113 -20 -230 -2t-188 69q-88 71 -69 136z"/>
            <glyph glyph-name="uni06440627.fina" unicode="ﻠﺎ" horiz-adv-x="997" arabic-form="final"
                   d="M997 0q-40 0 -93.5 8t-107 30t-94.5 62q-15 -19 -36 -34q-57 -40 -141 -59q-113 -20 -230 -2t-187 68q-88 72 -70 137q17 44 50 45.5t71 -9.5q13 -4 26 -6q23 -7 48 -4q23 3 37 25q16 25 11 76q-16 92 -56 202q-1 1 -1 2q-38 110 -55 165l-8 26q-24 84 -50 167 q-3 12 -7 24q-24 66 -26.5 117t52.5 74q86 28 140 -31.5t84.5 -153.5t46.5 -171q3 -10 5 -19q2 -11 5 -24q39 -146 61 -319q9 -105 -11 -165q16 2 28 7q76 29 89 135l-3 609q0 82 31.5 117t71.5 33t71 -34t33 -87q1 -69 1 -137q0 -142 4 -282q1 -45 10 -119t30 -127t62 -86 t108 -33h3q29 0 56 -14.5t42.5 -42t15.5 -56.5q0 -30 -15 -57t-42 -42t-57 -15h-3z"/>
            <glyph glyph-name="uni06440623.isol" unicode="ﻟﺄ" horiz-adv-x="1270" arabic-form="isolated"
                   d="M41 214v0q17 44 50 46t71 -10q13 -3 25 -6q24 -7 48 -4q24 4 38 26q15 24 10 76q-15 91 -56 201q0 1 -1 3q-37 110 -54 164q-4 13 -8 27l-50 166q-4 12 -7 24q-24 66 -26.5 117t52.5 74q86 28 140 -31.5t84.5 -153.5t46.5 -171l4 -18l6 -24q39 -147 60 -320 q9 -105 -10 -165q16 3 28 7q76 29 88 135l-3 609q0 82 31.5 117t72 33t71.5 -34t33 -87q1 -68 1 -137q0 -142 4 -282q5 -118 -4.5 -240.5t-54.5 -210.5q-23 -46 -62 -75q-57 -40 -141 -59q-113 -20 -230 -2t-188 69q-88 71 -69 136zM92 1226q-14 -14 -34 -21.5t-37 -2.5 t-20 29q-3 20 12 50q22 40 54 62.5t67 38.5q-50 52 -36 126.5t97 102.5q71 16 109.5 -14.5t24.5 -66.5q-6 -14 -11.5 -16t-14.5 1q-9 2 -24.5 2.5t-41.5 -5.5q-40 -14 -49 -40.5t12 -42.5t73 4l52 21q39 13 69.5 -8t23.5 -54t-80 -55l-16 -4q-61 -15 -123.5 -38.5 t-106.5 -68.5v0z"/>
            <glyph glyph-name="uni06440623.fina" unicode="ﻠﺄ" horiz-adv-x="997" arabic-form="final"
                   d="M997 0q-40 0 -93.5 8t-107 30t-94.5 62q-15 -19 -36 -34q-57 -40 -141 -59q-113 -20 -230 -2t-187 68q-88 72 -70 137q17 44 50 45.5t71 -9.5q13 -4 26 -6q23 -7 48 -4q23 3 37 25q16 25 11 76q-16 92 -56 202q-1 1 -1 2q-38 110 -55 165l-8 26q-24 84 -50 167 q-3 12 -7 24q-24 66 -26.5 117t52.5 74q86 28 140 -31.5t84.5 -153.5t46.5 -171q3 -10 5 -19q2 -11 5 -24q39 -146 61 -319q9 -105 -11 -165q16 2 28 7q76 29 89 135l-3 609q0 82 31.5 117t71.5 33t71 -34t33 -87q1 -69 1 -137q0 -142 4 -282q1 -45 10 -119t30 -127t62 -86 t108 -33h3q29 0 56 -14.5t42.5 -42t15.5 -56.5q0 -30 -15 -57t-42 -42t-57 -15h-3zM93 1226q-14 -14 -34 -21.5t-37 -2.5t-20 29q-3 20 12 50q22 40 54 62.5t67 38.5q-50 52 -36 126.5t97 102.5q71 16 109.5 -14.5t24.5 -66.5q-6 -14 -11.5 -16t-14.5 1q-9 2 -24.5 2.5 t-41.5 -5.5q-40 -14 -49 -40.5t12 -42.5t73 4l52 21q39 13 69.5 -8t23.5 -54t-80 -55l-16 -4q-61 -15 -123.5 -38.5t-106.5 -68.5v0z"/>
            <glyph glyph-name="uni06440625.isol" unicode="ﻟﺈ" horiz-adv-x="900" arabic-form="isolated"
                   d="M41 214v0q17 44 50 46t71 -10q13 -3 25 -6q24 -7 48 -4q24 4 38 26q15 24 10 76q-15 91 -56 201q0 1 -1 3q-37 110 -54 164q-4 13 -8 27l-50 166q-4 12 -7 24q-24 66 -26.5 117t52.5 74q86 28 140 -31.5t84.5 -153.5t46.5 -171l4 -18l6 -24q39 -147 60 -320 q9 -105 -10 -165q16 3 28 7q76 29 88 135l-3 609q0 82 31.5 117t72 33t71.5 -34t33 -87q1 -68 1 -137q0 -142 4 -282q5 -118 -4.5 -240.5t-54.5 -210.5q-23 -46 -62 -75q-57 -40 -141 -59q-113 -20 -230 -2t-188 69q-88 71 -69 136zM122 -454q-13 -13 -33.5 -21t-37 -3 t-20.5 29q-2 21 12 50q22 40 54 62.5t67 38.5q-49 52 -35 126.5t96 103.5q72 15 110 -15.5t25 -66.5q-7 -14 -12.5 -16t-14.5 1q-9 2 -24.5 3t-41.5 -6q-39 -13 -48.5 -40t11.5 -42.5t73 3.5l52 21q40 13 70.5 -8t23.5 -54t-80 -55l-16 -4q-61 -15 -123.5 -38.5 t-107.5 -68.5v0z"/>
            <glyph glyph-name="uni06440625.fina" unicode="ﻠﺈ" horiz-adv-x="997" arabic-form="final"
                   d="M997 0q-40 0 -93.5 8t-107 30t-94.5 62q-15 -19 -36 -34q-57 -40 -141 -59q-113 -20 -230 -2t-187 68q-88 72 -70 137q17 44 50 45.5t71 -9.5q13 -4 26 -6q23 -7 48 -4q23 3 37 25q16 25 11 76q-16 92 -56 202q-1 1 -1 2q-38 110 -55 165l-8 26q-24 84 -50 167 q-3 12 -7 24q-24 66 -26.5 117t52.5 74q86 28 140 -31.5t84.5 -153.5t46.5 -171q3 -10 5 -19q2 -11 5 -24q39 -146 61 -319q9 -105 -11 -165q16 2 28 7q76 29 89 135l-3 609q0 82 31.5 117t71.5 33t71 -34t33 -87q1 -69 1 -137q0 -142 4 -282q1 -45 10 -119t30 -127t62 -86 t108 -33h3q29 0 56 -14.5t42.5 -42t15.5 -56.5q0 -30 -15 -57t-42 -42t-57 -15h-3zM172 -474q-13 -13 -33.5 -21t-37 -3t-20.5 29q-2 21 12 50q22 40 54 62.5t67 38.5q-49 52 -35 126.5t96 103.5q72 15 110 -15.5t25 -66.5q-7 -14 -12.5 -16t-14.5 1q-9 2 -24.5 3t-41.5 -6 q-39 -13 -48.5 -40t11.5 -42.5t73 3.5l52 21q40 13 70.5 -8t23.5 -54t-80 -55l-16 -4q-61 -15 -123.5 -38.5t-107.5 -68.5v0z"/>
            <glyph glyph-name="uni06440622.isol" unicode="ﻟﺂ" horiz-adv-x="999" arabic-form="isolated"
                   d="M150 214v0q17 44 50 46t71 -10q13 -3 25 -6q24 -7 48 -4q24 4 38 26q15 24 10 76q-15 91 -56 201q0 1 -1 3q-37 110 -54 164q-4 13 -8 27l-50 166q-4 12 -7 24q-24 66 -26.5 117t52.5 74q86 28 140 -31.5t84.5 -153.5t46.5 -171l4 -18l6 -24q39 -147 60 -320 q9 -105 -10 -165q16 3 28 7q76 29 88 135l-3 609q0 82 31.5 117t72 33t71.5 -34t33 -87q1 -68 1 -137q0 -142 4 -282q5 -118 -4.5 -240.5t-54.5 -210.5q-23 -46 -62 -75q-57 -40 -141 -59q-113 -20 -230 -2t-188 69q-88 71 -69 136zM103 1242v0q-48 -56 -79.5 -37t-22.5 70 q24 85 97 146q83 67 163 74.5t158 -24t155 -80.5q56 -34 127 -44t126 15t61 95q-2 63 -63.5 109.5t-128.5 44.5q137 25 203.5 -41t42.5 -177q-17 -68 -86 -116.5t-169 -52.5t-211 60q-119 71 -185.5 80t-102.5 -19t-61 -70q-12 -17 -24 -33z"/>
            <glyph glyph-name="uni06440622.fina" unicode="ﻠﺂ" horiz-adv-x="1064" arabic-form="final"
                   d="M1076 0q-40 0 -93.5 8t-107 30t-94.5 62q-15 -19 -36 -34q-57 -40 -141 -59q-113 -20 -230 -2t-187 68q-88 72 -70 137q17 44 50 45.5t71 -9.5q13 -4 26 -6q23 -7 48 -4q23 3 37 25q16 25 11 76q-16 92 -56 202q-1 1 -1 2q-38 110 -55 165l-8 26q-24 84 -50 167 q-3 12 -7 24q-24 66 -26.5 117t52.5 74q86 28 140 -31.5t84.5 -153.5t46.5 -171q3 -10 5 -19q2 -11 5 -24q39 -146 61 -319q9 -105 -11 -165q16 2 28 7q76 29 89 135l-3 609q0 82 31.5 117t71.5 33t71 -34t33 -87q1 -69 1 -137q0 -142 4 -282q1 -45 10 -119t30 -127t62 -86 t108 -33h3q29 0 56 -14.5t42.5 -42t15.5 -56.5q0 -30 -15 -57t-42 -42t-57 -15h-3zM103 1242v0q-48 -56 -79.5 -37t-22.5 70q24 85 97 146q83 67 163 74.5t158 -24t155 -80.5q56 -34 127 -44t126 15t61 95q-2 63 -63.5 109.5t-128.5 44.5q137 25 203.5 -41t42.5 -177 q-17 -68 -86 -116.5t-169 -52.5t-211 60q-119 71 -185.5 80t-102.5 -19t-61 -70q-12 -17 -24 -33z"/>
            <glyph glyph-name="uni06440671.isol" unicode="ﻟﭑ" horiz-adv-x="852"
                   d="M41 214v0q17 44 50 46t71 -10q13 -3 25 -6q24 -7 48 -4q24 4 38 26q15 24 10 76q-15 91 -56 201q0 1 -1 3q-37 110 -54 164q-4 13 -8 27l-50 166q-4 12 -7 24q-24 66 -26.5 117t52.5 74q86 28 140 -31.5t84.5 -153.5t46.5 -171l4 -18l6 -24q39 -147 60 -320 q9 -105 -10 -165q16 3 28 7q76 29 88 135l-3 609q0 82 31.5 117t72 33t71.5 -34t33 -87q1 -68 1 -137q0 -142 4 -282q5 -118 -4.5 -240.5t-54.5 -210.5q-23 -46 -62 -75q-57 -40 -141 -59q-113 -20 -230 -2t-188 69q-88 71 -69 136zM469 1371q28 0 51 6q31 7 51 24 q17 13 24 33t1 36q-5 14 -19 21q-13 7 -36 6q-76 -3 -137 -77q-14 -17 -26 -38q46 -12 91 -11zM254 1222q-20 7 -29 26q-9 20 -2 40l13 33q-28 9 -55 12q-29 4 -62 -19q-10 -7 -20 -15q-3 -3 -5 -6l-2 -1v-1q-14 -16 -35 -18q-22 -2 -38 12t-18 35t12 38h1l1 1q1 2 3 3 q5 6 10 11q18 17 38 29q63 41 128 33q41 -5 84 -19q22 38 47 69q90 110 212 115q50 2 88 -19q47 -24 67 -73q18 -47 3 -99q-15 -53 -59 -88q-63 -52 -167 -53q-67 -1 -136 20l-13 -35q-12 -34 -48 -34q-9 0 -18 3z"/>
            <glyph glyph-name="uni06440671.fina" unicode="ﻠﭑ" horiz-adv-x="1100"
                   d="M1074 0q-40 0 -93.5 8t-107 30t-94.5 62q-15 -19 -36 -34q-57 -40 -141 -59q-113 -20 -230 -2t-187 68q-88 72 -70 137q17 44 50 45.5t71 -9.5q13 -4 26 -6q23 -7 48 -4q23 3 37 25q16 25 11 76q-16 92 -56 202q-1 1 -1 2q-38 110 -55 165l-8 26q-24 84 -50 167 q-3 12 -7 24q-24 66 -26.5 117t52.5 74q86 28 140 -31.5t84.5 -153.5t46.5 -171q3 -10 5 -19q2 -11 5 -24q39 -146 61 -319q9 -105 -11 -165q16 2 28 7q76 29 89 135l-3 609q0 82 31.5 117t71.5 33t71 -34t33 -87q1 -69 1 -137q0 -142 4 -282q1 -45 10 -119t30 -127t62 -86 t108 -33h3q29 0 56 -14.5t42.5 -42t15.5 -56.5q0 -30 -15 -57t-42 -42t-57 -15h-3zM469 1371q28 0 51 6q31 7 51 24q17 13 24 33t1 36q-5 14 -19 21q-13 7 -36 6q-76 -3 -137 -77q-14 -17 -26 -38q46 -12 91 -11zM254 1222q-20 7 -29 26q-9 20 -2 40l13 33q-28 9 -55 12 q-29 4 -62 -19q-10 -7 -20 -15q-3 -3 -5 -6l-2 -1v-1q-14 -16 -35 -18q-22 -2 -38 12t-18 35t12 38h1l1 1q1 2 3 3q5 6 10 11q18 17 38 29q63 41 128 33q41 -5 84 -19q22 38 47 69q90 110 212 115q50 2 88 -19q47 -24 67 -73q18 -47 3 -99q-15 -53 -59 -88q-63 -52 -167 -53 q-67 -1 -136 20l-13 -35q-12 -34 -48 -34q-9 0 -18 3z"/>
            <glyph glyph-name="allah" unicode="ﻟﻠَّﻪ" horiz-adv-x="1929" arabic-form="isolated"
                   d="M1211 1247q-43 -54 -106 -54q-47 1 -76.5 27.5t-40.5 66.5q-10 39 -4 80t23 72q28 45 61 36t31 -55q-3 -14 -8 -29q-5 -13 -8 -25.5t1 -23.5q12 -28 38 -32t42 36q6 21 9 42q0 3 1 6q3 24 11 43q13 24 37 23t35 -21q6 -19 7 -44v-7q1 -21 5 -42q12 -39 38 -36t41 31 q5 11 3.5 24t-4.5 26q-4 15 -5 29q2 48 37 56t59 -42q25 -67 -5 -150q-17 -39 -47.5 -64.5t-71.5 -26.5q-65 0 -103 54v0zM1291 1880v-5v0q1 -43 -8.5 -141t-37.5 -174q-21 -48 -38 0q-23 68 -25.5 159t6.5 158q8 45 31.5 58t46 -2t25.5 -53v0zM1524 225q63 1 107 36.5 t50 127.5l-9 592q3 107 54 136.5t102.5 -2t55.5 -105.5l4 -418v-16q3 -111 -3 -214t-37 -185t-103 -130.5t-204 -44.5l-55 -1q-61 4 -128.5 26t-119.5 71q-72 -93 -251 -99v0l-63 1q-114 2 -206 40.5t-150 122.5q-58 92 -64.5 190t9.5 202q12 79 -30.5 108.5t-97.5 11.5 q-72 -27 -112.5 -98t-40.5 -149.5t49.5 -130t157.5 -39.5q44 1 58.5 -49t-15.5 -102.5t-120 -57.5q-113 -2 -220 77q-71 60 -94.5 172.5t3 239.5t107 233t217.5 152q115 36 202 -3t132.5 -129.5t36.5 -209.5q-1 -9 -1 -18q-10 -82 -5 -158t57 -125.5t182 -52.5q57 3 95.5 39 t43.5 122l-9 589q3 107 54 135.5t102 -2.5t56 -104l3 -416q0 -73 11.5 -155.5t54 -142.5t134.5 -67v0z"/>
            <glyph glyph-name="riyal" unicode="رﻳﺎل" horiz-adv-x="3200" arabic-form="isolated"
                   d="M80 -199v0q-53 158 -14 313t142.5 275t244.5 173q53 20 117.5 19t80.5 -53q5 -34 -26.5 -65.5t-82.5 -68.5q-73 -51 -143.5 -126t-93.5 -191q-30 -216 95.5 -360t343.5 -142q110 6 219.5 63t182.5 151.5t73 210.5v604v389q1 80 32.5 116t73 34t74 -35t32.5 -87v-277 l1 -686q5 -207 -100 -383q-115 -182 -292 -263.5t-369 -64.5t-351.5 131t-239.5 323zM1937 227q29 0 56 -14.5t42.5 -42t15.5 -56.5q0 -30 -15 -57t-42 -42t-57 -15q-29 0 -56.5 15t-42 42t-14.5 57q0 29 15 56.5t42 42t56 14.5zM1938 0v227h154q105 9 146.5 96.5 t16.5 179.5q-30 107 -9 146t65.5 23t85 -73.5t50.5 -144.5q11 -112 -25 -211.5t-121 -165.5q-82 -64 -214 -77h-149v0zM2788 436v0q21 -130 4.5 -262t-81 -243t-188.5 -178q-55 -29 -118.5 -44.5t-126.5 -6.5q-25 3 -57.5 17t-38.5 41q-2 24 22 42.5t54.5 31t47.5 16.5 q100 30 162.5 100.5t96.5 167.5q27 88 15 180q-3 36 -8 72q-6 43 -9 87q-3 25 -0.5 54t16.5 51q14 19 36 27t45 10t46.5 -2t40.5 -22q18 -21 26 -56t12 -67q1 -8 3 -16zM1946 227v0v-227h-43q-133 0 -205 48.5t-103 130.5t-36.5 185t-3.5 214v16l4 418q5 74 56.5 105t102 2 t53.5 -136l-8 -592q5 -96 52.5 -131t114.5 -33h16zM1942 227q28 0 55.5 -14.5t42.5 -42t15 -56.5q0 -30 -14.5 -57t-42 -42t-56.5 -15q-30 0 -57 15t-42 42t-15 57q0 29 15.5 56.5t42.5 42t56 14.5zM1989 -280v0q112 -11 164.5 -40t24 -59t-160.5 -45q-69 -9 -171.5 -20 t-184.5 -11h-17q-45 -1 -72.5 9t-27.5 56q5 57 59.5 82t128.5 29.5t135 3.5q19 -1 34 -1h13q37 1 35 0.5t40 -4.5z"/>
            <glyph glyph-name="uni0472" unicode="اء" horiz-adv-x="374"
                   d="M304 558v0q0 -11 -1 -24q1 -146 -23 -319q-21 -118 -61.5 -177.5t-79.5 -31t-54 175.5q-5 64 -9 126q-4 68 -10 141q-9 102 -12 192q-1 36 -3 76q0 13 -1 25q-6 65 4.5 116.5t71.5 74.5q94 28 132 -31.5t44 -153.5t3 -171q-1 -10 -1 -19z"/>
            <glyph glyph-name="uni0473" unicode="آء" horiz-adv-x="373"
                   d="M328 554v0q-1 -11 -1 -24q0 -146 -23 -320q-21 -117 -61.5 -176.5t-79.5 -31t-54 175.5q-5 64 -9 126q-4 68 -11 141q-9 102 -11 192q-1 36 -3 76q-1 13 -1 25q-7 65 4 116.5t72 73.5q93 28 131.5 -31t44.5 -153t2 -171v-19zM-155 956v0q-54 -62 -89.5 -41t-24.5 79 q27 95 108 163q94 76 183.5 84.5t177 -27t174.5 -90.5q63 -38 143 -49t141.5 16.5t68.5 106.5q-2 71 -71.5 123t-144.5 50q154 28 228.5 -46t48.5 -199q-20 -76 -97 -130.5t-189.5 -59t-237.5 67.5q-134 80 -208.5 90t-114.5 -22t-69 -79q-13 -19 -27 -37z"/>
            <glyph glyph-name="uni0474" unicode="آﻧ" horiz-adv-x="716"
                   d="M0 0v0v227h14q105 9 146.5 96.5t16.5 179.5q-30 107 -9 146t65 23t85 -73.5t51 -144.5q11 -112 -25 -211.5t-121 -166t-223 -76.5zM87 1052v0q74 20 136 -12t80 -92q15 -75 -28 -124t-95 -62q-102 -19 -161.5 39t-49 135t117.5 116zM669 1028v0q3 -159 -5.5 -408.5 t-29.5 -403.5q-19 -118 -54.5 -177t-67 -29t-40.5 177l-15 771q3 114 53.5 152t101.5 14t57 -96zM217 1177v0q-57 -60 -91.5 -38t-21.5 79q30 95 114 160q96 72 186 77.5t176.5 -32.5t170.5 -97q62 -40 141.5 -54t142 12t71.5 105q1 71 -66.5 125t-142.5 54 q155 23 227 -53.5t41 -200.5q-22 -75 -101 -127t-192 -52.5t-235 75.5q-131 85 -205 97.5t-115.5 -18t-71.5 -76.5zM0 227q29 0 56 -14.5t42.5 -42t15.5 -56.5q0 -30 -15 -57t-42 -42t-57 -15q-29 0 -56 15t-42 42t-15 57q0 29 15 56.5t42 42t56 14.5z"/>
            <glyph glyph-name="uni0475" unicode="آﺷ" horiz-adv-x="1442"
                   d="M360 742v0q-4 121 58 214.5t159 139.5t199 23q110 -29 159 -118t-5 -195q-65 -108 -166 -144t-190.5 -28t-121.5 33q-61 52 -24.5 72t117.5 32q88 12 165 43q85 43 79 94t-72 72q-83 21 -156 -13t-125.5 -97t-75.5 -128zM1387 1028v0q4 -159 -5 -408.5t-30 -403.5 q-19 -118 -54.5 -177t-67 -29t-39.5 177l-16 771q3 114 53.5 152t101.5 14t57 -96zM935 1177v0q-56 -60 -90.5 -38t-22.5 79q30 95 115 160q96 72 186 77.5t176 -32.5t171 -97q61 -40 140.5 -54t142 12t72.5 105q0 71 -67.5 125t-142.5 54q155 23 227 -53.5t41 -200.5 q-22 -75 -101 -127t-191.5 -52.5t-235.5 75.5q-130 85 -204.5 97.5t-115.5 -18t-72 -76.5q-13 -18 -28 -36zM0 227q29 0 56 -14.5t42.5 -42t15.5 -56.5q0 -30 -15 -57t-42 -42t-57 -15q-29 0 -56 15t-42 42t-15 57q0 29 15 56.5t42 42t56 14.5zM956 64v0q-69 -67 -167 -64.5 t-177 78.5q-41 -59 -104 -74t-124.5 11.5t-97.5 89.5q-74 -74 -147 -93q-69 -13 -139 -12v227q79 -1 113.5 22.5t45 61t13.5 79.5q2 40 11.5 74.5t40.5 54.5q42 24 86.5 12t62.5 -59q13 -42 13 -95q0 -40 7 -80q17 -84 50 -69t60.5 80.5t30.5 130.5q5 69 48.5 96.5t90.5 -1 t59 -129.5l2 -71q3 -111 33 -104.5t68 100.5q25 62 23 134q1 91 42.5 131t93 25t80.5 -88q28 -80 17.5 -169t-45.5 -166q-43 -87 -90 -133z"/>
            <glyph glyph-name="uni0476" unicode="ﻓﯽءءءء" horiz-adv-x="1752"
                   d="M1210 220v0q-81 34 -108.5 119t-4 179.5t96.5 157.5q102 80 202.5 82t178.5 -52.5t111 -143t-1 -189.5q-33 -87 -110 -154t-174 -116q-64 -33 -102.5 -49.5t-92.5 -34.5q57 -9 143 -32t168.5 -63t128.5 -99.5t22 -140.5q-36 -98 -174 -176.5t-334 -123t-403.5 -39.5 t-382 73.5t-271.5 215.5q-56 92 -60 221.5t56 239.5q93 148 259.5 231.5t312.5 90.5q91 2 135 -20.5t21.5 -56.5t-130.5 -64q-36 -9 -81 -26q-188 -75 -282.5 -202.5t-72.5 -254t183 -199t484 -37.5q76 10 177.5 34.5t167.5 46.5q165 56 186.5 96.5t-53.5 69.5t-200 51 q-126 21 -237 30q-81 7 -154 17q-63 12 -81.5 46t5 66.5t84.5 39.5q96 10 169 43.5t167 91.5q4 2 7 4q22 13 44 27zM1454 424v0q37 80 -1.5 108t-94 8t-70.5 -83q-10 -80 19.5 -105t73 -4.5t73.5 76.5zM1322 1265v0q74 20 136 -11.5t80 -92.5q15 -75 -27.5 -124t-94.5 -61 q-103 -20 -162.5 38t-49 135.5t117.5 115.5z"/>
            <glyph glyph-name="uni0479" unicode="وری" horiz-adv-x="2320"
                   d="M1643 484v0q21 -129 4.5 -261.5t-81 -243.5t-187.5 -177q-56 -30 -119.5 -45t-125.5 -7q-25 3 -57.5 17t-39.5 42q-1 23 23 41.5t54 31t47 16.5q101 31 163 101t96 168q27 87 16 179q-4 36 -9 72q-6 44 -9 87q-2 25 0.5 54.5t16.5 50.5q14 20 36 27.5t45 9.5t46 -2 t40 -21q18 -22 26.5 -57t12.5 -66q1 -9 2 -17zM2026 228v0q70 5 86.5 55t-16.5 97.5t-114 46.5q-41 -3 -68 -33t-22 -78q7 -37 46.5 -62.5t87.5 -25.5zM1995 67v0q-97 1 -176.5 55t-107.5 154q-18 76 9 153.5t92.5 133t164.5 64.5q149 8 228 -86q66 -83 67 -187v0 q6 -170 -57.5 -322t-218.5 -237q-56 -29 -119.5 -44.5t-126.5 -7.5q-24 3 -57 17t-39 42q-1 23 23 41.5t54 31t47 17.5q148 46 217 175zM824 658v0q21 -4 44 -8q92 -13 188.5 -42.5t157.5 -102t46 -212.5q-14 -91 -79 -174.5t-143 -130.5q-170 -99 -371.5 -100t-368.5 97.5 t-234 297.5q-43 128 -9 270q34 120 120.5 207t191.5 138.5t197 63.5q101 12 129.5 -18t-66.5 -85q-26 -14 -51 -27q-74 -35 -141 -81t-119 -125q-64 -104 -57.5 -203t66 -176.5t154.5 -116.5q107 -39 225 -23.5t212.5 70t127.5 130.5q27 88 -15 130.5t-117.5 57t-150.5 18.5 q-45 4 -79 8q-105 17 -111.5 71.5t108.5 138.5q53 35 116 69q38 21 76 43q169 86 262 92t98.5 -32t-86.5 -84q-83 -39 -160 -80q-63 -33 -161 -81z"/>
            <glyph glyph-name="uni0480" unicode="ﻮری" horiz-adv-x="2269"
                   d="M1609 383v0q21 -129 5 -261.5t-80.5 -243.5t-188.5 -178q-55 -29 -118.5 -44.5t-126.5 -6.5q-25 3 -57.5 17t-38.5 41q-2 24 22 42.5t54 31t48 16.5q100 30 162.5 100.5t95.5 168.5q28 87 16 179q-3 36 -8 72q-6 44 -10 87q-2 25 0.5 54t16.5 51q14 20 36 27.5t45 9.5 t46.5 -2t39.5 -22q18 -21 26.5 -56t12.5 -66q1 -9 2 -17zM1992 163v0q69 5 86 55t-16.5 97.5t-113.5 46.5q-41 -3 -68.5 -33t-21.5 -78q7 -37 46.5 -62.5t87.5 -25.5zM2194 0v0q-60 -174 -233 -270q-55 -30 -118.5 -45t-126.5 -7q-25 3 -57.5 17t-38.5 42q-1 23 22.5 41.5 t54 31t47.5 17.5q148 46 216 175q-96 1 -175.5 55t-107.5 154q-18 76 9 153.5t92.5 133t164.5 64.5q149 8 228 -86q66 -83 66 -187v0q1 -30 0 -61l32 -1v-227h-75zM824 568v0q21 -4 44 -8q92 -13 188.5 -42.5t157.5 -101.5t46 -213q-14 -91 -79 -174.5t-143 -130.5 q-170 -99 -371.5 -100t-368.5 97.5t-234 297.5q-43 128 -9 270q34 120 120.5 207t191.5 138.5t197 63.5q101 12 129.5 -18t-66.5 -85q-26 -13 -51 -26q-74 -36 -141 -82t-119 -125q-64 -104 -57.5 -203t66 -176.5t154.5 -115.5q107 -40 225 -24.5t212.5 70t127.5 131.5 q27 87 -15 129.5t-117.5 57t-150.5 19.5q-45 3 -79 7q-105 17 -111.5 71.5t108.5 138.5q53 35 116 69q38 21 76 44q169 86 262 91.5t98.5 -32.5t-86.5 -84q-83 -39 -160 -80q-63 -33 -161 -81zM2265 227q28 0 55.5 -14.5t42.5 -42t15 -56.5q0 -30 -14.5 -57t-42 -42 t-56.5 -15q-30 0 -57 15t-42 42t-15 57q0 29 15.5 56.5t42.5 42t56 14.5z"/>
            <glyph glyph-name="uni0481" unicode="ﺘﯽءءءءءءء" horiz-adv-x="1830"
                   d="M1830 227v0v-227q-121 0 -182.5 29.5t-93 88t-59.5 145.5q-10 27 -20 56l-22 46q-18 31 -42 56.5t-58 34.5q-52 8 -107 -37t-105 -102q-36 -39 -66 -67q-22 -18 -16.5 -33t56.5 -32q327 -91 454 -195.5t99 -206t-163.5 -184t-332 -130t-407.5 -44.5t-390 72.5t-279 221.5 q-56 94 -60.5 224.5t56.5 241.5q90 149 227 233t280 91q92 3 136.5 -20t21.5 -57.5t-132 -64.5q-36 -9 -82 -26q-188 -76 -263 -201t-26.5 -248t231.5 -192.5t510 -34.5q150 17 281 58q167 57 188.5 98t-54.5 70t-201 51q-14 3 -28 5q-73 11 -155 33.5t-143 67.5 q-73 62 -70.5 141.5t58.5 149.5q66 81 160 173t141 123q121 70 251.5 44.5t204.5 -164.5q25 -54 41 -109q20 -73 52.5 -125t108.5 -54zM1395 1027v0q112 -11 165 -40t24 -59t-161 -45q-69 -9 -171 -20t-184 -11h-17q-45 -1 -73 9t-27 56q4 57 59 82t129 29.5t135 3.5 q18 -1 33 -1h14q37 1 34.5 0.5t39.5 -4.5zM1829 227q29 0 56 -14.5t42.5 -42t15.5 -56.5q0 -30 -15 -57t-42 -42t-57 -15q-29 0 -56 15t-42 42t-15 57q0 29 15 56.5t42.5 42t55.5 14.5z"/>
            <glyph glyph-name="uni0482" unicode="ﯿﯽءءءءءءء" horiz-adv-x="1847"
                   d="M1712 -800v0q710 -118 2 -115q-797 7 -1565 -42q-80 4 -109 56t9 118q19 26 90 37t168 17l36 2q132 10 555 -3t814 -70zM1847 227v0v-227q-121 0 -182.5 29.5t-93 88t-60.5 145.5q-9 27 -20 56l-21 46q-18 31 -42 56.5t-59 34.5q-51 8 -106 -37t-106 -102 q-35 -39 -65 -67q-22 -18 -16.5 -33t56.5 -32q327 -91 454 -195.5t99 -206t-163.5 -184t-332 -130t-407.5 -44.5t-390 72.5t-279 221.5q-56 94 -60.5 224.5t56.5 241.5q90 149 227 233t280 91q92 3 136 -20t21.5 -57.5t-131.5 -64.5q-37 -9 -82 -26q-189 -76 -264 -201 t-26 -248t232 -192.5t510 -34.5q150 17 281 58q167 57 188.5 98t-54.5 70t-202 51q-13 3 -28 5q-72 11 -154.5 33.5t-142.5 67.5q-73 62 -70.5 141.5t58.5 149.5q66 81 159.5 173t141.5 123q120 70 251 44.5t205 -164.5q24 -54 41 -109q19 -73 52 -125t109 -54zM1846 227 q29 0 56 -14.5t42.5 -42t15.5 -56.5q0 -30 -15 -57t-42 -42t-57 -15q-29 0 -56 15t-42 42t-15 57q0 29 15 56.5t42.5 42t55.5 14.5z"/>
            <glyph glyph-name="uni0483" unicode="ﺒﯽءءءءءءء" horiz-adv-x="1847"
                   d="M1226 -699v0q74 20 136 -11.5t80 -92.5q15 -74 -28 -123t-95 -62q-102 -20 -161.5 38.5t-49.5 135.5t118 115zM1847 227v0v-227q-121 0 -182.5 29.5t-93 88t-60.5 145.5q-9 27 -20 56l-21 46q-18 31 -42 56.5t-59 34.5q-51 8 -106 -37t-106 -102q-35 -39 -65 -67 q-22 -18 -16.5 -33t56.5 -32q327 -91 454 -195.5t99 -206t-163.5 -184t-332 -130t-407.5 -44.5t-390 72.5t-279 221.5q-56 94 -60.5 224.5t56.5 241.5q90 149 227 233t280 91q92 3 136 -20t21.5 -57.5t-131.5 -64.5q-37 -9 -82 -26q-189 -76 -264 -201t-26 -248t232 -192.5 t510 -34.5q150 17 281 58q167 57 188.5 98t-54.5 70t-202 51q-13 3 -28 5q-72 11 -154.5 33.5t-142.5 67.5q-73 62 -70.5 141.5t58.5 149.5q66 81 159.5 173t141.5 123q120 70 251 44.5t205 -164.5q24 -54 41 -109q19 -73 52 -125t109 -54zM1846 227q29 0 56 -14.5t42.5 -42 t15.5 -56.5q0 -30 -15 -57t-42 -42t-57 -15q-29 0 -56 15t-42 42t-15 57q0 29 15 56.5t42.5 42t55.5 14.5z"/>
            <glyph glyph-name="uni0484" unicode="ﻨﯽءءءءءءء" horiz-adv-x="1847"
                   d="M975 1145v0q74 20 136.5 -11.5t79.5 -92.5q16 -75 -27 -124t-95 -62q-102 -19 -161.5 39t-49.5 135.5t117 115.5zM1847 227v0v-227q-121 0 -182.5 29.5t-93 88t-60.5 145.5q-9 27 -20 56l-21 46q-18 31 -42 56.5t-59 34.5q-51 8 -106 -37t-106 -102q-35 -39 -65 -67 q-22 -18 -16.5 -33t56.5 -32q327 -91 454 -195.5t99 -206t-163.5 -184t-332 -130t-407.5 -44.5t-390 72.5t-279 221.5q-56 94 -60.5 224.5t56.5 241.5q90 149 227 233t280 91q92 3 136 -20t21.5 -57.5t-131.5 -64.5q-37 -9 -82 -26q-189 -76 -264 -201t-26 -248t232 -192.5 t510 -34.5q150 17 281 58q167 57 188.5 98t-54.5 70t-202 51q-13 3 -28 5q-72 11 -154.5 33.5t-142.5 67.5q-73 62 -70.5 141.5t58.5 149.5q66 81 159.5 173t141.5 123q120 70 251 44.5t205 -164.5q24 -54 41 -109q19 -73 52 -125t109 -54zM1846 227q29 0 56 -14.5t42.5 -42 t15.5 -56.5q0 -30 -15 -57t-42 -42t-57 -15q-29 0 -56 15t-42 42t-15 57q0 29 15 56.5t42.5 42t55.5 14.5z"/>
            <glyph glyph-name="uni0485" unicode="ﭙﯽءءءءءءء" horiz-adv-x="1847"
                   d="M971 -1030v0q-4 121 58 215t159 139.5t200 23.5q109 -30 158 -118.5t-5 -195.5q-64 -107 -165 -143.5t-191 -28.5t-121 33q-61 52 -25 72.5t118 31.5q88 13 165 43q84 43 78.5 94t-71.5 72q-84 22 -157 -12t-125.5 -97t-75.5 -129zM1847 227v0v-227q-121 0 -182.5 29.5 t-93 88t-60.5 145.5q-9 27 -20 56l-21 46q-18 31 -42 56.5t-59 34.5q-51 8 -106 -37t-106 -102q-35 -39 -65 -67q-22 -18 -16.5 -33t56.5 -32q327 -91 454 -195.5t99 -206t-163.5 -184t-332 -130t-407.5 -44.5t-390 72.5t-279 221.5q-56 94 -60.5 224.5t56.5 241.5 q90 149 227 233t280 91q92 3 136 -20t21.5 -57.5t-131.5 -64.5q-37 -9 -82 -26q-189 -76 -264 -201t-26 -248t232 -192.5t510 -34.5q150 17 281 58q167 57 188.5 98t-54.5 70t-202 51q-13 3 -28 5q-72 11 -154.5 33.5t-142.5 67.5q-73 62 -70.5 141.5t58.5 149.5 q66 81 159.5 173t141.5 123q120 70 251 44.5t205 -164.5q24 -54 41 -109q19 -73 52 -125t109 -54zM1846 227q29 0 56 -14.5t42.5 -42t15.5 -56.5q0 -30 -15 -57t-42 -42t-57 -15q-29 0 -56 15t-42 42t-15 57q0 29 15 56.5t42.5 42t55.5 14.5z"/>
            <glyph glyph-name="uni0486" unicode="ﺑﯽءءءء" horiz-adv-x="1571"
                   d="M1188 24v0q59 -25 123 -36q27 -5 55 -12q80 -21 145 -53q57 -24 92 -60q87 -102 38.5 -196.5t-190.5 -168.5t-335.5 -114.5t-395.5 -33t-371 76t-263 212.5q-56 92 -60.5 221.5t56.5 239.5q93 148 259.5 231.5t312.5 90.5q91 3 135 -20t21.5 -57t-130.5 -64 q-36 -9 -81 -26q-188 -75 -272.5 -199t-50 -246t206 -191t494.5 -34q149 17 279 58q165 56 186.5 96.5t-53.5 69.5t-200 51q-127 21 -237 30q-81 7 -154 18q-64 11 -82 45t5.5 66.5t84.5 40.5q100 10 192.5 67t142.5 146t22 195q-29 107 -8.5 146t65 23t85 -73.5 t50.5 -144.5q12 -119 -28.5 -225t-138.5 -170zM1045 -740v0q74 20 136 -11.5t80 -92.5q15 -75 -28 -124t-95 -62q-102 -19 -161.5 39t-49.5 135.5t118 115.5z"/>
            <glyph glyph-name="uni0487" unicode="ﺗﯽءءءء" horiz-adv-x="1501"
                   d="M1202 19v0q60 -26 123 -36q27 -5 55 -12q80 -21 145 -53q57 -24 92 -61q87 -101 38.5 -195.5t-190.5 -168.5t-335 -114.5t-395.5 -33t-371.5 76t-263 212.5q-56 92 -60 221.5t56 239.5q93 148 259.5 231.5t312.5 90.5q91 2 135 -20.5t21.5 -56.5t-130.5 -64 q-36 -9 -81 -26q-188 -75 -272.5 -199t-49.5 -246t206 -191t494 -34q149 17 279 58q165 56 186.5 96.5t-53.5 69.5t-200 51q-127 21 -237 30q-81 7 -154 17q-64 12 -82 46t5.5 66.5t84.5 39.5q100 11 192.5 68t142.5 146t22 195q-29 107 -8.5 146t65 23t85 -73.5 t51.5 -144.5q11 -120 -29.5 -225.5t-138.5 -169.5zM1162 913v0q112 -12 164.5 -41t24 -59t-160.5 -44q-70 -9 -172 -20.5t-184 -10.5h-17q-45 -2 -72.5 8.5t-27.5 55.5q4 58 59 82.5t129 29.5t135 3h34h13q37 0 35 -0.5t40 -3.5z"/>
            <glyph glyph-name="uni0488" unicode="ﻧﯽءءءء" horiz-adv-x="1498"
                   d="M1189 19v0q59 -26 123 -36q27 -5 54 -12q81 -21 146 -53q57 -24 92 -61q87 -101 38.5 -195.5t-190.5 -168.5t-335.5 -114.5t-395.5 -33t-371 76t-263 212.5q-56 92 -60.5 221.5t56.5 239.5q93 148 259.5 231.5t312.5 90.5q91 2 135 -20.5t21.5 -56.5t-130.5 -64 q-37 -9 -81 -26q-188 -75 -272.5 -199t-50 -246t206 -191t494.5 -34q149 17 279 58q165 56 186.5 96.5t-53.5 69.5t-200 51q-127 21 -237 30q-81 7 -154 17q-64 12 -82 46t5 66.5t85 39.5q100 11 192.5 68t142.5 146t22 195q-30 107 -9 146t65.5 23t85 -73.5t50.5 -144.5 q12 -120 -28.5 -225.5t-138.5 -169.5zM903 880v0q74 20 136 -11.5t80 -92.5q15 -75 -27.5 -124t-94.5 -61q-103 -20 -162.5 38t-49 135.5t117.5 115.5z"/>
            <glyph glyph-name="uni0489" unicode="ﭘﯽءءءء" horiz-adv-x="1500"
                   d="M1189 19v0q60 -26 123 -36q27 -5 55 -12q80 -21 145 -53q57 -24 92 -61q87 -101 38.5 -195.5t-190.5 -168.5t-335 -114.5t-395.5 -33t-371.5 76t-263 212.5q-56 92 -60 221.5t56 239.5q93 148 259.5 231.5t312.5 90.5q91 2 135 -20.5t21.5 -56.5t-130.5 -64 q-36 -9 -81 -26q-188 -75 -272.5 -199t-49.5 -246t206 -191t494 -34q149 17 279 58q165 56 186.5 96.5t-53.5 69.5t-200 51q-127 21 -237 30q-81 7 -154 17q-64 12 -82 46t5.5 66.5t84.5 39.5q100 11 192.5 68t142.5 146t22 195q-29 107 -8.5 146t65 23t85 -73.5 t51.5 -144.5q11 -120 -29.5 -225.5t-138.5 -169.5zM972 -1030v0q-4 121 58 215t159 139.5t199 23.5q110 -30 159 -118.5t-5 -195.5q-65 -107 -166 -143.5t-190.5 -28.5t-121.5 33q-61 52 -24.5 72.5t118.5 31.5q87 13 164 43q85 43 79 94t-72 72q-83 22 -156 -12t-125.5 -97 t-75.5 -129z"/>
            <glyph glyph-name="uni0490" unicode="ﯾﯽءءءء" horiz-adv-x="1501"
                   d="M1214 19v0q59 -26 123 -36q27 -5 54 -12q81 -21 146 -53q57 -24 92 -61q87 -101 38 -195.5t-191 -168.5t-335 -114.5t-395 -33t-371 76t-263 212.5q-56 92 -60.5 221.5t55.5 239.5q94 148 260.5 231.5t312.5 90.5q91 2 135 -20.5t21.5 -56.5t-131.5 -64q-36 -9 -81 -26 q-187 -75 -272 -199t-50 -246t206 -191t495 -34q149 17 279 58q165 56 186.5 96.5t-54 69.5t-199.5 51q-127 21 -237 30q-81 7 -154 17q-64 12 -82 46t5 66.5t85 39.5q100 11 192.5 68t142.5 146t22 195q-30 107 -9 146t65.5 23t85 -73.5t50.5 -144.5q12 -120 -28.5 -225.5 t-138.5 -169.5zM1637 -799v0q710 -118 2 -115q-797 7 -1565 -41q-80 4 -109 55.5t9 117.5q19 26 90 37t168 17q18 1 36 3q132 9 555 -3.5t814 -70.5z"/>
            <glyph glyph-name="uni0491" unicode="ﺑﯽءءءءء" horiz-adv-x="1069"
                   d="M640 0q-53 2 -133 -4q-87 -6 -164 -34q-69 -25 -124.5 -74t-60 -108.5t81.5 -114.5q152 -91 405 -118t540 -2t543.5 89.5t419.5 156.5q7 5 22 12.5l33 16.5l18 10q21 14 39 18q13 3 16 -9t-16 -45q-11 -17 -18 -38q-5 -18 -9 -33q-10 -45 -27.5 -80.5t-61.5 -61.5 q-137 -77 -376 -148.5t-521 -110.5t-550 -19q-152 12 -290 49.5t-234.5 104.5t-123.5 167q-27 119 21 243q19 49 49.5 99t58.5 79q74 74 147.5 114t157.5 54q75 12 157 14h15q105 9 146.5 96.5t16.5 179.5q-29 107 -8.5 146t65 23.5t85 -73.5t50.5 -144q11 -112 -25 -212 t-121 -166q-80 -61 -206 -75v-2h-18zM492 -78v0q74 20 136 -11.5t80 -92.5q15 -75 -27.5 -124t-94.5 -62q-103 -19 -162.5 39t-49 135.5t117.5 115.5z"/>
            <glyph glyph-name="uni0492" unicode="ﺗﯽءءءءء" horiz-adv-x="1069"
                   d="M640 0q-53 2 -133 -4q-87 -6 -164 -34q-69 -25 -124.5 -74t-60 -108.5t81.5 -114.5q152 -91 405 -118t540 -2t543.5 89.5t419.5 156.5q7 5 22 12.5l33 16.5l18 10q21 14 39 18q13 3 16 -9t-16 -45q-11 -17 -18 -38q-5 -18 -9 -33q-10 -45 -27.5 -80.5t-61.5 -61.5 q-137 -77 -376 -148.5t-521 -110.5t-550 -19q-152 12 -290 49.5t-234.5 104.5t-123.5 167q-27 119 21 243q19 49 49.5 99t58.5 79q74 74 147.5 114t157.5 54q75 12 157 14h15q105 9 146.5 96.5t16.5 179.5q-29 107 -8.5 146t65 23.5t85 -73.5t50.5 -144q11 -112 -25 -212 t-121 -166q-80 -61 -206 -75v-2h-18zM698 896v0q112 -11 164.5 -40.5t24 -59.5t-160.5 -44q-69 -9 -171.5 -20t-183.5 -11h-18q-44 -1 -72 9t-28 56q5 57 60 81.5t128.5 29.5t134.5 3h34h13q37 1 35 0.5t40 -4.5z"/>
            <glyph glyph-name="uni0493" unicode="ﻧﯽءءءءء" horiz-adv-x="1069"
                   d="M640 0q-53 2 -133 -4q-87 -6 -164 -34q-69 -25 -124.5 -74t-60 -108.5t81.5 -114.5q152 -91 405 -118t540 -2t543.5 89.5t419.5 156.5q7 5 22 12.5l33 16.5l18 10q21 14 39 18q13 3 16 -9t-16 -45q-11 -17 -18 -38q-5 -18 -9 -33q-10 -45 -27.5 -80.5t-61.5 -61.5 q-137 -77 -376 -148.5t-521 -110.5t-550 -19q-152 12 -290 49.5t-234.5 104.5t-123.5 167q-27 119 21 243q19 49 49.5 99t58.5 79q74 74 147.5 114t157.5 54q75 12 157 14h15q105 9 146.5 96.5t16.5 179.5q-29 107 -8.5 146t65 23.5t85 -73.5t50.5 -144q11 -112 -25 -212 t-121 -166q-80 -61 -206 -75v-2h-18zM476 768v0q75 20 137 -11.5t80 -92.5q15 -75 -28 -124t-95 -62q-102 -19 -161.5 39t-49.5 135.5t117 115.5z"/>
            <glyph glyph-name="uni0494" unicode="ﭘﯽءءءءء" horiz-adv-x="1069"
                   d="M317 -1148v0q-4 122 57.5 215.5t158.5 139t200 23.5q110 -30 158.5 -118.5t-4.5 -195.5q-65 -107 -166 -143t-191 -28t-121 32q-61 52 -24.5 72.5t117.5 31.5q88 13 165 43q85 43 79 94t-72 73q-83 21 -156 -13t-126 -97t-75 -129zM640 0q-53 2 -133 -4q-87 -6 -164 -34 q-69 -25 -124.5 -74t-60 -108.5t81.5 -114.5q152 -91 405 -118t540 -2t543.5 89.5t419.5 156.5q7 5 22 12.5l33 16.5l18 10q21 14 39 18q13 3 16 -9t-16 -45q-11 -17 -18 -38q-5 -18 -9 -33q-10 -45 -27.5 -80.5t-61.5 -61.5q-137 -77 -376 -148.5t-521 -110.5t-550 -19 q-152 12 -290 49.5t-234.5 104.5t-123.5 167q-27 119 21 243q19 49 49.5 99t58.5 79q74 74 147.5 114t157.5 54q75 12 157 14h15q105 9 146.5 96.5t16.5 179.5q-29 107 -8.5 146t65 23.5t85 -73.5t50.5 -144q11 -112 -25 -212t-121 -166q-80 -61 -206 -75v-2h-18z"/>
            <glyph glyph-name="uni0495" unicode="ﯾﯽءءءءء" horiz-adv-x="1069"
                   d="M640 0q-53 2 -133 -4q-87 -6 -164 -34q-69 -25 -124.5 -74t-60 -108.5t81.5 -114.5q152 -91 405 -118t540 -2t543.5 89.5t419.5 156.5q7 5 22 12.5l33 16.5l18 10q21 14 39 18q13 3 16 -9t-16 -45q-11 -17 -18 -38q-5 -18 -9 -33q-10 -45 -27.5 -80.5t-61.5 -61.5 q-137 -77 -376 -148.5t-521 -110.5t-550 -19q-152 12 -290 49.5t-234.5 104.5t-123.5 167q-27 119 21 243q19 49 49.5 99t58.5 79q74 74 147.5 114t157.5 54q75 12 157 14h15q105 9 146.5 96.5t16.5 179.5q-29 107 -8.5 146t65 23.5t85 -73.5t50.5 -144q11 -112 -25 -212 t-121 -166q-80 -61 -206 -75v-2h-18zM700 -132v0q112 -12 165 -41t24 -59t-161 -44q-69 -9 -171 -20.5t-184 -10.5h-17q-45 -2 -73 8.5t-27 55.5q4 58 59 82.5t128.5 29.5t135.5 3h33h13q38 0 35.5 -0.5t39.5 -3.5z"/>
            <glyph glyph-name="uni0496" unicode="ﻗﯽءءءءء" horiz-adv-x="1290"
                   d="M913 616v0q-55 3 -90.5 -20.5t-38.5 -56.5q-1 -30 27.5 -53.5t75.5 -26.5q46 -2 83.5 20t44.5 55q4 27 -20 51.5t-82 30.5zM658 227l87 -1q84 -1 165 20.5t126 107.5q-67 -61 -145 -74t-147 13q-112 45 -147.5 131t-8 179t106.5 159t198 70q136 2 241 -93t109 -283 q-1 -113 -53.5 -217.5t-157.5 -171.5t-261 -68l-131 1q-54 2 -133 -4q-87 -6 -164 -34q-69 -25 -124.5 -74t-60 -108.5t80.5 -114.5q153 -91 405.5 -118t539.5 -2t544 89.5t419 156.5q8 5 22.5 12.5t32.5 16.5l18 10q22 14 40 18q13 3 16 -9t-16 -45q-12 -17 -18 -38 q-5 -18 -9 -33q-10 -45 -27.5 -80.5t-61.5 -61.5q-137 -77 -376 -148.5t-521 -110.5t-551 -19q-151 12 -289 49.5t-235 104.5t-124 167q-27 119 22 243q19 49 49 99t59 79q74 74 147.5 114t156.5 54q76 12 158 14h18zM996 1078v0q112 -12 164.5 -41t24 -59t-160.5 -44 q-70 -9 -172 -20.5t-184 -10.5h-17q-45 -2 -72.5 8.5t-27.5 56.5q4 57 59 81.5t129 29.5t135 3h34h13q37 0 35 -0.5t40 -3.5z"/>
            <glyph glyph-name="uni0497" unicode="ﻓﯽءءءءء" horiz-adv-x="1292"
                   d="M914 616v0q-55 3 -91 -20.5t-39 -56.5q-1 -30 27.5 -53.5t75.5 -26.5q46 -2 83.5 20t44.5 55q4 27 -20 51.5t-81 30.5zM658 227l87 -1q84 -1 165 20.5t126 107.5q-66 -61 -144.5 -74t-147.5 13q-111 45 -147 131t-8.5 179t106.5 159t198 70q136 2 241 -93t110 -283 q-2 -113 -54.5 -217.5t-157.5 -171.5t-261 -68l-131 1q-53 2 -133 -4q-87 -6 -164 -34q-69 -25 -124.5 -74t-60 -108.5t81.5 -114.5q152 -91 405 -118t540 -2t543.5 89.5t419.5 156.5q7 5 22 12.5l33 16.5l18 10q21 14 39 18q13 3 16 -9t-16 -45q-11 -17 -18 -38 q-5 -18 -9 -33q-10 -45 -27.5 -80.5t-61.5 -61.5q-137 -77 -376 -148.5t-521 -110.5t-550 -19q-152 12 -290 49.5t-234.5 104.5t-123.5 167q-27 119 21 243q19 49 49.5 99t58.5 79q74 74 147.5 114t157.5 54q75 12 157 14h18zM829 1201v0q75 20 137 -11.5t80 -92.5 q15 -75 -28 -124t-95 -61q-102 -20 -161.5 38t-49.5 135.5t117 115.5z"/>
            <glyph glyph-name="uni0498" unicode="ﻏﯽءءءءء" horiz-adv-x="1559"
                   d="M903 1275v0q74 20 136 -12t80 -92q15 -75 -27.5 -124t-94.5 -62q-103 -19 -162.5 39t-49 135t117.5 116zM574 0q-31 -1 -67 -4q-87 -6 -164 -34q-69 -25 -124.5 -74t-60 -108.5t81.5 -114.5q152 -91 405 -118t540 -2t543.5 89.5t419.5 156.5q7 5 22 12.5l33 16.5l18 10 q21 14 39 18q13 3 16 -9t-16 -45q-11 -17 -18 -38q-5 -18 -9 -33q-10 -45 -27.5 -80.5t-61.5 -61.5q-137 -77 -376 -148.5t-521 -110.5t-550 -19q-152 12 -290 49.5t-234.5 104.5t-123.5 167q-27 119 21 243q19 49 49.5 99t58.5 79q74 74 147.5 114t157.5 54q38 6 255 14 q-87 68 -100.5 159.5t30 179.5t130.5 146q86 56 189 66t190 -30q78 -37 114 -106q19 -46 11.5 -89.5t-32.5 -60t-58 20.5q-10 13 -19 27q-17 35 -54.5 59.5t-130.5 5.5q-90 -26 -111.5 -106t41.5 -141q70 -54 157 -47.5t156 42.5q30 16 88 37.5t107.5 9t49.5 -98.5 q-7 -73 -73 -113t-129 -60q-13 -6 -23 -9q-82 -28 -162 -29q-79 -2 -157 -28q-107 -40 -196 -52q-47 -6 -98 -9v-1h-20q-31 -1 -64 0z"/>
            <glyph glyph-name="uni0499" unicode="ﻋﯽءءءءء" horiz-adv-x="1559"
                   d="M574 0q-31 -1 -67 -4q-87 -6 -164 -34q-69 -25 -124.5 -74t-60 -108.5t81.5 -114.5q152 -91 405 -118t540 -2t543.5 89.5t419.5 156.5q7 5 22 12.5l33 16.5l18 10q21 14 39 18q13 3 16 -9t-16 -45q-11 -17 -18 -38q-5 -18 -9 -33q-10 -45 -27.5 -80.5t-61.5 -61.5 q-137 -77 -376 -148.5t-521 -110.5t-550 -19q-152 12 -290 49.5t-234.5 104.5t-123.5 167q-27 119 21 243q19 49 49.5 99t58.5 79q74 74 147.5 114t157.5 54q38 6 255 14q-87 68 -100.5 159.5t30 179.5t130.5 146q86 56 189 66t190 -30q78 -37 114 -106q19 -46 11.5 -89.5 t-32.5 -60t-58 20.5q-10 13 -19 27q-17 35 -54.5 59.5t-130.5 5.5q-90 -26 -111.5 -106t41.5 -141q70 -54 157 -47.5t156 42.5q30 16 88 37.5t107.5 9t49.5 -98.5q-7 -73 -73 -113t-129 -60q-13 -6 -23 -9q-82 -28 -162 -29q-79 -2 -157 -28q-107 -40 -196 -52 q-47 -6 -98 -9v-1h-20q-31 -1 -64 0z"/>
            <glyph glyph-name="uni0500" unicode="ﺧﯽءءءءء" horiz-adv-x="1890"
                   d="M881 1128v0q74 20 136 -11.5t80 -92.5q15 -74 -27.5 -123t-94.5 -62q-103 -19 -162.5 39t-49 135t117.5 115zM658 227q74 1 155 8q104 9 202 47t177 123q-41 23 -81 51q-71 52 -147 77q-72 20 -101.5 2t-43.5 -52q-53 -92 -98.5 -68t-49.5 100q-1 70 55 133t167 77.5 t274 -59.5q26 -12 48 -24q73 -39 145.5 -59.5t198.5 -13.5q35 4 71 14q37 10 73.5 14t71.5 -12q40 -21 58.5 -66t-10.5 -94q-43 -59 -100 -74t-119 -16q-80 0 -148 -28q-91 -48 -183 -100q-70 -40 -140 -77q-111 -59 -226 -94.5t-238 -35.5h-51v1q-47 0 -111 -5 q-87 -6 -164 -34q-69 -25 -124.5 -74t-60 -108.5t81.5 -114.5q152 -91 405 -118t540 -2t543.5 89.5t419.5 156.5q7 5 22 12.5l33 16.5l18 10q21 14 39 18q13 3 16 -9t-16 -45q-11 -17 -18 -38q-5 -18 -9 -33q-10 -45 -27.5 -80.5t-61.5 -61.5q-137 -77 -376 -148.5 t-521 -110.5t-550 -19q-152 12 -290 49.5t-234.5 104.5t-123.5 167q-27 119 21 243q19 49 49.5 99t58.5 79q74 74 147.5 114t157.5 54q65 11 175 14z"/>
            <glyph glyph-name="uni0501" unicode="ﺟﯽءءءءء" horiz-adv-x="1890"
                   d="M864 -66v0q74 20 136 -11.5t80 -92.5q15 -75 -27.5 -124t-94.5 -61q-102 -20 -162 38t-49.5 135.5t117.5 115.5zM658 227q74 1 155 8q104 9 202 47t177 123q-41 23 -81 51q-71 52 -147 77q-72 20 -101.5 2t-43.5 -52q-53 -92 -98.5 -68t-49.5 100q-1 70 55 133t167 77.5 t274 -59.5q26 -12 48 -24q73 -39 145.5 -59.5t198.5 -13.5q35 4 71 14q37 10 73.5 14t71.5 -12q40 -21 58.5 -66t-10.5 -94q-43 -59 -100 -74t-119 -16q-80 0 -148 -28q-91 -48 -183 -100q-70 -40 -140 -77q-111 -59 -226 -94.5t-238 -35.5h-51v1q-47 0 -111 -5 q-87 -6 -164 -34q-69 -25 -124.5 -74t-60 -108.5t81.5 -114.5q152 -91 405 -118t540 -2t543.5 89.5t419.5 156.5q7 5 22 12.5l33 16.5l18 10q21 14 39 18q13 3 16 -9t-16 -45q-11 -17 -18 -38q-5 -18 -9 -33q-10 -45 -27.5 -80.5t-61.5 -61.5q-137 -77 -376 -148.5 t-521 -110.5t-550 -19q-152 12 -290 49.5t-234.5 104.5t-123.5 167q-27 119 21 243q19 49 49.5 99t58.5 79q74 74 147.5 114t157.5 54q65 11 135 13v1h40z"/>
            <glyph glyph-name="uni0502" unicode="ﺣﯽءءءءء" horiz-adv-x="1890"
                   d="M658 227q74 1 155 8q104 9 202 47t177 123q-41 23 -81 51q-71 52 -147 77q-72 20 -101.5 2t-43.5 -52q-53 -92 -98.5 -68t-49.5 100q-1 70 55 133t167 77.5t274 -59.5q26 -12 48 -24q73 -39 145.5 -59.5t198.5 -13.5q35 4 71 14q37 10 73.5 14t71.5 -12q40 -21 58.5 -66 t-10.5 -94q-43 -59 -100 -74t-119 -16q-80 0 -148 -28q-91 -48 -183 -100q-70 -40 -140 -77q-111 -59 -226 -94.5t-238 -35.5h-51v1q-47 0 -111 -5q-87 -6 -164 -34q-69 -25 -124.5 -74t-60 -108.5t81.5 -114.5q152 -91 405 -118t540 -2t543.5 89.5t419.5 156.5q7 5 22 12.5 l33 16.5l18 10q21 14 39 18q13 3 16 -9t-16 -45q-11 -17 -18 -38q-5 -18 -9 -33q-10 -45 -27.5 -80.5t-61.5 -61.5q-137 -77 -376 -148.5t-521 -110.5t-550 -19q-152 12 -290 49.5t-234.5 104.5t-123.5 167q-27 119 21 243q19 49 49.5 99t58.5 79q74 74 147.5 114t157.5 54 q65 11 135 13v1h40z"/>
            <glyph glyph-name="uni0503" unicode="ﭼﯽءءءءء" horiz-adv-x="1890"
                   d="M658 227q74 1 155 8q104 9 202 47t177 123q-41 23 -81 51q-71 52 -147 77q-72 20 -101.5 2t-43.5 -52q-53 -92 -98.5 -68t-49.5 100q-1 70 55 133t167 77.5t274 -59.5q26 -12 48 -24q73 -39 145.5 -59.5t198.5 -13.5q35 4 71 14q37 10 73.5 14t71.5 -12q40 -21 58.5 -66 t-10.5 -94q-43 -59 -100 -74t-119 -16q-80 0 -148 -28q-91 -48 -183 -100q-70 -40 -140 -77q-111 -59 -226 -94.5t-238 -35.5h-51v1q-47 0 -111 -5q-87 -6 -164 -34q-69 -25 -124.5 -74t-60 -108.5t81.5 -114.5q152 -91 405 -118t540 -2t543.5 89.5t419.5 156.5q7 5 22 12.5 l33 16.5l18 10q21 14 39 18q13 3 16 -9t-16 -45q-11 -17 -18 -38q-5 -18 -9 -33q-10 -45 -27.5 -80.5t-61.5 -61.5q-137 -77 -376 -148.5t-521 -110.5t-550 -19q-152 12 -290 49.5t-234.5 104.5t-123.5 167q-27 119 21 243q19 49 49.5 99t58.5 79q74 74 147.5 114t157.5 54 q65 11 135 13v1h40zM921 -300v0q-4 121 58 214.5t159 139t199 23.5q110 -29 159 -118t-5 -196q-65 -107 -166 -143t-190.5 -28t-121.5 33q-61 52 -24.5 72t117.5 32q88 12 165 42q85 44 79 94.5t-72 72.5q-83 21 -156 -13t-125.5 -97t-75.5 -128z"/>
            <glyph glyph-name="uni0504" unicode="ﺒﯽءءءءء" horiz-adv-x="1127"
                   d="M636 -82v0q74 20 136 -11.5t80 -92.5q15 -75 -27.5 -124t-94.5 -61q-103 -20 -162.5 38t-49 135.5t117.5 115.5zM654 227q53 2 82 20q36 23 51 53q24 59 16 142q-3 57 4 117q11 56 50.5 77t78.5 -9t49 -125q1 -19 5 -39q7 -40 10 -76q3 -46 12 -81.5t35.5 -57t79.5 -21.5 v-227q-92 1 -174 38q-74 43 -95 139q-29 -77 -90 -126q-50 -39 -120 -44.5t-140 -10.5q-86 -6 -165 -34q-69 -25 -124.5 -74t-60 -108.5t81.5 -114.5q154 -91 406 -118t539 -2t544 89.5t420 156.5q7 5 22 12.5l33 16.5q9 5 17 10q22 14 39 18q14 3 17 -9t-16 -45 q-11 -17 -18 -38q-5 -18 -9 -33q-11 -45 -28 -80.5t-61 -61.5q-138 -77 -376.5 -148.5t-521 -110.5t-549.5 -19q-152 12 -290.5 49.5t-235 104.5t-122.5 167q-27 119 20 243q20 49 50.5 99t58.5 79q74 74 147 114t157 54q70 12 146 13zM1126 227q29 0 56 -14.5t42.5 -42 t15.5 -56.5q0 -30 -15 -57t-42 -42t-57 -15q-29 0 -56 15t-42 42t-15 57q0 29 15 56.5t42.5 42t55.5 14.5z"/>
            <glyph glyph-name="uni0505" unicode="ﺘﯽءءءءء" horiz-adv-x="1127"
                   d="M654 227q53 2 82 20q36 23 51 53q24 59 16 142q-3 57 4 117q11 56 50.5 77t78.5 -9t49 -125q1 -19 5 -39q7 -40 10 -76q3 -46 12 -81.5t35.5 -57t79.5 -21.5v-227q-92 1 -174 38q-74 43 -95 139q-29 -77 -90 -126q-50 -39 -139 -50q-51 0 -121 -5q-86 -6 -165 -34 q-69 -25 -124.5 -74t-60 -108.5t81.5 -114.5q154 -91 406 -118t539 -2t544 89.5t420 156.5q7 5 22 12.5l33 16.5q9 5 17 10q22 14 39 18q14 3 17 -9t-16 -45q-11 -17 -18 -38q-5 -18 -9 -33q-11 -45 -28 -80.5t-61 -61.5q-138 -77 -376.5 -148.5t-521 -110.5t-549.5 -19 q-152 12 -290.5 49.5t-235 104.5t-122.5 167q-27 119 20 243q20 49 50.5 99t58.5 79q74 74 147 114t157 54q70 12 146 13zM698 896v0q112 -11 164.5 -40.5t24 -59.5t-160.5 -44q-69 -9 -171.5 -20t-183.5 -11h-18q-44 -1 -72 9t-28 56q5 57 60 81.5t128.5 29.5t134.5 3h34 h13q37 1 35 0.5t40 -4.5zM1126 227q29 0 56 -14.5t42.5 -42t15.5 -56.5q0 -30 -15 -57t-42 -42t-57 -15q-29 0 -56 15t-42 42t-15 57q0 29 15 56.5t42.5 42t55.5 14.5z"/>
            <glyph glyph-name="uni0506" unicode="ﻨﯽءءءءء" horiz-adv-x="1127"
                   d="M636 966v0q74 20 136 -11.5t80 -92.5q15 -75 -27.5 -124t-94.5 -61q-103 -20 -162.5 38t-49 135.5t117.5 115.5zM654 227q53 2 82 20q36 23 51 53q24 59 16 142q-3 57 4 117q11 56 50.5 77t78.5 -9t49 -125q1 -19 5 -39q7 -40 10 -76q3 -46 12 -81.5t35.5 -57t79.5 -21.5 v-227q-92 1 -174 38q-74 43 -95 139q-29 -77 -90 -126q-50 -39 -139 -50q-51 0 -121 -5q-86 -6 -165 -34q-69 -25 -124.5 -74t-60 -108.5t81.5 -114.5q154 -91 406 -118t539 -2t544 89.5t420 156.5q7 5 22 12.5l33 16.5q9 5 17 10q22 14 39 18q14 3 17 -9t-16 -45 q-11 -17 -18 -38q-5 -18 -9 -33q-11 -45 -28 -80.5t-61 -61.5q-138 -77 -376.5 -148.5t-521 -110.5t-549.5 -19q-152 12 -290.5 49.5t-235 104.5t-122.5 167q-27 119 20 243q20 49 50.5 99t58.5 79q74 74 147 114t157 54q70 12 146 13zM1126 227q29 0 56 -14.5t42.5 -42 t15.5 -56.5q0 -30 -15 -57t-42 -42t-57 -15q-29 0 -56 15t-42 42t-15 57q0 29 15 56.5t42.5 42t55.5 14.5z"/>
            <glyph glyph-name="uni0507" unicode="ﭙﯽءءءءء" horiz-adv-x="1127"
                   d="M317 -1148v0q-4 122 57.5 215.5t159 139t199.5 23.5q110 -30 159 -118.5t-5 -195.5q-65 -107 -166 -143t-191 -28t-121 32q-61 52 -24.5 72.5t117.5 31.5q88 13 165 43q85 43 79 94t-72 73q-83 21 -156 -13t-126 -97t-75 -129zM654 227q53 2 82 20q36 23 51 53 q24 59 16 142q-3 57 4 117q11 56 50.5 77t78.5 -9t49 -125q1 -19 5 -39q7 -40 10 -76q3 -46 12 -81.5t35.5 -57t79.5 -21.5v-227q-92 1 -174 38q-74 43 -95 139q-29 -77 -90 -126q-50 -39 -139 -50q-51 0 -121 -5q-86 -6 -165 -34q-69 -25 -124.5 -74t-60 -108.5 t81.5 -114.5q154 -91 406 -118t539 -2t544 89.5t420 156.5q7 5 22 12.5l33 16.5q9 5 17 10q22 14 39 18q14 3 17 -9t-16 -45q-11 -17 -18 -38q-5 -18 -9 -33q-11 -45 -28 -80.5t-61 -61.5q-138 -77 -376.5 -148.5t-521 -110.5t-549.5 -19q-152 12 -290.5 49.5t-235 104.5 t-122.5 167q-27 119 20 243q20 49 50.5 99t58.5 79q74 74 147 114t157 54q70 12 146 13zM1126 227q29 0 56 -14.5t42.5 -42t15.5 -56.5q0 -30 -15 -57t-42 -42t-57 -15q-29 0 -56 15t-42 42t-15 57q0 29 15 56.5t42.5 42t55.5 14.5z"/>
            <glyph glyph-name="uni0508" unicode="ﯿﯽءءءءء" horiz-adv-x="1127"
                   d="M654 227q53 2 82 20q36 23 51 53q24 59 16 142q-3 57 4 117q11 56 50.5 77t78.5 -9t49 -125q1 -19 5 -39q7 -40 10 -76q3 -46 12 -81.5t35.5 -57t79.5 -21.5v-227q-92 1 -174 38q-74 43 -95 139q-29 -77 -90 -126q-50 -39 -139 -50q-51 0 -121 -5q-86 -6 -165 -34 q-69 -25 -124.5 -74t-60 -108.5t81.5 -114.5q154 -91 406 -118t539 -2t544 89.5t420 156.5q7 5 22 12.5l33 16.5q9 5 17 10q22 14 39 18q14 3 17 -9t-16 -45q-11 -17 -18 -38q-5 -18 -9 -33q-11 -45 -28 -80.5t-61 -61.5q-138 -77 -376.5 -148.5t-521 -110.5t-549.5 -19 q-152 12 -290.5 49.5t-235 104.5t-122.5 167q-27 119 20 243q20 49 50.5 99t58.5 79q74 74 147 114t157 54q70 12 146 13zM698 -116v0q112 -12 164.5 -41t24 -59t-160.5 -44q-69 -9 -171.5 -20.5t-183.5 -11.5q-9 1 -18 1q-44 -2 -72 8.5t-28 55.5q5 58 60 82.5t128.5 29.5 t134.5 3h34h13q37 0 35 -0.5t40 -3.5zM1126 227q29 0 56 -14.5t42.5 -42t15.5 -56.5q0 -30 -15 -57t-42 -42t-57 -15q-29 0 -56 15t-42 42t-15 57q0 29 15 56.5t42.5 42t55.5 14.5z"/>
            <glyph glyph-name="uni0509" unicode="ﻘﯽءءءءء" horiz-adv-x="1351"
                   d="M1056 450v0q37 79 -1.5 107t-94 8.5t-69.5 -83.5q-10 -79 19.5 -104t72.5 -4.5t73 76.5zM640 227q18 0 60 4q57 5 84 24q-72 47 -95.5 131.5t-1 171.5t88.5 144q120 92 241 81.5t203.5 -91t86 -197.5t-112.5 -238q22 -20 57.5 -25t75.5 -5h24v-227h-165q-75 0 -128.5 33 t-79.5 82q-34 -68 -117 -91.5t-172 -23.5l-60 1q-51 0 -121 -5q-86 -6 -165 -34q-69 -25 -124.5 -74t-60 -108.5t81.5 -114.5q154 -91 406 -118t539 -2t544 89.5t420 156.5q7 5 22 12.5l33 16.5q9 5 17 10q22 14 39 18q14 3 17 -9t-16 -45q-11 -17 -18 -38q-5 -18 -9 -33 q-11 -45 -28 -80.5t-61 -61.5q-138 -77 -376.5 -148.5t-521 -110.5t-549.5 -19q-152 12 -290.5 49.5t-235 104.5t-122.5 167q-27 119 20 243q20 49 50.5 99t58.5 79q74 74 147 114t157 54q70 12 146 13zM1109 1047v0q112 -11 165 -40t24 -59t-161 -45q-69 -8 -171 -19.5 t-184 -11.5h-17q-45 -1 -72.5 9t-27.5 56q4 58 59 82.5t129 29t135 3.5q18 -1 33 0h14q37 0 35 -0.5t39 -4.5zM1350 227q29 0 56 -14.5t42.5 -42t15.5 -56.5q0 -30 -15 -57t-42 -42t-57 -15q-29 0 -56 15t-42 42t-15 57q0 29 15 56.5t42.5 42t55.5 14.5z"/>
            <glyph glyph-name="uni0510" unicode="ﻔﯽءءءءء" horiz-adv-x="1351"
                   d="M898 1201v0q74 20 136.5 -11.5t80.5 -92.5q15 -75 -28 -124t-95 -61q-102 -20 -161.5 38t-49.5 135.5t117 115.5zM1056 450v0q37 79 -1.5 107t-94 8.5t-69.5 -83.5q-10 -79 19.5 -104t72.5 -4.5t73 76.5zM640 227q18 0 60 4q57 5 84 24q-72 47 -95.5 131.5t-1 171.5 t88.5 144q120 92 241 81.5t203.5 -91t86 -197.5t-112.5 -238q22 -20 57.5 -25t75.5 -5h24v-227h-165q-75 0 -128.5 33t-79.5 82q-34 -68 -117 -91.5t-172 -23.5l-60 1q-51 0 -121 -5q-86 -6 -165 -34q-69 -25 -124.5 -74t-60 -108.5t81.5 -114.5q154 -91 406 -118t539 -2 t544 89.5t420 156.5q7 5 22 12.5l33 16.5q9 5 17 10q22 14 39 18q14 3 17 -9t-16 -45q-11 -17 -18 -38q-5 -18 -9 -33q-11 -45 -28 -80.5t-61 -61.5q-138 -77 -376.5 -148.5t-521 -110.5t-549.5 -19q-152 12 -290.5 49.5t-235 104.5t-122.5 167q-27 119 20 243 q20 49 50.5 99t58.5 79q74 74 147 114t157 54q70 12 146 13zM1346 227q29 0 56 -14.5t42.5 -42t15.5 -56.5q0 -30 -15 -57t-42 -42t-57 -15q-29 0 -56 15t-42 42t-15 57q0 29 15 56.5t42.5 42t55.5 14.5z"/>
            <glyph glyph-name="uni0511" unicode="ﻐﯽءءءءء" horiz-adv-x="1468"
                   d="M885 627v0l6 -4q3 -1 5.5 -2.5t3.5 -5.5l294 -139q32 123 -1.5 163.5t-105 32t-154.5 -32.5zM907 1275v0q74 20 136 -12t80 -92q15 -75 -28 -124t-95 -62q-102 -19 -161.5 39t-49 135t117.5 116zM622 226q18 1 37 1q52 1 125 9q113 13 227 75q-62 79 -147 99t-182 8 q-8 0 -14 -1q-55 -7 -100 -5.5t-75 30.5q-48 44 -31 90.5t51 85.5q65 78 179.5 140.5t245 89.5t244 0t177.5 -126q44 -78 42 -153.5t-19 -140.5q-19 -76 -9 -132.5t95 -68.5v-227q-101 0 -174 54.5t-108 145.5q-123 -102 -277 -152q-127 -40 -250 -47v-1l-53 1 q-43 -1 -98 -5q-86 -6 -165 -34q-69 -25 -124.5 -74t-60 -108.5t81.5 -114.5q154 -91 406 -118t539 -2t544 89.5t420 156.5q7 5 22 12.5l33 16.5q9 5 17 10q22 14 39 18q14 3 17 -9t-16 -45q-11 -17 -18 -38q-5 -18 -9 -33q-11 -45 -28 -80.5t-61 -61.5 q-138 -77 -376.5 -148.5t-521 -110.5t-549.5 -19q-152 12 -290.5 49.5t-235 104.5t-122.5 167q-27 119 20 243q20 49 50.5 99t58.5 79q74 74 147 114t157 54q59 10 123 13v1q7 -1 16 -1zM1466 227q29 0 56 -14.5t42.5 -42t15.5 -56.5q0 -30 -15 -57t-42 -42t-57 -15 q-29 0 -56 15t-42 42t-15 57q0 29 15 56.5t42.5 42t55.5 14.5z"/>
            <glyph glyph-name="uni0512" unicode="ﻌﯽءءءءء" horiz-adv-x="1468"
                   d="M885 627v0l6 -4q3 -1 5.5 -2.5t3.5 -5.5l294 -139q32 123 -1.5 163.5t-105 32t-154.5 -32.5zM622 226q18 1 37 1q52 1 125 9q113 13 227 75q-62 79 -147 99t-182 8q-8 0 -14 -1q-55 -7 -100 -5.5t-75 30.5q-48 44 -31 90.5t51 85.5q65 78 179.5 140.5t245 89.5t244 0 t177.5 -126q44 -78 42 -153.5t-19 -140.5q-19 -76 -9 -132.5t95 -68.5v-227q-101 0 -174 54.5t-108 145.5q-123 -102 -277 -152q-127 -40 -250 -47v-1l-53 1q-43 -1 -98 -5q-86 -6 -165 -34q-69 -25 -124.5 -74t-60 -108.5t81.5 -114.5q154 -91 406 -118t539 -2t544 89.5 t420 156.5q7 5 22 12.5l33 16.5q9 5 17 10q22 14 39 18q14 3 17 -9t-16 -45q-11 -17 -18 -38q-5 -18 -9 -33q-11 -45 -28 -80.5t-61 -61.5q-138 -77 -376.5 -148.5t-521 -110.5t-549.5 -19q-152 12 -290.5 49.5t-235 104.5t-122.5 167q-27 119 20 243q20 49 50.5 99t58.5 79 q74 74 147 114t157 54q59 10 123 13v1q7 -1 16 -1zM1466 227q29 0 56 -14.5t42.5 -42t15.5 -56.5q0 -30 -15 -57t-42 -42t-57 -15q-29 0 -56 15t-42 42t-15 57q0 29 15 56.5t42.5 42t55.5 14.5z"/>
            <glyph glyph-name="uni0513" unicode="ﺨﯽءءءءء" horiz-adv-x="1805"
                   d="M881 1128v0q74 20 136 -11.5t80 -92.5q15 -74 -28 -123t-95 -62q-102 -19 -161.5 39t-49.5 135t118 115zM1805 227q28 0 55 -14.5t42.5 -42t15.5 -56.5q0 -30 -15 -57t-42 -42t-56 -15h-142q-18 1 -31 2q-88 8 -157.5 50.5t-120.5 132.5q-1 1 -6 12t-12 27q-4 9 -9 18 q-32 -18 -63 -36q-70 -39 -139 -76q-111 -60 -226 -95t-239 -35h-49q-75 0 -151.5 -7t-149.5 -32q-68 -25 -123.5 -74t-60 -108.5t80.5 -114.5q154 -91 406 -118t539 -2.5t544 89t420 156.5q7 5 22 13t33 17q9 5 17 10q22 14 39 18q14 2 17 -9.5t-16 -44.5q-11 -18 -18 -38 q-5 -18 -9 -34q-10 -45 -27.5 -80t-61.5 -61q-137 -78 -376 -149t-521.5 -110t-549.5 -20q-152 12 -290 50t-235 105t-123 167q-27 119 21 243q19 49 49.5 99t58.5 79q104 105 211.5 143.5t253.5 38.5q26 1 54 1q86 -1 176 8t177 46.5t165 124.5q-40 21 -81 50 q-71 51 -147 77q-72 20 -101.5 1.5t-43.5 -51.5q-34 -63 -67 -70.5t-56 23t-25 80.5q-1 69 55.5 131.5t167.5 77.5t273 -59q26 -12 48 -23q73 -40 145.5 -60.5t198.5 -12.5q35 3 71 13q37 10 73.5 14t71.5 -12q41 -21 59.5 -66.5t-11.5 -93.5q-43 -59 -100 -74.5t-119 -16.5 q-14 -1 -28 -1q9 -39 44 -71t102 -34q2 0 19 -0.5t39 -0.5h27.5h6.5z"/>
            <glyph glyph-name="uni0514" unicode="ﺠﯽءءءءء" horiz-adv-x="1805"
                   d="M864 -66v0q74 20 136 -11.5t80 -92.5q15 -75 -28 -124t-95 -61q-102 -20 -161.5 38t-49 135.5t117.5 115.5zM1805 227q28 0 55 -14.5t42.5 -42t15.5 -56.5q0 -30 -15 -57t-42 -42t-56 -15h-142q-18 1 -31 2q-88 8 -157.5 50.5t-120.5 132.5q-1 1 -6 12t-12 27q-4 9 -9 18 q-32 -18 -63 -36q-70 -39 -139 -76q-111 -60 -226 -95t-239 -35h-49q-75 0 -151.5 -7t-149.5 -32q-68 -25 -123.5 -74t-60 -108.5t80.5 -114.5q154 -91 406 -118t539 -2.5t544 89t420 156.5q7 5 22 13t33 17q9 5 17 10q22 14 39 18q14 2 17 -9.5t-16 -44.5q-11 -18 -18 -38 q-5 -18 -9 -34q-10 -45 -27.5 -80t-61.5 -61q-137 -78 -376 -149t-521.5 -110t-549.5 -20q-152 12 -290 50t-235 105t-123 167q-27 119 21 243q19 49 49.5 99t58.5 79q104 105 211.5 143.5t253.5 38.5q26 1 54 1q86 -1 176 8t177 46.5t165 124.5q-40 21 -81 50 q-71 51 -147 77q-72 20 -101.5 1.5t-43.5 -51.5q-34 -63 -67 -70.5t-56 23t-25 80.5q-1 69 55.5 131.5t167.5 77.5t273 -59q26 -12 48 -23q73 -40 145.5 -60.5t198.5 -12.5q35 3 71 13q37 10 73.5 14t71.5 -12q41 -21 59.5 -66.5t-11.5 -93.5q-43 -59 -100 -74.5t-119 -16.5 q-14 -1 -28 -1q9 -39 44 -71t102 -34q2 0 19 -0.5t39 -0.5h27.5h6.5z"/>
            <glyph glyph-name="uni0515" unicode="ﺤﯽءءءءء" horiz-adv-x="1805"
                   d="M1805 227q28 0 55 -14.5t42.5 -42t15.5 -56.5q0 -30 -15 -57t-42 -42t-56 -15h-142q-18 1 -31 2q-88 8 -157.5 50.5t-120.5 132.5q-1 1 -6 12t-12 27q-4 9 -9 18q-32 -18 -63 -36q-70 -39 -139 -76q-111 -60 -226 -95t-239 -35h-49q-75 0 -151.5 -7t-149.5 -32 q-68 -25 -123.5 -74t-60 -108.5t80.5 -114.5q154 -91 406 -118t539 -2.5t544 89t420 156.5q7 5 22 13t33 17q9 5 17 10q22 14 39 18q14 2 17 -9.5t-16 -44.5q-11 -18 -18 -38q-5 -18 -9 -34q-10 -45 -27.5 -80t-61.5 -61q-137 -78 -376 -149t-521.5 -110t-549.5 -20 q-152 12 -290 50t-235 105t-123 167q-27 119 21 243q19 49 49.5 99t58.5 79q104 105 211.5 143.5t253.5 38.5q26 1 54 1q86 -1 176 8t177 46.5t165 124.5q-40 21 -81 50q-71 51 -147 77q-72 20 -101.5 1.5t-43.5 -51.5q-34 -63 -67 -70.5t-56 23t-25 80.5q-1 69 55.5 131.5 t167.5 77.5t273 -59q26 -12 48 -23q73 -40 145.5 -60.5t198.5 -12.5q35 3 71 13q37 10 73.5 14t71.5 -12q41 -21 59.5 -66.5t-11.5 -93.5q-43 -59 -100 -74.5t-119 -16.5q-14 -1 -28 -1q9 -39 44 -71t102 -34q2 0 19 -0.5t39 -0.5h27.5h6.5z"/>
            <glyph glyph-name="uni0516" unicode="ﭽﯽءءءءء" horiz-adv-x="1805"
                   d="M922 -300v0q-4 121 57.5 214.5t159 139t199.5 23.5q110 -29 159 -118t-5 -196q-65 -107 -166 -143t-191 -28t-121 33q-61 52 -24.5 72t117.5 32q88 12 165 42q85 44 79 94.5t-72 72.5q-83 21 -156 -13t-126 -97t-75 -128zM1805 227q28 0 55 -14.5t42.5 -42t15.5 -56.5 q0 -30 -15 -57t-42 -42t-56 -15h-142q-18 1 -31 2q-88 8 -157.5 50.5t-120.5 132.5q-1 1 -6 12t-12 27q-4 9 -9 18q-32 -18 -63 -36q-70 -39 -139 -76q-111 -60 -226 -95t-239 -35h-49q-75 0 -151.5 -7t-149.5 -32q-68 -25 -123.5 -74t-60 -108.5t80.5 -114.5 q154 -91 406 -118t539 -2.5t544 89t420 156.5q7 5 22 13t33 17q9 5 17 10q22 14 39 18q14 2 17 -9.5t-16 -44.5q-11 -18 -18 -38q-5 -18 -9 -34q-10 -45 -27.5 -80t-61.5 -61q-137 -78 -376 -149t-521.5 -110t-549.5 -20q-152 12 -290 50t-235 105t-123 167q-27 119 21 243 q19 49 49.5 99t58.5 79q104 105 211.5 143.5t253.5 38.5q26 1 54 1q86 -1 176 8t177 46.5t165 124.5q-40 21 -81 50q-71 51 -147 77q-72 20 -101.5 1.5t-43.5 -51.5q-34 -63 -67 -70.5t-56 23t-25 80.5q-1 69 55.5 131.5t167.5 77.5t273 -59q26 -12 48 -23 q73 -40 145.5 -60.5t198.5 -12.5q35 3 71 13q37 10 73.5 14t71.5 -12q41 -21 59.5 -66.5t-11.5 -93.5q-43 -59 -100 -74.5t-119 -16.5q-14 -1 -28 -1q9 -39 44 -71t102 -34q2 0 19 -0.5t39 -0.5h27.5h6.5z"/>
            <glyph glyph-name="uni0517" unicode="ﺿﯽءءءءء" horiz-adv-x="2084"
                   d="M662 226v0v2q28 -1 60.5 3t55.5 21q11 9 22.5 20.5t17.5 25.5q5 12 7 29.5t3 31.5q1 13 2 27q1 2 1 5q7 50 50 78q40 23 82 6q47 -23 59 -76q3 -15 6 -31q3 -27 10 -55q5 -26 19 -48q6 -10 16 -18t23 -8q34 5 64.5 41t54.5 75l18 27q63 92 147.5 177t187.5 137t221 44 q182 -17 247 -127q55 -95 -5 -247q-59 -120 -163 -202.5t-234 -127.5q-263 -88 -517 -27q-66 16 -123.5 49.5t-96.5 89.5q-29 -57 -84 -95q-63 -49 -142 -52v-1h-9q-79 1 -162 -5t-160 -33q-69 -26 -124.5 -75t-60 -108t80.5 -114q154 -91 406.5 -118.5t539 -2.5t543.5 89.5 t420 156.5q8 5 22.5 13t32.5 17l18 10q21 14 39 18q13 2 16.5 -9.5t-16.5 -44.5q-11 -18 -18 -38q-5 -18 -9 -34q-10 -45 -27 -80.5t-61 -60.5q-138 -78 -377 -149t-521 -110t-550 -20q-152 12 -290 49.5t-234.5 105t-123.5 167.5q-27 118 21 243q19 49 49.5 99t58.5 78 q108 109 220 146.5t267 35.5zM1300 214v0q76 -12 151 -5q60 5 148.5 34t156.5 82q74 66 63 121t-70.5 77.5t-130.5 -10.5q-58 -30 -106.5 -77.5t-93.5 -99.5q-57 -68 -118 -122zM1643 1159v0q74 20 136 -11.5t80 -92.5q15 -75 -27.5 -124t-94.5 -62q-103 -19 -162.5 39 t-49 135.5t117.5 115.5z"/>
            <glyph glyph-name="uni0518" unicode="ﻀﯽءءءءء" horiz-adv-x="2138"
                   d="M907 147v0q-29 -57 -84 -95q-66 -52 -150 -53v0h-9q-79 1 -162 -5t-161 -34q-68 -25 -123.5 -74t-60 -108t80.5 -115q154 -91 406.5 -118t539 -2t543.5 89.5t420 156.5q7 4 22 12.5t33 17.5l18 10q21 14 38 18q14 2 17 -10t-16 -44q-11 -18 -18 -38q-5 -18 -9 -34 q-10 -45 -27 -80.5t-61 -61.5q-138 -77 -377 -148t-521 -110t-550 -20q-152 12 -290 49.5t-234.5 104.5t-123.5 168q-27 118 21 242q19 50 49.5 99.5t58.5 78.5q109 110 222.5 147.5t271.5 34.5v0h1h1v0q28 -1 60 4t55 22q11 8 22.5 20t17.5 26q4 12 6.5 29.5t2.5 31.5 q1 13 3 27q0 2 1 4q7 51 50 79q39 23 82 6q47 -23 58 -76q4 -15 6 -31q4 -27 10 -55q6 -26 19 -49q7 -9 17 -17t22 -8q35 4 65.5 40.5t53.5 75.5q10 15 19 27q63 92 147.5 177t187.5 137t221 44q182 -17 246 -127q56 -95 -4 -247q-19 -39 -43 -74q23 -30 58 -47t82 -17v-227 q-44 0 -103.5 9.5t-116 36.5t-96.5 77q-83 -54 -178 -88q-264 -88 -517 -27q-67 16 -124 49.5t-96 89.5zM1309 213v0q77 -12 151 -5q61 5 149.5 34t155.5 82q75 66 64 121t-70.5 77.5t-131.5 -10.5q-57 -31 -105.5 -78t-93.5 -100q-57 -67 -119 -121zM1643 1159v0 q74 20 136 -11.5t80 -92.5q15 -75 -27.5 -124t-94.5 -62q-102 -19 -162 39t-49.5 135.5t117.5 115.5zM2135 227q28 0 55 -14.5t42.5 -42t15.5 -56.5q0 -30 -15 -57t-42 -42t-56 -15q-30 0 -57 15t-42 42t-15 57q0 29 15.5 56.5t42.5 42t56 14.5z"/>
            <glyph glyph-name="uni0519" unicode="ﺻﯽءءءءء" horiz-adv-x="2101"
                   d="M662 226v0v2q28 -1 60.5 3t55.5 21q11 9 22.5 20.5t17.5 25.5q5 12 7 29.5t3 31.5q1 13 2 27q1 2 1 5q7 50 50 78q40 23 82 6q47 -23 59 -76q3 -15 6 -31q3 -27 10 -55q5 -26 19 -48q6 -10 16 -18t23 -8q34 5 64.5 41t54.5 75l18 27q63 92 147.5 177t187.5 137t221 44 q182 -17 247 -127q55 -95 -5 -247q-59 -120 -163 -202.5t-234 -127.5q-263 -88 -517 -27q-66 16 -123.5 49.5t-96.5 89.5q-29 -57 -84 -95q-63 -49 -142 -52v-1h-9q-79 1 -162 -5t-160 -33q-69 -26 -124.5 -75t-60 -108t80.5 -114q154 -91 406.5 -118.5t539 -2.5t543.5 89.5 t420 156.5q8 5 22.5 13t32.5 17l18 10q21 14 39 18q13 2 16.5 -9.5t-16.5 -44.5q-11 -18 -18 -38q-5 -18 -9 -34q-10 -45 -27 -80.5t-61 -60.5q-138 -78 -377 -149t-521 -110t-550 -20q-152 12 -290 49.5t-234.5 105t-123.5 167.5q-27 118 21 243q19 49 49.5 99t58.5 78 q108 109 220 146.5t267 35.5zM1300 214v0q76 -12 151 -5q60 5 148.5 34t156.5 82q74 66 63 121t-70.5 77.5t-130.5 -10.5q-58 -30 -106.5 -77.5t-93.5 -99.5q-57 -68 -118 -122z"/>
            <glyph glyph-name="uni0520" unicode="ﺼﯽءءءءء" horiz-adv-x="2137"
                   d="M907 147v0q-29 -57 -84 -95q-66 -52 -150 -53v0h-9q-79 1 -162 -5t-161 -34q-68 -25 -123.5 -74t-60 -108t80.5 -115q154 -91 406.5 -118t539 -2t543.5 89.5t420 156.5q7 4 22 12.5t33 17.5l18 10q21 14 38 18q14 2 17 -10t-16 -44q-11 -18 -18 -38q-5 -18 -9 -34 q-10 -45 -27 -80.5t-61 -61.5q-138 -77 -377 -148t-521 -110t-550 -20q-152 12 -290 49.5t-234.5 104.5t-123.5 168q-27 118 21 242q19 50 49.5 99.5t58.5 78.5q109 110 222.5 147.5t271.5 34.5v0h1h1v0q28 -1 60 4t55 22q11 8 22.5 20t17.5 26q4 12 6.5 29.5t2.5 31.5 q1 13 3 27q0 2 1 4q7 51 50 79q39 23 82 6q47 -23 58 -76q4 -15 6 -31q4 -27 10 -55q6 -26 19 -49q7 -9 17 -17t22 -8q35 4 65.5 40.5t53.5 75.5q10 15 19 27q63 92 147.5 177t187.5 137t221 44q182 -17 246 -127q56 -95 -4 -247q-19 -39 -43 -74q23 -30 58 -47t82 -17v-227 q-44 0 -103.5 9.5t-116 36.5t-96.5 77q-83 -54 -178 -88q-264 -88 -517 -27q-67 16 -124 49.5t-96 89.5zM1309 213v0q77 -12 151 -5q61 5 149.5 34t155.5 82q75 66 64 121t-70.5 77.5t-131.5 -10.5q-57 -31 -105.5 -78t-93.5 -100q-57 -67 -119 -121zM2135 227 q28 0 55 -14.5t42.5 -42t15.5 -56.5q0 -30 -15 -57t-42 -42t-56 -15q-30 0 -57 15t-42 42t-15 57q0 29 15.5 56.5t42.5 42t56 14.5z"/>
            <glyph glyph-name="uni0521" unicode="ﺿﯽءءءءءء" horiz-adv-x="2203"
                   d="M1260 209v0q70 -19 183 -11.5t226.5 40.5t185.5 89t61 135q-11 55 -84.5 76t-198.5 -18q-87 -31 -157.5 -95t-123.5 -126q-55 -65 -92 -90zM2106 374v0q-39 -81 -116.5 -152t-154.5 -111q-177 -89 -388 -107t-396 41.5t-286 204.5q-25 40 -44 76q-26 53 -58 90.5 t-91 50.5q-99 14 -193 -41t-138 -134q-53 -104 -20 -180t116 -127t180 -79.5t171 -37.5q235 -26 474 -9t388 66q132 43 250 110q7 4 22 12.5t33 17.5l18 10q20 12 36 17q9 3 15 -1t4 -15q-1 -13 -16 -38q-11 -17 -18 -37q-4 -18 -9 -34q-10 -45 -27 -80.5t-61 -61.5 q-142 -79 -367.5 -136t-476.5 -71.5t-468.5 32.5t-343.5 176q-116 132 -101 288t114.5 296t238.5 222.5t272 67t214 -169.5q16 -33 28 -59q15 -33 29 -61t36 -59q44 -62 83 -64.5t75 30.5t69 77q123 170 289.5 263t384.5 75q158 -15 230 -110q68 -91 3 -248zM1451 962v0 q-4 94 50 142.5t128 51.5t131.5 -40.5t61.5 -135.5q-1 -92 -54 -138t-123.5 -47.5t-127 41t-66.5 126.5z"/>
            <glyph glyph-name="uni0522" unicode="ﺻﯽءءءءءء" horiz-adv-x="2203"
                   d="M1260 209v0q70 -19 183 -11.5t226.5 40.5t185.5 89t61 135q-11 55 -84.5 76t-198.5 -18q-87 -31 -157.5 -95t-123.5 -126q-55 -65 -92 -90zM2106 374v0q-39 -81 -116.5 -152t-154.5 -111q-177 -89 -388 -107t-396 41.5t-286 204.5q-25 40 -44 76q-26 53 -58 90.5 t-91 50.5q-99 14 -193 -41t-138 -134q-53 -104 -20 -180t116 -127t180 -79.5t171 -37.5q235 -26 474 -9t388 66q132 43 250 110q7 4 22 12.5t33 17.5l18 10q20 12 36 17q9 3 15 -1t4 -15q-1 -13 -16 -38q-11 -17 -18 -37q-4 -18 -9 -34q-10 -45 -27 -80.5t-61 -61.5 q-142 -79 -367.5 -136t-476.5 -71.5t-468.5 32.5t-343.5 176q-116 132 -101 288t114.5 296t238.5 222.5t272 67t214 -169.5q16 -33 28 -59q15 -33 29 -61t36 -59q44 -62 83 -64.5t75 30.5t69 77q123 170 289.5 263t384.5 75q158 -15 230 -110q68 -91 3 -248z"/>
            <glyph glyph-name="uni0523" unicode="ﻋﯽءءءء" horiz-adv-x="1891"
                   d="M1639 186v0q-101 -10 -213.5 -62t-203.5 -105q60 -26 124 -36q26 -6 53 -12q81 -21 146 -53q57 -24 92 -61q87 -101 38 -195.5t-191 -168.5t-335 -114.5t-395 -33t-371 76t-263 212.5q-56 92 -60.5 221.5t55.5 239.5q94 148 260.5 231.5t312.5 90.5q91 2 135 -20.5 t21.5 -56.5t-131.5 -64q-36 -9 -81 -26q-187 -75 -272 -199t-50 -246t206 -191t495 -34q149 17 278 58q166 56 187.5 96.5t-54 69.5t-199.5 51q-127 21 -237 30q-81 7 -154 17q-64 12 -82 46t5 66.5t84 39.5q105 12 211 57t195 102q-101 7 -181.5 90.5t-83 203.5t129.5 236 q77 61 177 75t184.5 -22.5t116.5 -127.5q18 -64 3 -103t-45 -39q-37 1 -84 70q-15 22 -36.5 34t-58.5 9q-110 -13 -153 -67.5t-9 -112.5q44 -62 130 -79t178.5 -6.5t155.5 31.5q53 19 104 -4q36 -18 52 -57t-10 -81q-35 -48 -80.5 -62t-95.5 -15z"/>
            <glyph glyph-name="uni0524" unicode="ﻏﯽءءءء" horiz-adv-x="1891"
                   d="M1639 186v0q-101 -10 -213.5 -62t-203.5 -105q60 -26 124 -36q26 -6 53 -12q81 -21 146 -53q57 -24 92 -61q87 -101 38 -195.5t-191 -168.5t-335 -114.5t-395 -33t-371 76t-263 212.5q-56 92 -60.5 221.5t55.5 239.5q94 148 260.5 231.5t312.5 90.5q91 2 135 -20.5 t21.5 -56.5t-131.5 -64q-36 -9 -81 -26q-187 -75 -272 -199t-50 -246t206 -191t495 -34q149 17 278 58q166 56 187.5 96.5t-54 69.5t-199.5 51q-127 21 -237 30q-81 7 -154 17q-64 12 -82 46t5 66.5t84 39.5q105 12 211 57t195 102q-101 7 -181.5 90.5t-83 203.5t129.5 236 q77 61 177 75t184.5 -22.5t116.5 -127.5q18 -64 3 -103t-45 -39q-37 1 -84 70q-15 22 -36.5 34t-58.5 9q-110 -13 -153 -67.5t-9 -112.5q44 -62 130 -79t178.5 -6.5t155.5 31.5q53 19 104 -4q36 -18 52 -57t-10 -81q-35 -48 -80.5 -62t-95.5 -15zM1222 1223v0 q74 20 136 -11.5t80 -92.5q15 -74 -28 -123t-95 -62q-102 -19 -161.5 39t-49 135t117.5 115z"/>
            <glyph glyph-name="uni0525" unicode="ﺳﯽءءءء" horiz-adv-x="2538"
                   d="M1724 269v0q35 -54 80.5 -56.5t79.5 51.5q23 47 26 107q4 42 14.5 77.5t40.5 55.5q42 24 86.5 12t63.5 -59q6 -23 10 -86q4 -68 13 -122q4 -17 9 -24.5t11 -9.5q28 -6 46.5 38.5t29.5 106t17 105.5q3 21 4 32q15 69 56 96t86 9t71 -84q28 -81 17.5 -169.5t-45.5 -166.5 q-43 -93 -114.5 -147.5t-156 -51t-166.5 83.5q-92 -80 -196 -79.5t-190 86.5q-16 16 -31 35q-59 76 -102 196q-18 43 -46 83.5t-76 53.5q-52 8 -106.5 -37t-105.5 -102q-35 -39 -66 -67q-22 -18 -16.5 -33.5t56.5 -31.5q328 -92 454.5 -196t99 -205.5t-163.5 -184 t-332.5 -130.5t-407.5 -45t-389.5 73t-278.5 222q-57 93 -61 223.5t56 241.5q90 149 227 233t281 92q91 2 135.5 -21t22 -57t-132.5 -65q-36 -9 -81 -26q-189 -75 -264 -200t-26 -248t232 -192.5t510 -34.5q150 17 281 58q166 57 187.5 98t-54 70t-201.5 51q-13 2 -28 5 q-72 11 -154.5 33t-143.5 68q-72 62 -69.5 141.5t58.5 149.5q65 80 159 172.5t141 122.5q121 70 251.5 44.5t204.5 -163.5q25 -55 41 -114q19 -69 46 -118z"/>
            <glyph glyph-name="uni0526" unicode="ﺷﯽءءءء" horiz-adv-x="2528"
                   d="M1734 270v0q34 -53 79.5 -56t79.5 51q23 48 27 108q3 41 13.5 76.5t40.5 55.5q43 25 87 12.5t63 -59.5q6 -23 10 -86q4 -67 13 -121q4 -18 9 -25.5t11 -8.5q28 -7 46.5 37.5t30 106t16.5 105.5q3 21 5 32q14 69 55 96t86 9t71 -84q28 -81 17.5 -169.5t-45.5 -165.5 q-43 -94 -114.5 -148.5t-156 -51t-166.5 83.5q-91 -80 -195.5 -79.5t-190.5 86.5q-16 16 -31 36q-59 75 -102 195q-18 43 -46 83.5t-76 53.5q-52 8 -106.5 -37t-105.5 -102q-35 -39 -65 -67q-23 -18 -17.5 -33t56.5 -32q328 -91 454.5 -195.5t99 -206t-163 -184 t-332.5 -130.5t-408 -44.5t-389.5 73t-278.5 221.5q-56 94 -60.5 224t56.5 241q89 150 226.5 234t280.5 91q91 3 135.5 -20.5t22 -57.5t-131.5 -65q-37 -9 -82 -25q-189 -76 -264 -201t-26 -248t232 -192.5t510 -34.5q150 17 281 58q166 57 188 98t-54 70t-202 51 q-13 2 -28 5q-72 11 -154.5 33t-143.5 68q-72 62 -69.5 141.5t58.5 149.5q66 80 159.5 172.5t141.5 123.5q120 70 251 44t205 -164q24 -55 41 -114q18 -69 46 -118zM1685 803v0q-4 122 57.5 215.5t159 139t199.5 23.5q110 -30 159 -118.5t-5 -195.5q-65 -107 -166 -143 t-191 -28t-121 32q-61 52 -24.5 72.5t117.5 31.5q88 13 165 43q85 43 79 94t-72 73q-83 21 -156 -13t-126 -97t-75 -129z"/>
            <glyph glyph-name="uni0527" unicode="ﺣﯽءءءء" horiz-adv-x="1941"
                   d="M1195 19v0q60 -26 123 -36l54 -12q80 -21 145 -53q57 -24 92 -61q87 -101 38.5 -195.5t-190.5 -168.5t-335 -114.5t-395.5 -33t-371.5 76t-263 212.5q-56 92 -60 221.5t56 239.5q93 148 259.5 231t312.5 91q91 2 135 -20.5t21.5 -56.5t-130.5 -65q-36 -9 -81 -25 q-188 -75 -272.5 -199t-49.5 -246t206 -191t494 -34q149 17 279 58q165 56 186.5 96.5t-53.5 69.5t-200 51q-127 21 -237 30q-81 7 -154 17q-64 12 -82 46t5.5 66t84.5 40q129 16 270 84t261 148q-47 21 -93 60q-6 4 -11 8q-7 5 -14 11q-31 27 -71 45q-38 15 -75.5 8 t-61.5 -50q-45 -80 -84.5 -59.5t-43.5 87.5q-1 59 47.5 113.5t144.5 67.5t237 -51q22 -11 41 -21q63 -34 125.5 -51.5t171.5 -11.5q30 3 62 12q31 9 62.5 12t61.5 -10q36 -19 52 -58t-10 -81q-35 -47 -80.5 -61.5t-94.5 -15.5q-107 -10 -234.5 -71t-258.5 -138 q-11 -6 -21 -12z"/>
            <glyph glyph-name="uni0528" unicode="ﺟﯽءءءء" horiz-adv-x="1941"
                   d="M1195 19v0q60 -26 123 -36l54 -12q80 -21 145 -53q57 -24 92 -61q87 -101 38.5 -195.5t-190.5 -168.5t-335 -114.5t-395.5 -33t-371.5 76t-263 212.5q-56 92 -60 221.5t56 239.5q93 148 259.5 231t312.5 91q91 2 135 -20.5t21.5 -56.5t-130.5 -65q-36 -9 -81 -25 q-188 -75 -272.5 -199t-49.5 -246t206 -191t494 -34q149 17 279 58q165 56 186.5 96.5t-53.5 69.5t-200 51q-127 21 -237 30q-81 7 -154 17q-64 12 -82 46t5.5 66t84.5 40q129 16 270 84t261 148q-47 21 -93 60q-6 4 -11 8q-7 5 -14 11q-31 27 -71 45q-38 15 -75.5 8 t-61.5 -50q-45 -80 -84.5 -59.5t-43.5 87.5q-1 59 47.5 113.5t144.5 67.5t237 -51q22 -11 41 -21q63 -34 125.5 -51.5t171.5 -11.5q30 3 62 12q31 9 62.5 12t61.5 -10q36 -19 52 -58t-10 -81q-35 -47 -80.5 -61.5t-94.5 -15.5q-107 -10 -234.5 -71t-258.5 -138 q-11 -6 -21 -12zM1640 -490v0q74 20 136 -12t80 -92q15 -75 -28 -124t-95 -62q-102 -19 -161.5 39t-49.5 135t118 116z"/>
            <glyph glyph-name="uni0529" unicode="ﺧﯽءءءء" horiz-adv-x="1941"
                   d="M1195 19v0q60 -26 123 -36l54 -12q80 -21 145 -53q57 -24 92 -61q87 -101 38.5 -195.5t-190.5 -168.5t-335 -114.5t-395.5 -33t-371.5 76t-263 212.5q-56 92 -60 221.5t56 239.5q93 148 259.5 231t312.5 91q91 2 135 -20.5t21.5 -56.5t-130.5 -65q-36 -9 -81 -25 q-188 -75 -272.5 -199t-49.5 -246t206 -191t494 -34q149 17 279 58q165 56 186.5 96.5t-53.5 69.5t-200 51q-127 21 -237 30q-81 7 -154 17q-64 12 -82 46t5.5 66t84.5 40q129 16 270 84t261 148q-47 21 -93 60q-6 4 -11 8q-7 5 -14 11q-31 27 -71 45q-38 15 -75.5 8 t-61.5 -50q-45 -80 -84.5 -59.5t-43.5 87.5q-1 59 47.5 113.5t144.5 67.5t237 -51q22 -11 41 -21q63 -34 125.5 -51.5t171.5 -11.5q30 3 62 12q31 9 62.5 12t61.5 -10q36 -19 52 -58t-10 -81q-35 -47 -80.5 -61.5t-94.5 -15.5q-107 -10 -234.5 -71t-258.5 -138 q-11 -6 -21 -12zM1011 1018v0q74 19 136 -12.5t80 -91.5q15 -75 -27.5 -124t-94.5 -62q-103 -19 -162.5 39t-49 135t117.5 116z"/>
            <glyph glyph-name="uni0530" unicode="ﭼﯽءءءء" horiz-adv-x="1941"
                   d="M1195 19v0q60 -26 123 -36l54 -12q80 -21 145 -53q57 -24 92 -61q87 -101 38.5 -195.5t-190.5 -168.5t-335 -114.5t-395.5 -33t-371.5 76t-263 212.5q-56 92 -60 221.5t56 239.5q93 148 259.5 231t312.5 91q91 2 135 -20.5t21.5 -56.5t-130.5 -65q-36 -9 -81 -25 q-188 -75 -272.5 -199t-49.5 -246t206 -191t494 -34q149 17 279 58q165 56 186.5 96.5t-53.5 69.5t-200 51q-127 21 -237 30q-81 7 -154 17q-64 12 -82 46t5.5 66t84.5 40q129 16 270 84t261 148q-47 21 -93 60q-6 4 -11 8q-7 5 -14 11q-31 27 -71 45q-38 15 -75.5 8 t-61.5 -50q-45 -80 -84.5 -59.5t-43.5 87.5q-1 59 47.5 113.5t144.5 67.5t237 -51q22 -11 41 -21q63 -34 125.5 -51.5t171.5 -11.5q30 3 62 12q31 9 62.5 12t61.5 -10q36 -19 52 -58t-10 -81q-35 -47 -80.5 -61.5t-94.5 -15.5q-107 -10 -234.5 -71t-258.5 -138 q-11 -6 -21 -12zM972 -1030v0q-4 121 57.5 215t159 139.5t199.5 23.5q110 -30 159 -118.5t-5 -195.5q-65 -107 -166 -143.5t-191 -28.5t-121 33q-61 52 -24.5 72.5t117.5 31.5q88 13 165 43q85 43 79 94t-72 72q-83 22 -156 -12t-126 -97t-75 -129z"/>
            <glyph glyph-name="uni0531" unicode="ﻌﯽءءءء" horiz-adv-x="1800"
                   d="M1215 627v0l6 -4q3 -1 5.5 -2.5t3.5 -5.5l294 -139q32 123 -1.5 163.5t-105 32t-154.5 -32.5zM816 76v0q119 17 278 90.5t221 128.5q24 18 3 45t-78 54q-104 42 -228 24q-8 0 -15 -1q-55 -7 -99.5 -5t-74.5 30q-48 44 -31.5 90.5t50.5 84.5q66 79 180.5 141.5t245 89.5 t244 0t177.5 -126q44 -78 41.5 -153.5t-18.5 -140.5q-20 -77 -10 -130q9 -62 98 -71v-227q-92 0 -170.5 54.5t-113.5 145.5q-26 -14 -54 -31q-57 -35 -123.5 -70t-139.5 -59q59 -25 123 -36q26 -5 53 -12q81 -21 146 -53q57 -24 92 -60q87 -101 38 -195.5t-190.5 -169 t-335 -114.5t-395.5 -33t-371 76t-263 212q-56 93 -60.5 222t55.5 239q94 148 260.5 231.5t312.5 90.5q91 3 135 -20t21.5 -57t-131.5 -64q-36 -9 -81 -26q-187 -75 -272 -199t-50 -246t206 -191t495 -33q149 16 279 57q165 57 186.5 97t-54 69t-199.5 51q-127 21 -237 30 q-81 7 -154 18q-64 12 -82 45.5t5 65.5t85 41zM1800 227q28 0 55 -14.5t42.5 -42t15.5 -56.5q0 -30 -15 -57t-42 -42t-56 -15q-30 0 -57 15t-42 42t-15 57q0 29 15.5 56.5t42.5 42t56 14.5z"/>
            <glyph glyph-name="uni0532" unicode="ﻐﯽءءءء" horiz-adv-x="1801"
                   d="M1222 1291v0q74 20 136 -11.5t80 -92.5q15 -75 -28 -124t-94 -62q-103 -19 -162.5 39t-49 135.5t117.5 115.5zM1215 627v0l6 -4q3 -1 5.5 -2.5t3.5 -5.5l294 -139q32 123 -1.5 163.5t-105 32t-154.5 -32.5zM816 76v0q119 17 278 90.5t221 128.5q24 18 3 45t-78 54 q-104 42 -228 24q-8 0 -15 -1q-55 -7 -99.5 -5t-74.5 30q-48 44 -31.5 90.5t50.5 84.5q66 79 180.5 141.5t245 89.5t244 0t177.5 -126q44 -78 41.5 -153.5t-18.5 -140.5q-20 -77 -10 -130q9 -62 98 -71v-227q-92 0 -170.5 54.5t-113.5 145.5q-26 -14 -54 -31 q-57 -35 -123.5 -70t-139.5 -59q59 -25 123 -36q26 -5 53 -12q81 -21 146 -53q57 -24 92 -60q87 -101 38 -195.5t-190.5 -169t-335 -114.5t-395.5 -33t-371 76t-263 212q-56 93 -60.5 222t55.5 239q94 148 260.5 231.5t312.5 90.5q91 3 135 -20t21.5 -57t-131.5 -64 q-36 -9 -81 -26q-187 -75 -272 -199t-50 -246t206 -191t495 -33q149 16 279 57q165 57 186.5 97t-54 69t-199.5 51q-127 21 -237 30q-81 7 -154 18q-64 12 -82 45.5t5 65.5t85 41zM1800 227q28 0 55 -14.5t42.5 -42t15.5 -56.5q0 -30 -15 -57t-42 -42t-56 -15q-30 0 -57 15 t-42 42t-15 57q0 29 15.5 56.5t42.5 42t56 14.5z"/>
            <glyph glyph-name="uni0533" unicode="ﺴﯽءءءء" horiz-adv-x="2603"
                   d="M2602 227q29 0 56 -14.5t42.5 -42t15.5 -56.5q0 -30 -15 -57t-42 -42t-57 -15q-29 0 -56.5 15t-42 42t-14.5 57q0 29 15 56.5t42 42t56 14.5zM2603 227v0v-227q-20 0 -42 -1q-62 -4 -108 8t-87 71q-64 -86 -162 -79q-104 9 -165 106q-68 -72 -117.5 -90.5t-138.5 -14.5v0 q-109 3 -166.5 33.5t-88 88t-57.5 141.5q-9 27 -20 57l-21 46q-18 30 -42 56t-59 35q-52 8 -106.5 -37t-105.5 -103q-35 -38 -65 -66q-23 -18 -17.5 -33.5t56.5 -31.5q328 -92 454.5 -196.5t99 -206t-163 -184t-332.5 -130t-408 -44.5t-389.5 73t-278.5 222 q-57 93 -61 223.5t57 241.5q89 149 226.5 233t280.5 91q91 3 135.5 -20t22 -57t-131.5 -65q-37 -9 -82 -26q-189 -75 -264 -200t-26 -248t232 -193t510 -34q150 17 281 58q166 57 188 97.5t-54 70t-202 51.5q-13 2 -28 5q-72 11 -154.5 33t-143.5 68q-72 62 -69.5 141.5 t58.5 149.5q65 80 159 172t142 123q78 46 165.5 51t165 -36.5t125.5 -134.5q24 -53 40 -109q20 -72 51.5 -123t103.5 -56q80 5 102 52.5t25 107.5q2 42 11.5 77t38.5 55q43 24 87 12t63 -59q13 -42 12 -95q1 -40 7 -81q18 -83 51 -68t60.5 80.5t30.5 130.5q4 69 48 96.5 t90.5 -1t59.5 -129.5l2 -71l2 -22q1 -26 7.5 -45.5t29.5 -30t76 -9.5z"/>
            <glyph glyph-name="uni0534" unicode="ﺸﯽءءءء" horiz-adv-x="2603"
                   d="M1684 803v0q-4 122 57.5 215.5t159 139t199.5 23.5q110 -30 159 -118.5t-5 -195.5q-65 -107 -166 -143t-191 -28t-121 32q-61 52 -24.5 72.5t117.5 31.5q88 13 165 43q85 43 79 94t-72 73q-83 21 -156 -13t-126 -97t-75 -129zM2602 227q29 0 56 -14.5t42.5 -42 t15.5 -56.5q0 -30 -15 -57t-42 -42t-57 -15q-29 0 -56.5 15t-42 42t-14.5 57q0 29 15 56.5t42 42t56 14.5zM2603 227v0v-227q-20 0 -42 -1q-62 -4 -108 8t-87 71q-64 -86 -162 -79q-104 9 -165 106q-68 -72 -117.5 -90.5t-138.5 -14.5v0q-109 3 -166.5 33.5t-88 88 t-57.5 141.5q-9 27 -20 57l-21 46q-18 30 -42 56t-59 35q-52 8 -106.5 -37t-105.5 -103q-35 -38 -65 -66q-23 -18 -17.5 -33.5t56.5 -31.5q328 -92 454.5 -196.5t99 -206t-163 -184t-332.5 -130t-408 -44.5t-389.5 73t-278.5 222q-57 93 -61 223.5t57 241.5 q89 149 226.5 233t280.5 91q91 3 135.5 -20t22 -57t-131.5 -65q-37 -9 -82 -26q-189 -75 -264 -200t-26 -248t232 -193t510 -34q150 17 281 58q166 57 188 97.5t-54 70t-202 51.5q-13 2 -28 5q-72 11 -154.5 33t-143.5 68q-72 62 -69.5 141.5t58.5 149.5q65 80 159 172 t142 123q78 46 165.5 51t165 -36.5t125.5 -134.5q24 -53 40 -109q20 -72 51.5 -123t103.5 -56q80 5 102 52.5t25 107.5q2 42 11.5 77t38.5 55q43 24 87 12t63 -59q13 -42 12 -95q1 -40 7 -81q18 -83 51 -68t60.5 80.5t30.5 130.5q4 69 48 96.5t90.5 -1t59.5 -129.5l2 -71 l2 -22q1 -26 7.5 -45.5t29.5 -30t76 -9.5z"/>
            <glyph glyph-name="uni0535" unicode="ﺼﯽءءءء" horiz-adv-x="3010"
                   d="M1844 277v0q27 35 57 80q59 96 157.5 197t271.5 153q192 49 335 1t162 -183v0q3 -65 15 -133t47.5 -115.5t105.5 -49.5h3h4h5h3v-227h-13.5h-13.5q-18 0 -36 0.5t-31 2.5q-112 12 -172 64t-83 129q-99 -87 -240.5 -142.5t-311.5 -56.5q-245 1 -398 79.5t-215 247.5 q-18 43 -46 83.5t-76 53.5q-51 8 -105 -37.5t-104 -103.5q-37 -41 -68 -70q-22 -18 -17 -33t56 -32q328 -91 454.5 -195.5t99 -206t-163 -184t-332.5 -130.5t-408 -44.5t-389.5 73t-278.5 221.5q-56 94 -60.5 224t56.5 241q89 150 226.5 234t280.5 91q91 3 135.5 -20.5 t22 -57.5t-131.5 -65q-37 -9 -82 -25q-189 -76 -264 -201t-26 -248t232 -192.5t510 -34.5q150 17 281 58q166 57 188 98t-54 70t-202 51q-13 2 -28 5q-72 11 -154.5 33t-143.5 68q-72 62 -69.5 141.5t58.5 149.5q66 81 159.5 175t141.5 126q147 84 246 54t167 -125t122 -204 q12 -23 24 -45q48 -88 91 -43zM1975 266v0q78 -57 194.5 -56.5t218.5 35.5q169 64 206.5 146t-35 127.5t-236.5 -1.5q-115 -39 -205 -112t-143 -139zM3009 227q29 0 56 -14.5t42.5 -42t15.5 -56.5q0 -30 -15 -57t-42 -42t-57 -15q-29 0 -56.5 15t-42 42t-14.5 57 q0 29 15 56.5t42 42t56 14.5z"/>
            <glyph glyph-name="uni0536" unicode="ﻀﯽءءءء" horiz-adv-x="3002"
                   d="M1837 277v0q27 35 57 80q59 96 157.5 197t271.5 153q192 49 335 1t162 -183v0q3 -65 15 -133t47.5 -115.5t104.5 -49.5h3h4h4h3v-227h-12h-13q-18 0 -36 0.5t-31 2.5q-112 12 -172 64t-84 129q-98 -87 -239.5 -142.5t-311.5 -56.5q-245 1 -398 79.5t-215 247.5 q-18 43 -46 83.5t-76 53.5q-51 8 -105 -37.5t-105 -103.5q-36 -41 -67 -70q-22 -18 -17 -33t56 -32q328 -91 454.5 -195.5t99 -206t-163 -184t-332.5 -130.5t-408 -44.5t-389.5 73t-278.5 221.5q-56 94 -60.5 224t56.5 241q89 150 226.5 234t280.5 91q91 3 135.5 -20.5 t22 -57.5t-131.5 -65q-37 -9 -82 -25q-189 -76 -264 -201t-26 -248t232 -192.5t510 -34.5q150 17 281 58q166 57 188 98t-54 70t-202 51q-13 2 -28 5q-72 11 -154.5 33t-143.5 68q-72 62 -69.5 141.5t58.5 149.5q65 81 159 175t142 126q147 84 246 54t167 -125t122 -204 q12 -23 24 -45q47 -88 91 -43zM2307 1088v0q74 20 136.5 -11.5t79.5 -92.5q15 -75 -27.5 -124t-94.5 -61q-102 -20 -161.5 38t-49.5 135.5t117 115.5zM1968 266v0q78 -57 194.5 -56.5t218.5 35.5q169 64 206.5 146t-35.5 127.5t-236 -1.5q-115 -39 -205 -112t-143 -139z M3003 227q29 0 56 -14.5t42.5 -42t15.5 -56.5q0 -30 -15 -57t-42 -42t-57 -15q-29 0 -56.5 15t-42 42t-14.5 57q0 29 15 56.5t42 42t56 14.5z"/>
            <glyph glyph-name="uni0537" unicode="ﻀﯽءءءءءء" horiz-adv-x="2194"
                   d="M1874 132v0q-176 -100 -395 -125t-414 33.5t-300 209.5q-25 39 -44 76q-26 52 -58 90t-91 50q-99 15 -193 -40.5t-138 -133.5q-53 -104 -20 -180.5t116 -127.5t180 -79.5t171 -36.5q235 -27 474 -9.5t389 65.5q132 43 249 110q8 5 23 13t33 17q8 5 17 10q20 13 36 17 q-20 18 -35 41zM1929 75v0q-2 -12 -16 -37q-12 -18 -18 -38q-5 -17 -9 -33q-10 -46 -27.5 -81t-61.5 -61q-142 -80 -367.5 -136.5t-476 -71t-468.5 32.5t-344 175q-116 132 -101 288.5t115 296t239 222.5t271.5 67.5t213.5 -169.5q16 -34 28 -60q15 -33 29.5 -60.5 t35.5 -58.5q44 -62 83.5 -64.5t75 30t68.5 76.5q123 170 289.5 263t384.5 76q158 -15 231 -111q68 -91 2 -248q-20 -43 -49 -82q23 -30 58 -47.5t79 -16.5v-227q-52 0 -127 15.5t-138 59.5zM1261 208v0q70 -19 182.5 -11.5t226 40.5t186 89.5t60.5 134.5q-11 55 -84 76.5 t-199 -17.5q-87 -32 -157 -96t-123 -126q-56 -65 -92 -90zM1571 1265v0q74 20 136 -11.5t80 -92.5q15 -75 -28 -124t-95 -61q-102 -20 -161.5 38t-49.5 135.5t118 115.5zM2193 227q29 0 56 -14.5t42.5 -42t15.5 -56.5q0 -30 -15 -57t-42 -42t-57 -15q-29 0 -56.5 15t-42 42 t-14.5 57q0 29 15 56.5t42 42t56 14.5z"/>
            <glyph glyph-name="uni0538" unicode="ﺼﯽءءءءءء" horiz-adv-x="2171"
                   d="M1874 132v0q-176 -100 -395 -125t-414 33.5t-300 209.5q-25 39 -44 76q-26 52 -58 90t-91 50q-99 15 -193 -40.5t-138 -133.5q-53 -104 -20 -180.5t116 -127.5t180 -79.5t171 -36.5q235 -27 474 -9.5t389 65.5q132 43 249 110q8 5 23 13t33 17q8 5 17 10q20 13 36 17 q-20 18 -35 41zM1929 75v0q-2 -12 -16 -37q-12 -18 -18 -38q-5 -17 -9 -33q-10 -46 -27.5 -81t-61.5 -61q-142 -80 -367.5 -136.5t-476 -71t-468.5 32.5t-344 175q-116 132 -101 288.5t115 296t239 222.5t271.5 67.5t213.5 -169.5q16 -34 28 -60q15 -33 29.5 -60.5 t35.5 -58.5q44 -62 83.5 -64.5t75 30t68.5 76.5q123 170 289.5 263t384.5 76q158 -15 231 -111q68 -91 2 -248q-20 -43 -49 -82q23 -30 58 -47t56 -17v-227q-55 0 -117 15.5t-125 59.5zM1261 208v0q70 -19 182.5 -11.5t226 40.5t186 89.5t60.5 134.5q-11 55 -84 76.5 t-199 -17.5q-87 -32 -157 -96t-123 -126q-56 -65 -92 -90zM2170 227q29 0 56 -14.5t42.5 -42t15.5 -56.5q0 -30 -15 -57t-42 -42t-57 -15q-29 0 -56.5 15t-42 42t-14.5 57q0 29 15 56.5t42 42t56 14.5z"/>
            <glyph glyph-name="uni0539" unicode="ﮑﯽءءءء" horiz-adv-x="1654"
                   d="M1189 37v0q56 -11 147.5 -35.5t178.5 -67t128 -107t-4 -155.5q-53 -93 -196 -165.5t-335 -111.5t-392.5 -31t-368 76.5t-260.5 211.5q-56 92 -60 221.5t56 239.5q93 148 259.5 231t313.5 90q90 3 134 -20t21.5 -56.5t-130.5 -64.5q-36 -9 -81 -25q-188 -75 -272.5 -199 t-49.5 -246t206 -191t495 -34q148 17 278 57q165 57 186.5 97.5t-53.5 69.5t-200 50q-127 22 -237 31q-81 7 -154 17q-79 16 -88.5 62t44.5 76q30 13 75 24q38 9 69 21q217 83 318 252q45 80 25 177t-79 233q-25 67 5 113.5t103 41.5q58 -8 93 -64q101 -150 117 -310v0v-6v0 v-1q0 -4 1 -8q3 -66 14.5 -135.5t47 -118t102.5 -50.5h4h4v-227q-34 0 -52 0.5t-31 2.5q-97 10 -154.5 51t-85.5 102q-61 -65 -142 -119zM1280 1226v0q14 4 123.5 65.5t252.5 144t260 149.5q114 66 145 84q102 49 128.5 30t-2.5 -73.5t-95 -110.5q-92 -78 -276 -208.5 t-371.5 -233.5t-291.5 -98q-96 17 -42 104q43 68 169 147zM1653 227q29 0 56 -14.5t42.5 -42t15.5 -56.5q0 -30 -15 -57t-42 -42t-57 -15q-29 0 -56.5 15t-42 42t-14.5 57q0 29 15 56.5t42 42t56 14.5z"/>
            <glyph glyph-name="uni0540" unicode="ﮐﯽءءءء" horiz-adv-x="1706"
                   d="M1187 19v0q56 -11 147.5 -35.5t178 -67t128 -107t-3.5 -155.5q-53 -93 -196 -165.5t-335.5 -111.5t-392.5 -31t-367.5 76.5t-260.5 211.5q-56 92 -60.5 221.5t56.5 239.5q93 148 259.5 231.5t312.5 90.5q91 2 135 -20.5t21.5 -56.5t-130.5 -64q-36 -9 -81 -26 q-188 -75 -272.5 -199t-49.5 -246t206 -191t494 -34q149 17 279 58q165 56 186.5 96.5t-53.5 69.5t-200 51q-127 21 -237 30q-81 7 -154 17q-80 17 -89 62.5t45 76.5q30 13 75 23q38 10 69 21q217 83 318 252q45 80 25 177t-79 234q-25 67 5 113t102 41q59 -8 93 -64 q95 -139 115.5 -288t-64.5 -301q-78 -132 -225 -230zM1278 1208v0q14 4 123 65.5t252.5 144t259.5 149.5q114 66 146 84q101 50 128 30.5t-2.5 -73.5t-94.5 -110q-92 -78 -276 -209t-371.5 -234t-291.5 -98q-96 18 -42 104q43 68 169 147z"/>
            <glyph glyph-name="uni0541" unicode="ﮕﯽءءءء" horiz-adv-x="1654"
                   d="M1189 37v0q56 -11 147.5 -35.5t178.5 -67t128 -107t-4 -155.5q-53 -93 -196 -165.5t-335 -111.5t-392.5 -31t-368 76.5t-260.5 211.5q-56 92 -60 221.5t56 239.5q93 148 259.5 231t313.5 90q90 3 134 -20t21.5 -56.5t-130.5 -64.5q-36 -9 -81 -25q-188 -75 -272.5 -199 t-49.5 -246t206 -191t495 -34q148 17 278 57q165 57 186.5 97.5t-53.5 69.5t-200 50q-127 22 -237 31q-81 7 -154 17q-79 16 -88.5 62t44.5 76q30 13 75 24q38 9 69 21q217 83 318 252q45 80 25 177t-79 233q-25 67 5 113.5t103 41.5q58 -8 93 -64q101 -150 117 -310v0v-6v0 v-1q0 -4 1 -8q3 -66 14.5 -135.5t47 -118t102.5 -50.5h4h4v-227q-34 0 -52 0.5t-31 2.5q-97 10 -154.5 51t-85.5 102q-61 -65 -142 -119zM1286 1230v0q14 4 123 65.5t252.5 144t259.5 149.5q114 66 146 84q101 49 128 30t-2.5 -73.5t-94.5 -110.5q-92 -78 -276 -208.5 t-371.5 -233.5t-291.5 -98q-96 17 -42 104q43 68 169 147zM1549 1592v0q11 5 35 19q43 23 107.5 57t125.5 62.5t96 35.5t18.5 -22t-108.5 -111q-54 -48 -166.5 -122t-220.5 -124.5t-151 -28.5q-15 11 -24.5 29.5t-7.5 38.5q5 21 27.5 34.5t47.5 22.5q13 5 22 10zM1653 227 q29 0 56 -14.5t42.5 -42t15.5 -56.5q0 -30 -15 -57t-42 -42t-57 -15q-29 0 -56.5 15t-42 42t-14.5 57q0 29 15 56.5t42 42t56 14.5z"/>
            <glyph glyph-name="uni0542" unicode="ﮔﯽءءءء" horiz-adv-x="1706"
                   d="M1187 19v0q56 -11 147.5 -35.5t178 -67t128 -107t-3.5 -155.5q-53 -93 -196 -165.5t-335.5 -111.5t-392.5 -31t-367.5 76.5t-260.5 211.5q-56 92 -60.5 221.5t56.5 239.5q93 148 259.5 231.5t312.5 90.5q91 2 135 -20.5t21.5 -56.5t-130.5 -64q-36 -9 -81 -26 q-188 -75 -272.5 -199t-49.5 -246t206 -191t494 -34q149 17 279 58q165 56 186.5 96.5t-53.5 69.5t-200 51q-127 21 -237 30q-81 7 -154 17q-80 17 -89 62.5t45 76.5q30 13 75 23q38 10 69 21q217 83 318 252q45 80 25 177t-79 234q-25 67 5 113t102 41q59 -8 93 -64 q95 -139 115.5 -288t-64.5 -301q-78 -132 -225 -230zM1286 1215v0q14 4 123 65.5t252.5 144t259.5 150.5q114 66 145 83q102 50 128.5 31t-2.5 -73.5t-94 -110.5q-92 -78 -276 -209t-371.5 -234t-291.5 -97q-96 17 -42 103q43 68 169 147zM1549 1577v0q10 6 35 19 q43 24 107 57.5t125.5 62t96.5 36t18.5 -22t-108.5 -111.5q-55 -48 -167 -121.5t-220 -124t-151 -29.5q-15 11 -24.5 29.5t-7.5 39.5q4 20 27 33.5t48 23.5q12 5 22 9z"/>
            <glyph glyph-name="uni0543" unicode="ﮐﯽءءءءء" horiz-adv-x="1154"
                   d="M917 1238v0q15 4 124 65.5t252 144t260 150.5q114 66 145 83q102 50 128.5 31t-2.5 -73.5t-94 -110.5q-92 -78 -276 -209t-371.5 -234t-291.5 -97q-96 17 -42 103q43 68 168 147zM640 0q-53 2 -133 -4q-87 -6 -164 -34q-69 -25 -124.5 -74t-60 -108.5t81.5 -114.5 q152 -91 405 -118t540 -2t543.5 89.5t419.5 156.5q7 5 22 12.5l33 16.5l18 10q21 14 39 18q13 3 16 -9t-16 -45q-11 -17 -18 -38q-5 -18 -9 -33q-10 -45 -27.5 -80.5t-61.5 -61.5q-137 -77 -376 -148.5t-521 -110.5t-550 -19q-152 12 -290 49.5t-234.5 104.5t-123.5 167 q-27 119 21 243q19 49 49.5 99t58.5 79q74 74 147.5 114t157.5 54q75 12 157 14h17q100 2 154 34t64 84q9 68 -24 169t-76 201q-20 49 -36 90q-11 71 28 110.5t108 19.5q56 -20 79 -81q18 -48 39 -97q38 -88 68.5 -177.5t32.5 -175.5q-5 -183 -137 -295t-317 -109z"/>
            <glyph glyph-name="uni0544" unicode="ﮑﯽءءءءء" horiz-adv-x="1340"
                   d="M929 1238v0q15 4 124 65.5t252 144t260 150.5q114 66 145 84q102 49 128.5 30t-2.5 -73.5t-94 -110.5q-93 -78 -276.5 -208.5t-371.5 -233.5t-291 -98q-97 17 -42 104q43 67 168 146zM652 0h-3q-56 2 -142.5 -4t-163.5 -34q-69 -25 -124.5 -74t-60 -108.5t81.5 -114.5 q152 -91 405 -118t540 -2t543.5 89.5t419.5 156.5q7 5 22 12.5l33 16.5l18 10q21 14 39 18q13 3 16 -9t-16 -45q-11 -17 -18 -38q-5 -18 -9 -33q-10 -45 -27.5 -80.5t-61.5 -61.5q-137 -77 -376 -148.5t-521 -110.5t-550 -19q-152 12 -290 49.5t-234.5 104.5t-123.5 167 q-27 119 21 243q19 49 49.5 99t58.5 79q74 74 147.5 114t157.5 54q80 13 169 14h17q11 0 18 1q90 4 140 35.5t59 81.5q11 69 -23 169.5t-75 200.5q-21 49 -37 90q-12 71 27 110.5t108 19.5q57 -20 79 -80q18 -46 37 -95q43 -109 82 -215q47 -136 109.5 -225.5t146.5 -92.5 v-227h-47q-74 -1 -156 31.5t-136 107.5q-138 -141 -349 -139zM1339 227q29 0 56 -14.5t42.5 -42t15.5 -56.5q0 -30 -15 -57t-42 -42t-57 -15q-29 0 -56.5 15t-42 42t-14.5 57q0 29 15 56.5t42 42t56 14.5z"/>
            <glyph glyph-name="uni0545" unicode="ﮔﯽءءءءء" horiz-adv-x="1160"
                   d="M919 1238v0q14 4 123 65.5t252.5 144t259.5 150.5q114 66 145 83q102 50 129 31t-2.5 -73.5t-94.5 -110.5q-92 -78 -276 -209t-371.5 -234t-291.5 -97q-96 17 -42 103q43 68 169 147zM1176 1629v0q10 6 35 19q43 24 107 57.5t125.5 62t96 36t18.5 -22t-108 -111.5 q-55 -48 -167 -121.5t-220 -124t-151 -29.5q-15 11 -24.5 29.5t-7.5 39.5q4 20 27 33.5t48 23.5q12 5 22 9zM640 0q-53 2 -133 -4q-87 -6 -164 -34q-69 -25 -124.5 -74t-60 -108.5t81.5 -114.5q152 -91 405 -118t540 -2t543.5 89.5t419.5 156.5q7 5 22 12.5l33 16.5l18 10 q21 14 39 18q13 3 16 -9t-16 -45q-11 -17 -18 -38q-5 -18 -9 -33q-10 -45 -27.5 -80.5t-61.5 -61.5q-137 -77 -376 -148.5t-521 -110.5t-550 -19q-152 12 -290 49.5t-234.5 104.5t-123.5 167q-27 119 21 243q19 49 49.5 99t58.5 79q74 74 147.5 114t157.5 54q75 12 157 14 h18q100 2 154 34t64 84q9 68 -24 169t-76 201q-20 49 -36 90q-11 71 28 110.5t108 19.5q56 -20 79 -81q18 -48 39 -97q38 -88 68.5 -177.5t32.5 -175.5q-5 -183 -137 -295t-318 -109z"/>
            <glyph glyph-name="uni0546" unicode="ﮕﯽءءءءء" horiz-adv-x="1317"
                   d="M907 1238v0q14 4 123 65.5t252.5 144t259.5 150.5q114 66 146 84q101 49 128 30t-2.5 -73.5t-94.5 -110.5q-92 -78 -276 -208.5t-371.5 -233.5t-291.5 -98q-96 17 -42 104q43 67 169 146zM1137 1604v0q10 6 35 19q42 24 106.5 57.5t126 62t96 36t18 -22t-107.5 -111.5 q-55 -48 -167 -121.5t-220 -124t-151 -28.5q-16 10 -25.5 28.5t-6.5 39.5q4 20 27 34t47 23q13 5 22 10zM629 1q-51 0 -122 -5q-87 -6 -164 -34q-69 -25 -124.5 -74t-60 -108.5t81.5 -114.5q152 -91 405 -118t540 -2t543.5 89.5t419.5 156.5q7 5 22 12.5l33 16.5l18 10 q21 14 39 18q13 3 16 -9t-16 -45q-11 -17 -18 -38q-5 -18 -9 -33q-10 -45 -27.5 -80.5t-61.5 -61.5q-137 -77 -376 -148.5t-521 -110.5t-550 -19q-152 12 -290 49.5t-234.5 104.5t-123.5 167q-27 119 21 243q19 49 49.5 99t58.5 79q74 74 147.5 114t157.5 54q70 12 146 14 h17.5t17.5 1q91 4 141 35.5t59 81.5q10 69 -23.5 169.5t-75.5 200.5q-20 49 -37 90q-11 71 27.5 110.5t108.5 19.5q56 -20 79 -80q18 -46 37 -95q42 -109 82 -215q47 -136 109 -225.5t146 -92.5l1 -227h-47q-75 -1 -157 31.5t-135 107.5q-129 -131 -321 -139zM1316 227 q29 0 56 -14.5t42.5 -42t15.5 -56.5q0 -30 -15 -57t-42 -42t-57 -15q-29 0 -56.5 15t-42 42t-14.5 57q0 29 15 56.5t42 42t56 14.5z"/>
            <glyph glyph-name="uni0548" unicode="ﮋﮔﯽ" horiz-adv-x="2117"
                   d="M1485 926v0q18 -48 39 -98q39 -87 69 -177t32 -175q-5 -181 -134 -293t-312 -112q80 -138 42 -235.5t-146 -157.5t-238 -84q-151 -30 -303 -6q-163 26 -291 122t-183 262q-43 129 -9 271q35 119 121 206.5t191.5 138.5t197.5 64q101 11 129.5 -19t-67.5 -84 q-26 -14 -51 -27q-74 -36 -140.5 -81.5t-119.5 -125.5q-71 -117 -55 -227t96 -188q111 -104 267.5 -120t293.5 40q122 52 146.5 112t-37.5 101.5t-201 37.5q-27 -1 -57 -6q-51 -10 -96 -6q-47 9 -69 45.5t-8 81.5t74.5 78.5t180.5 33.5h332q104 1 160.5 33.5t66.5 84.5 q10 69 -23.5 170t-75.5 200q-21 49 -37 91q-11 71 28 110t108 20q56 -20 79 -81zM1713 1670v0l-200 -99q-9 -4 -21 -8q-25 -11 -48 -24q-22 -13 -27 -33q-3 -22 7 -39q10 -19 25 -30q43 -21 152 30q108 50 220 123q112 74 166 122q91 80 108 110q17 29 -18 22t-96 -35 q-61 -29 -125 -63q-66 -34 -108 -57q-25 -14 -35 -19v0zM1449 1310v0q14 4 123 65.5t252.5 144t259.5 149.5q114 66 146 84q101 49 128 30t-2.5 -73t-94.5 -111q-92 -78 -276 -208.5t-371.5 -233.5t-291.5 -98q-96 17 -42 104q43 68 169 147zM1577 828v0q-26 87 1 155.5 t82 123.5q117 118 234.5 139.5t207.5 -26t123 -135t-18 -187.5q-72 -118 -183.5 -158t-210.5 -31.5t-134 36.5q-67 57 -27 79.5t130 35.5q66 10 131 28t105.5 54.5t30.5 102.5q-57 56 -137 51.5t-153 -52.5q-38 -26 -59.5 -58.5t-35.5 -64.5q-15 -33 -33.5 -58.5 t-53.5 -34.5zM1978 483v0q7 -44 9 -89q1 -3 1 -6q4 -47 13 -83t35 -57t81 -21v-227q-107 -1 -183 43q-63 -155 -221 -242q-55 -29 -118.5 -44.5t-126.5 -7.5q-25 3 -57.5 17.5t-38.5 41.5q-2 23 22 41.5t54 31t48 17.5q100 30 162.5 100.5t96.5 167.5q27 88 15 180 q-3 36 -8 72q-6 43 -9 86q-3 25 -0.5 54.5t16.5 51.5q14 19 36 27t45 9q23 3 46.5 -1.5t40.5 -21.5q18 -22 26 -56.5t12 -66.5q1 -9 3 -17zM2116 227q29 0 56 -14.5t42.5 -42t15.5 -56.5q0 -30 -15 -57t-42 -42t-57 -15q-29 0 -56.5 15t-42 42t-14.5 57q0 29 15 56.5t42 42 t56 14.5z"/>
            <glyph glyph-name="uni0549" unicode="ﻟﯽءءءء" horiz-adv-x="1569"
                   d="M1221 23v0q74 -15 165.5 -42t158.5 -58q163 -84 155.5 -181t-135.5 -185.5t-326.5 -147t-416.5 -65t-406 61.5t-296 232q-56 93 -60.5 222.5t55.5 239.5q94 147 260.5 230.5t312.5 90.5q91 3 135 -20t21.5 -57t-131.5 -64q-36 -9 -81 -25q-187 -75 -272 -199t-50 -246 t206 -191t495 -34q149 16 278 57q166 57 187.5 97.5t-54 69t-199.5 50.5q-127 21 -237 30q-81 7 -154 18q-64 12 -82 45.5t5 66t84 40.5q150 13 243 114.5t96 303.5l-7 492q3 107 54 136t102.5 -2t55.5 -105l4 -418v-16q3 -116 -4 -223.5t-42.5 -190.5t-119.5 -127z"/>
            <glyph glyph-name="uni0550" unicode="ﻗﯽءءءء" horiz-adv-x="1787"
                   d="M1205 220v0q-81 34 -109 119t-4.5 179.5t97.5 157.5q102 80 202.5 82t178 -52.5t110.5 -143t0 -189.5q-33 -87 -110.5 -154t-174.5 -116q-64 -33 -102.5 -49.5t-91.5 -34.5q56 -9 142.5 -32t169 -63t128 -99.5t21.5 -140.5q-35 -98 -173.5 -176.5t-334 -123t-403.5 -39.5 t-382.5 73.5t-270.5 215.5q-56 92 -60.5 221.5t55.5 239.5q94 148 260.5 231.5t312.5 90.5q91 2 135 -20.5t21.5 -56.5t-131.5 -64q-36 -9 -81 -26q-188 -75 -282.5 -202.5t-72.5 -254t183.5 -199t484.5 -37.5q76 10 177 34.5t168 46.5q165 56 186.5 96.5t-54 69.5 t-199.5 51q-127 21 -237 30q-81 7 -154 17q-64 12 -82 46t5 66.5t85 39.5q95 10 168.5 43.5t167.5 91.5l6 4q23 13 45 27zM1449 424v0q36 80 -2.5 108t-94 8t-69.5 -83q-10 -80 19.5 -105t72.5 -4.5t74 76.5zM1473 1006v0q112 -12 164.5 -41t24 -59t-160.5 -44 q-70 -9 -172 -20.5t-184 -11.5q-9 1 -17 1q-45 -2 -72.5 8.5t-27.5 55.5q4 58 59 82.5t129 29.5t135 3h34h13q37 0 35 -0.5t40 -3.5z"/>
            <glyph glyph-name="uni0551" unicode="ﻔﯽءءءء" horiz-adv-x="1702"
                   d="M1170 211v0q-47 58 -69 130q-32 86 -9.5 184t98.5 163q102 80 202.5 82t178 -52t110.5 -143t0 -190q-29 -77 -94 -139q45 -20 115 -19v-227q-208 0 -370 83q-33 -16 -62 -27t-69 -25q57 -8 143.5 -31.5t169 -63.5t128 -99t21.5 -140q-35 -99 -173.5 -177.5t-334 -123 t-403.5 -39.5t-382.5 73.5t-270.5 215.5q-56 93 -60.5 222t55.5 239q94 148 260.5 231.5t312.5 90.5q91 3 135 -20t21.5 -57t-131.5 -64q-36 -9 -81 -26q-188 -75 -282.5 -202.5t-72.5 -254t183.5 -199t484.5 -37.5q76 10 177 34.5t167 46.5q166 57 187.5 97t-54 69 t-199.5 51q-127 21 -237 30q-81 7 -154 18q-64 12 -82.5 45.5t5 66t84.5 40.5q96 9 169.5 42.5t167.5 91.5l6 4zM1332 1162v0q74 20 136 -11.5t80 -92.5q15 -74 -27.5 -123t-94.5 -62q-103 -19 -162.5 39t-49 135t117.5 115zM1450 436v0q36 80 -2.5 108t-94 8.5t-69.5 -83.5 q-10 -80 19.5 -104.5t72.5 -4.5t74 76zM1701 227q29 0 56 -14.5t42.5 -42t15.5 -56.5q0 -30 -15 -57t-42 -42t-57 -15q-29 0 -56.5 15t-42 42t-14.5 57q0 29 15 56.5t42 42t56 14.5z"/>
            <glyph glyph-name="uni0552" unicode="ﻘﯽءءءء" horiz-adv-x="1703"
                   d="M1504 1056v0q112 -12 164.5 -41t24 -59t-160.5 -44q-69 -9 -171.5 -20.5t-184.5 -10.5h-17q-45 -2 -72.5 8.5t-27.5 56.5q5 57 59.5 81.5t128.5 29.5t135 3h34h13q37 1 35 0t40 -4zM1170 211v0q-47 58 -69 130q-32 86 -9.5 184t98.5 163q102 80 202.5 82t178 -52 t110.5 -143t0 -190q-29 -77 -94 -139q45 -20 115 -19v-227q-208 0 -370 83q-33 -16 -62 -27t-69 -25q57 -8 143.5 -31.5t169 -63.5t128 -99t21.5 -140q-35 -99 -173.5 -177.5t-334 -123t-403.5 -39.5t-382.5 73.5t-270.5 215.5q-56 93 -60.5 222t55.5 239 q94 148 260.5 231.5t312.5 90.5q91 3 135 -20t21.5 -57t-131.5 -64q-36 -9 -81 -26q-188 -75 -282.5 -202.5t-72.5 -254t183.5 -199t484.5 -37.5q76 10 177 34.5t167 46.5q166 57 187.5 97t-54 69t-199.5 51q-127 21 -237 30q-81 7 -154 18q-64 12 -82.5 45.5t5 66 t84.5 40.5q96 9 169.5 42.5t167.5 91.5l6 4zM1450 436v0q36 80 -2.5 108t-94 8.5t-69.5 -83.5q-10 -80 19.5 -104.5t72.5 -4.5t74 76zM1701 227q29 0 56 -14.5t42.5 -42t15.5 -56.5q0 -30 -15 -57t-42 -42t-57 -15q-29 0 -56.5 15t-42 42t-14.5 57q0 29 15 56.5t42 42 t56 14.5z"/>
            <glyph glyph-name="uni0553" unicode="ﻫﯽءءءء" horiz-adv-x="1998"
                   d="M1475 162v0q-160 -109 -259 -143q76 -17 165 -42.5t158 -58.5q129 -66 144.5 -145.5t-48 -156t-174.5 -132.5q-143 -71 -334.5 -109t-390.5 -29t-364.5 77.5t-258.5 210.5q-55 92 -59.5 221.5t55.5 239.5q93 148 259.5 231.5t313.5 90.5q90 2 134 -20.5t22 -56.5 t-131 -64q-36 -9 -81 -26q-188 -75 -272.5 -199t-49.5 -246t206 -191t495 -34q149 17 278 58q165 56 186.5 96.5t-53.5 69.5t-200 51q-126 21 -237 30q-80 7 -153 17q-64 12 -82.5 45.5t5 65.5t84.5 41q108 13 195 52.5t199 105.5q-68 5 -118.5 28t-77.5 45 q-83 69 -79.5 163.5t71.5 178t178 119.5q-34 26 -80 50q-34 19 -56 35q-34 25 -20 38t101 2q144 -19 311.5 -64.5t303.5 -106t183 -127.5q31 -51 25 -103.5t-37 -101.5q-52 -77 -137.5 -122.5t-173 -64.5t-146.5 -19zM1582 395v0q52 9 103 25.5t80 42.5q-35 44 -107.5 75 t-140.5 49q10 -23 19 -42q16 -31 28 -65t18 -85zM1160 392v0q57 -31 123 -42t150 12q11 82 -28.5 126.5t-98.5 49.5t-103.5 -31t-42.5 -115z"/>
            <glyph glyph-name="uni0554" unicode="ﻣﯽءءءء" horiz-adv-x="2137"
                   d="M1194 49v0q59 -25 123 -36q27 -5 54 -11q81 -21 146 -53q57 -25 92 -61q87 -101 38 -195.5t-191 -169t-335 -114.5t-395 -32.5t-371 76t-263 211.5q-56 93 -60.5 222.5t55.5 239.5q94 148 260.5 231t312.5 90q91 3 135 -20t21.5 -56.5t-131.5 -64.5q-36 -9 -81 -25 q-187 -75 -272 -199t-50 -246t206 -191t495 -34q149 17 279 57q165 57 186.5 97.5t-54 69.5t-199.5 50q-127 22 -237 30q-81 7 -154 18q-64 12 -82 45.5t5 66t85 40.5q161 14 288 80q117 58 148 105t35 101q3 23 9 50q42 150 168 222t274 59t255 -118l15 -16 q99 -119 92 -247t-103 -224q-107 -97 -248.5 -104.5t-253.5 42.5q-72 33 -107.5 68t-64 9t-125.5 -63zM1615 471v0q-79 -32 -85 -102t52.5 -120.5t172.5 -23.5q99 34 103 106t-62.5 122t-180.5 18z"/>
            <glyph glyph-name="uni0555" unicode="ﻤﯽءءءء" horiz-adv-x="2285"
                   d="M1622 473v0q-79 -32 -85 -102t52.5 -120.5t172.5 -23.5q99 34 103 106t-62.5 122t-180.5 18zM1996 95v0q-107 -94 -247 -100.5t-251 42.5q-72 33 -107.5 68t-72.5 3t-118 -56q60 -26 124 -36l54 -12q81 -21 146 -53q57 -25 92 -61q87 -101 38 -195.5t-191 -168.5 t-335 -114.5t-395 -33t-371 76t-263 212.5q-56 92 -60.5 221.5t55.5 239.5q94 148 260 231t313 90q91 3 134.5 -20t21.5 -56.5t-131 -64.5q-36 -9 -81 -25q-188 -75 -272.5 -199t-49.5 -246t206 -191t495 -34q149 17 278 57q166 57 187.5 97.5t-54 69.5t-200.5 50 q-126 22 -236 30q-81 7 -154 18q-64 12 -82.5 45.5t5 66t84.5 40.5q162 14 289 80q117 59 148 106t35 100q3 23 9 50q42 150 168 222t274 59t255 -118l14 -16q45 -52 68 -108v0q19 -44 29 -82q14 -60 48 -100q32 -50 130 -53v-227q-41 0 -94 7.5t-105 28t-90 59.5zM2283 227 q29 0 56 -14.5t42.5 -42t15.5 -56.5q0 -30 -15 -57t-42 -42t-57 -15q-29 0 -56.5 15t-42 42t-14.5 57q0 29 15 56.5t42 42t56 14.5z"/>
            <glyph glyph-name="uni0556" unicode="ﻃﯽءءءء" horiz-adv-x="1976"
                   d="M769 20v0q87 39 146 84q65 68 80 160.5t12 157.5v-1l1 -1l-12 571q3 114 53.5 152.5t101.5 14t57 -96.5q2 -87 0 -218t-8 -269q93 140 209 203.5t225 62.5q176 -4 248 -133q50 -107 6.5 -216t-131 -200t-172.5 -143q-174 -107 -386 -152q57 -8 143 -31.5t168.5 -63.5 t128.5 -99t22 -140q-36 -98 -174 -177t-333.5 -123t-403.5 -39.5t-382.5 73t-270.5 215.5q-56 93 -60.5 222.5t55.5 239.5q93 147 259.5 230.5t313.5 90.5q90 3 134 -20t22 -57t-131 -64q-36 -9 -81 -25q-188 -75 -272.5 -199t-49.5 -246t206 -191t495 -34q149 16 278 57 q165 57 186.5 97.5t-53.5 69t-200 50.5q-126 21 -237 30q-80 7 -153 18q-81 17 -89 64t49 76zM1189 194v0q274 89 399.5 187.5t133.5 173.5t-69 94q-114 20 -217 -51.5t-171 -184.5t-76 -219z"/>
            <glyph glyph-name="uni0557" unicode="ﻄﯽءءءء" horiz-adv-x="1946"
                   d="M916 64v0q56 58 75.5 199.5t18 304.5t-8.5 285q-2 60 -3 98q3 114 53.5 152t101.5 14t57 -96q2 -87 0 -218t-9 -269q94 139 210 203t225 63q176 -4 248 -134q44 -92 15.5 -187.5t-98.5 -179.5q23 -33 59.5 -52.5t85.5 -19.5v-227q-44 0 -105.5 10.5t-120 39.5t-96.5 83 q-194 -130 -423 -177q57 -8 143 -31.5t168.5 -63.5t128.5 -99.5t22 -139.5q-36 -99 -174 -177.5t-333.5 -123t-403.5 -39.5t-382.5 73.5t-271.5 215.5q-56 93 -60 222t56 239q93 148 259.5 231.5t313.5 90.5q90 3 134 -20t22 -57t-131 -64q-36 -9 -81 -26 q-188 -75 -272.5 -199t-49.5 -246t206 -191t495 -33q148 16 278 57q165 56 186.5 96.5t-53.5 69.5t-200 51q-126 21 -237 30q-80 7 -153 18q-82 16 -89.5 63t49.5 77q87 39 145 84zM1191 154v0q274 89 399.5 187.5t133.5 173.5t-69 94q-114 19 -217 -52t-171 -184t-76 -219z M1945 227q29 0 56 -14.5t42.5 -42t15.5 -56.5q0 -30 -15 -57t-42 -42t-57 -15q-29 0 -56.5 15t-42 42t-14.5 57q0 29 15 56.5t42 42t56 14.5z"/>
            <glyph glyph-name="uni0558" unicode="ﻇﯽءءءء" horiz-adv-x="1976"
                   d="M774 20v0q87 39 145 84q66 68 81 160.5t12 157.5v-1l1 -1l-12 571q3 114 53.5 152.5t101.5 14t57 -96.5q2 -87 0 -218t-8 -269q93 140 209 203.5t225 62.5q176 -4 248 -133q50 -107 6.5 -216t-131 -200t-172.5 -143q-175 -107 -386 -152q57 -8 143 -31.5t168.5 -63.5 t128.5 -99t22 -140q-36 -98 -174 -177t-333.5 -123t-403.5 -39.5t-382.5 73t-270.5 215.5q-56 93 -60.5 222.5t55.5 239.5q93 147 259.5 230.5t313.5 90.5q90 3 134 -20t22 -57t-131 -64q-36 -9 -81 -25q-188 -75 -272.5 -199t-49.5 -246t206 -191t495 -34q149 16 278 57 q165 57 186.5 97.5t-53.5 69t-200 50.5q-126 21 -237 30q-80 7 -153 18q-81 17 -89 64t49 76zM1194 194v0q274 89 399.5 187.5t133.5 173.5t-69 94q-114 20 -217 -51.5t-171 -184.5t-76 -219zM1475 1265v0q74 20 136 -11.5t80 -92.5q15 -75 -27.5 -124t-94.5 -61 q-103 -20 -162.5 38t-49 135.5t117.5 115.5z"/>
            <glyph glyph-name="uni0559" unicode="ﻈﯽءءءء" horiz-adv-x="1948"
                   d="M1472 1265v0q74 20 136 -11.5t80 -92.5q15 -75 -27.5 -124t-94.5 -61q-102 -20 -162 38t-49.5 135.5t117.5 115.5zM916 64v0q56 58 75.5 199.5t18 304.5t-8.5 285q-2 60 -3 98q3 114 53.5 152t101.5 14t57 -96q2 -87 0 -218t-9 -269q94 139 210 203t225 63 q176 -4 248 -134q44 -92 15.5 -187.5t-98.5 -179.5q23 -33 59.5 -52.5t85.5 -19.5v-227q-44 0 -105.5 10.5t-120 39.5t-96.5 83q-194 -130 -423 -177q57 -8 143 -31.5t168.5 -63.5t128.5 -99.5t22 -139.5q-36 -99 -174 -177.5t-333.5 -123t-403.5 -39.5t-382.5 73.5 t-271.5 215.5q-56 93 -60 222t56 239q93 148 259.5 231.5t313.5 90.5q90 3 134 -20t22 -57t-131 -64q-36 -9 -81 -26q-188 -75 -272.5 -199t-49.5 -246t206 -191t495 -33q148 16 278 57q165 56 186.5 96.5t-53.5 69.5t-200 51q-126 21 -237 30q-80 7 -153 18 q-82 16 -89.5 63t49.5 77q87 39 145 84zM1191 154v0q274 89 399.5 187.5t133.5 173.5t-69 94q-114 19 -217 -52t-171 -184t-76 -219zM1945 227q29 0 56 -14.5t42.5 -42t15.5 -56.5q0 -30 -15 -57t-42 -42t-57 -15q-29 0 -56.5 15t-42 42t-14.5 57q0 29 15 56.5t42 42 t56 14.5z"/>
            <glyph glyph-name="uni0560" unicode="ﻠﯽءءءء" horiz-adv-x="1465"
                   d="M1230 -1v0q73 -15 164.5 -41.5t158.5 -58.5q163 -83 155.5 -180.5t-135.5 -186t-326 -147t-416.5 -64.5t-406.5 62t-296 232q-56 92 -60 221.5t56 239.5q93 148 259.5 231t312.5 91q91 2 135 -20.5t21.5 -56.5t-130.5 -65q-36 -9 -81 -25q-188 -75 -272.5 -199 t-49.5 -246t206 -191t494 -34q149 17 279 58q165 56 186.5 96.5t-53.5 69.5t-200 51q-127 21 -237 30q-81 7 -154 17q-64 12 -82 46t5.5 66t84.5 40q149 13 242.5 114.5t95.5 304.5l-7 492q3 107 54 136t102.5 -2.5t56.5 -105.5l3 -418q1 -7 1 -15q1 -67 0 -131v-96 q-1 -35 18 -60t51 -27v-227q-45 0 -90 9.5t-81 35.5q-27 -27 -64 -46zM1464 227q29 0 56 -14.5t42.5 -42t15.5 -56.5q0 -30 -15 -57t-42 -42t-57 -15q-29 0 -56.5 15t-42 42t-14.5 57q0 29 15 56.5t42 42t56 14.5z"/>
            <glyph glyph-name="uni0562" unicode="ﺛﯽءءءء" horiz-adv-x="1571"
                   d="M1258 19v0q60 -26 124 -36q27 -5 54 -12q81 -21 146 -53q57 -24 92 -61q87 -101 38 -195.5t-191 -168.5t-335 -114.5t-395 -33t-371 76t-263 212.5q-56 92 -60.5 221.5t55.5 239.5q94 148 260 231.5t313 90.5q90 2 134 -20.5t22 -56.5t-131 -64q-36 -9 -81 -26 q-188 -75 -272.5 -199t-49.5 -246t206 -191t495 -34q149 17 278 58q166 56 187.5 96.5t-54 69.5t-200.5 51q-126 21 -237 30q-80 7 -153 17q-64 12 -82.5 46t5 66.5t84.5 39.5q101 11 193.5 68t142.5 146t22 195q-30 107 -9 146t65 23t85 -73.5t51 -144.5 q11 -120 -29.5 -225.5t-138.5 -169.5zM605 698v0q-27 88 0.5 156t82.5 123q117 118 234.5 139.5t207 -26t123 -135t-18.5 -187.5q-71 -118 -182.5 -158t-211 -31t-133.5 36q-68 58 -27.5 80t129.5 35q66 11 131.5 29t105.5 54.5t30 102.5q-56 55 -136.5 50.5t-153.5 -52.5 q-38 -26 -59 -58.5t-36 -63.5q-15 -34 -33.5 -59.5t-52.5 -34.5z"/>
            <glyph glyph-name="uni0563" unicode="ﺌﻢءء" horiz-adv-x="1318"
                   d="M666 794v0q45 45 107.5 68.5t123.5 38.5l16 4q73 22 80 54.5t-23.5 54t-69.5 8.5l-52 -22q-52 -19 -73.5 -3t-12 42.5t48.5 39.5q26 7 42 6.5t24 -3.5q9 -2 15 0t12 16q13 35 -25 66t-109 15q-83 -28 -97 -102.5t35 -127.5q-35 -16 -66.5 -38t-53.5 -62q-15 -30 -13 -51 q4 -23 21 -28t37 2.5t33 21.5zM231 271v0q-16 -50 -23 -108q-81 -51 -134.5 -126.5t-61.5 -163.5q-11 -129 -6 -271l5 -325q5 -74 57 -104q51 -31 101 -1q50 29 53 135l-9 499q2 40 24 77q48 -130 143.5 -202.5t211.5 -77.5q73 -2 146.5 25t134.5 86q76 77 88 212v0 q8 95 -30 183t-119 145q-82 57 -206 58q-40 0 -72.5 -5t-63.5 -12q-7 -2 -15 -3q56 96 156 135q106 49 208 17q45 -20 72 -69l22 -40q32 -59 69 -118t84 -108t108.5 -79t144.5 -30l-1 227q-54 0 -91 30.5t-61 75t-37 88.5q-6 17 -14 33q-6 20 -16 38q-66 113 -194 149 q-128 40 -257 18q-166 -29 -268.5 -127.5t-148.5 -260.5zM625 73v0q107 -24 123 -95q16 -70 -29 -124q-42 -45 -100 -46q-59 0 -106 37q-38 31 -54 77t-4 80q13 31 59 56q45 24 111 15v0zM1317 227q29 0 56 -14.5t42.5 -42t15.5 -56.5q0 -30 -15 -57t-42 -42t-57 -15 q-29 0 -56.5 15t-42 42t-14.5 57q0 29 15 56.5t42 42t56 14.5zM1317 227q29 0 56 -14.5t42.5 -42t15.5 -56.5q0 -30 -15 -57t-42 -42t-57 -15q-29 0 -56.5 15t-42 42t-14.5 57q0 29 15 56.5t42 42t56 14.5z"/>
            <glyph glyph-name="uni0564" unicode="ﺒﻢءء" horiz-adv-x="1318"
                   d="M1054 -347v0q74 20 136 -11.5t80 -92.5q15 -75 -27.5 -124t-94.5 -61q-103 -20 -162.5 38t-49 135.5t117.5 115.5zM231 271v0q-16 -50 -23 -108q-81 -51 -134.5 -126.5t-61.5 -163.5q-11 -129 -6 -271l5 -325q5 -74 57 -104q51 -31 101 -1q50 29 53 135l-9 499 q2 40 24 77q48 -130 143.5 -202.5t211.5 -77.5q73 -2 146.5 25t134.5 86q76 77 88 212v0q8 95 -30 183t-119 145q-82 57 -206 58q-40 0 -72.5 -5t-63.5 -12q-7 -2 -15 -3q56 96 156 135q106 49 208 17q45 -20 72 -69l22 -40q32 -59 69 -118t84 -108t108.5 -79t144.5 -30 l-1 227q-54 0 -91 30.5t-61 75t-37 88.5q-6 17 -14 33q-6 20 -16 38q-66 113 -194 149q-128 40 -257 18q-166 -29 -268.5 -127.5t-148.5 -260.5zM625 73v0q107 -24 123 -95q16 -70 -29 -124q-42 -45 -100 -46q-59 0 -106 37q-38 31 -54 77t-4 80q13 31 59 56q45 24 111 15v0 zM1317 227q29 0 56 -14.5t42.5 -42t15.5 -56.5q0 -30 -15 -57t-42 -42t-57 -15q-29 0 -56.5 15t-42 42t-14.5 57q0 29 15 56.5t42 42t56 14.5zM1317 227q29 0 56 -14.5t42.5 -42t15.5 -56.5q0 -30 -15 -57t-42 -42t-57 -15q-29 0 -56.5 15t-42 42t-14.5 57q0 29 15 56.5 t42 42t56 14.5z"/>
            <glyph glyph-name="uni0565" unicode="ﺘﻢءء" horiz-adv-x="1318"
                   d="M815 1009v0q112 -12 164.5 -41t24 -59t-160.5 -44q-69 -9 -171 -20.5t-184 -11.5q-9 1 -18 1q-44 -2 -72 8t-27 56q4 58 59 82.5t128.5 29t135.5 3.5h33h13q38 0 35.5 -0.5t39.5 -3.5zM231 271v0q-16 -50 -23 -108q-81 -51 -134.5 -126.5t-61.5 -163.5q-11 -129 -6 -271 l5 -325q5 -74 57 -104q51 -31 101 -1q50 29 53 135l-9 499q2 40 24 77q48 -130 143.5 -202.5t211.5 -77.5q73 -2 146.5 25t134.5 86q76 77 88 212v0q8 95 -30 183t-119 145q-82 57 -206 58q-40 0 -72.5 -5t-63.5 -12q-7 -2 -15 -3q56 96 156 135q106 49 208 17 q45 -20 72 -69l22 -40q32 -59 69 -118t84 -108t108.5 -79t144.5 -30l-1 227q-54 0 -91 30.5t-61 75t-37 88.5q-6 17 -14 33q-6 20 -16 38q-66 113 -194 149q-128 40 -257 18q-166 -29 -268.5 -127.5t-148.5 -260.5zM625 73v0q107 -24 123 -95q16 -70 -29 -124 q-42 -45 -100 -46q-59 0 -106 37q-38 31 -54 77t-4 80q13 31 59 56q45 24 111 15v0zM1317 227q29 0 56 -14.5t42.5 -42t15.5 -56.5q0 -30 -15 -57t-42 -42t-57 -15q-29 0 -56.5 15t-42 42t-14.5 57q0 29 15 56.5t42 42t56 14.5zM1317 227q29 0 56 -14.5t42.5 -42t15.5 -56.5 q0 -30 -15 -57t-42 -42t-57 -15q-29 0 -56.5 15t-42 42t-14.5 57q0 29 15 56.5t42 42t56 14.5z"/>
            <glyph glyph-name="uni0566" unicode="ﯿﻢءء" horiz-adv-x="1318"
                   d="M860 -495v0q112 -11 165 -40t24 -59t-161 -45q-69 -8 -171 -19.5t-184 -11.5h-17q-45 -1 -72.5 9t-27.5 56q4 58 59 82.5t129 29t135 3.5q18 -1 33 0h14q37 0 35 -0.5t39 -4.5zM231 271v0q-16 -50 -23 -108q-81 -51 -134.5 -126.5t-61.5 -163.5q-11 -129 -6 -271l5 -325 q5 -74 57 -104q51 -31 101 -1q50 29 53 135l-9 499q2 40 24 77q48 -130 143.5 -202.5t211.5 -77.5q73 -2 146.5 25t134.5 86q76 77 88 212v0q8 95 -30 183t-119 145q-82 57 -206 58q-40 0 -72.5 -5t-63.5 -12q-7 -2 -15 -3q56 96 156 135q106 49 208 17q45 -20 72 -69 l22 -40q32 -59 69 -118t84 -108t108.5 -79t144.5 -30l-1 227q-54 0 -91 30.5t-61 75t-37 88.5q-6 17 -14 33q-6 20 -16 38q-66 113 -194 149q-128 40 -257 18q-166 -29 -268.5 -127.5t-148.5 -260.5zM625 73v0q107 -24 123 -95q16 -70 -29 -124q-42 -45 -100 -46 q-59 0 -106 37q-38 31 -54 77t-4 80q13 31 59 56q45 24 111 15v0zM1317 227q29 0 56 -14.5t42.5 -42t15.5 -56.5q0 -30 -15 -57t-42 -42t-57 -15q-29 0 -56.5 15t-42 42t-14.5 57q0 29 15 56.5t42 42t56 14.5zM1317 227q29 0 56 -14.5t42.5 -42t15.5 -56.5q0 -30 -15 -57 t-42 -42t-57 -15q-29 0 -56.5 15t-42 42t-14.5 57q0 29 15 56.5t42 42t56 14.5z"/>
            <glyph glyph-name="uni0567" unicode="ﭙﻢءء" horiz-adv-x="1318"
                   d="M498 -814v0q-3 121 58.5 214.5t158.5 139.5t200 23q110 -29 158.5 -118t-5.5 -195q-64 -108 -165 -144t-191 -28t-121 33q-61 52 -25 72t118 32q88 12 165 43q84 43 78.5 94t-71.5 72q-84 21 -156.5 -13t-125.5 -97t-76 -128zM231 271v0q-16 -50 -23 -108 q-81 -51 -134.5 -126.5t-61.5 -163.5q-11 -129 -6 -271l5 -325q5 -74 57 -104q51 -31 101 -1q50 29 53 135l-9 499q2 40 24 77q48 -130 143.5 -202.5t211.5 -77.5q73 -2 146.5 25t134.5 86q76 77 88 212v0q8 95 -30 183t-119 145q-82 57 -206 58q-40 0 -72.5 -5t-63.5 -12 q-7 -2 -15 -3q56 96 156 135q106 49 208 17q45 -20 72 -69l22 -40q32 -59 69 -118t84 -108t108.5 -79t144.5 -30l-1 227q-54 0 -91 30.5t-61 75t-37 88.5q-6 17 -14 33q-6 20 -16 38q-66 113 -194 149q-128 40 -257 18q-166 -29 -268.5 -127.5t-148.5 -260.5zM625 73v0 q107 -24 123 -95q16 -70 -29 -124q-42 -45 -100 -46q-59 0 -106 37q-38 31 -54 77t-4 80q13 31 59 56q45 24 111 15v0zM1317 227q29 0 56 -14.5t42.5 -42t15.5 -56.5q0 -30 -15 -57t-42 -42t-57 -15q-29 0 -56.5 15t-42 42t-14.5 57q0 29 15 56.5t42 42t56 14.5zM1317 227 q29 0 56 -14.5t42.5 -42t15.5 -56.5q0 -30 -15 -57t-42 -42t-57 -15q-29 0 -56.5 15t-42 42t-14.5 57q0 29 15 56.5t42 42t56 14.5z"/>
            <glyph glyph-name="uni0568" unicode="ﺑﻬﺌﺌﺌ" horiz-adv-x="1240"
                   d="M646 235v0q2 0 5 1q47 6 127 26t124 57q36 33 -9 74t-214 60q8 -68 -2.5 -129.5t-30.5 -88.5zM955 -10v0q74 20 136 -11.5t80 -92.5q15 -75 -27.5 -124t-94.5 -61q-103 -20 -162.5 38t-49 135.5t117.5 115.5zM736 640v0q98 -14 192 -53.5t158 -120.5q33 -43 43 -99 q13 -99 -66.5 -169t-206 -109t-254.5 -44.5t-213 25.5q-153 -75 -389 -70v227q131 -3 99 88q-35 133 29 249t211 150q108 16 162 -15q50 43 104 77q168 106 363 141q42 8 113.5 16.5t138.5 1.5t96 -45q1 -1 1 -2q2 -7 -3 -16.5t-9 -14.5q-24 -33 -57 -57l-3 -3 q-35 -28 -54.5 -39.5t-40.5 -13.5t-62 0h-11q-88 3 -182.5 -21.5t-158.5 -82.5zM440 364v0q38 63 13.5 102t-70.5 41t-74 -44q-15 -32 -9.5 -75.5t25.5 -70.5q20 -23 49.5 -13.5t65.5 60.5zM-1 227q29 0 56 -14.5t42.5 -42t15.5 -56.5q0 -30 -15 -57t-42 -42t-57 -15 q-29 0 -56.5 15t-42 42t-14.5 57q0 29 15 56.5t42 42t56 14.5z"/>
            <glyph glyph-name="uni0569" unicode="ﺑﻬﺌﺌ" horiz-adv-x="1239"
                   d="M997 429v0q-56 -85 -141.5 -136.5t-173 -74t-151.5 -23.5q-159 -136 -280 -167.5t-244 -27.5h-7v227q59 0 96.5 8.5t68.5 35.5q-158 36 -211 124.5t-23.5 190.5t119.5 180q91 74 217 103q84 97 191 164q168 105 363 141q42 8 113.5 16.5t138.5 1t97 -44.5v-2 q2 -7 -2.5 -16.5t-8.5 -15.5q-25 -32 -57 -57q-2 -1 -4 -3q-35 -27 -54.5 -39t-40.5 -14t-62 0q-5 1 -11 1q-94 3 -194 -25.5t-162 -95.5q142 -19 258.5 -77.5t177.5 -148.5q35 -56 28 -114t-41 -111zM862 118v0q74 20 136 -11.5t80 -92.5q15 -74 -27.5 -123.5t-94.5 -61.5 q-103 -20 -162.5 38t-49 135.5t117.5 115.5zM613 458v0q57 10 112.5 28.5t88.5 46.5q-39 48 -118.5 82.5t-153.5 53.5q10 -25 21 -46q17 -34 30 -71.5t20 -93.5zM149 455v0q63 -34 135 -46t165 13q13 91 -31 139.5t-108.5 54t-113.5 -34t-47 -126.5zM-1 227q29 0 56 -14.5 t42.5 -42t15.5 -56.5q0 -30 -15 -57t-42 -42t-57 -15q-29 0 -56.5 15t-42 42t-14.5 57q0 29 15 56.5t42 42t56 14.5z"/>
            <glyph glyph-name="uni0570" unicode="ﭘﻬﺌﺌﺌ" horiz-adv-x="1240"
                   d="M645 235v0q2 0 5 1q47 6 127 26t124 57q36 33 -9 74t-214 60q8 -68 -2.5 -129.5t-30.5 -88.5zM735 640v0q98 -14 192 -53.5t158 -120.5q33 -43 43 -99q13 -99 -66.5 -169t-206 -109t-254.5 -44.5t-213 25.5q-137 -56 -218 -64q-96 -6 -170 -6v227h20q110 -3 78 88 q-35 133 29 249t211 150q108 16 162 -15q50 43 104 77q168 106 363 141q42 8 113.5 16.5t138.5 1.5t96 -45q1 -1 1 -2q2 -7 -3 -16.5t-9 -14.5q-24 -33 -57 -57l-3 -3q-35 -28 -54.5 -39.5t-40.5 -13.5t-62 0h-11q-88 3 -182.5 -21.5t-158.5 -82.5zM439 364v0 q38 63 13.5 102t-70.5 41t-74 -44q-15 -32 -9.5 -75.5t25.5 -70.5q20 -23 49.5 -13.5t65.5 60.5zM588 -392v0q-4 122 57.5 215.5t159 139t199.5 23.5q110 -30 159 -118.5t-5 -195.5q-65 -107 -166 -143t-191 -28t-121 32q-61 52 -24.5 72.5t117.5 31.5q88 13 165 43 q85 43 79 94t-72 73q-83 21 -156 -13t-126 -97t-75 -129zM0 227q29 0 56 -14.5t42.5 -42t15.5 -56.5q0 -30 -15 -57t-42 -42t-57 -15q-29 0 -56.5 15t-42 42t-14.5 57q0 29 15 56.5t42 42t56 14.5z"/>
            <glyph glyph-name="uni0571" unicode="ﭘﻬﺌﺌ" horiz-adv-x="1239"
                   d="M997 429v0q-56 -85 -141.5 -136.5t-173 -74t-151.5 -23.5q-159 -136 -279 -166t-245 -29h-7v227q59 0 96.5 8.5t68.5 35.5q-158 36 -211 124.5t-23.5 190.5t119.5 180q91 74 217 103q84 97 191 164q168 105 363 141q42 8 113.5 16.5t138.5 1t97 -44.5v-2q2 -7 -2.5 -16.5 t-8.5 -15.5q-25 -32 -57 -57q-2 -1 -4 -3q-35 -27 -54.5 -39t-40.5 -14t-62 0q-5 1 -11 1q-94 3 -194 -25.5t-162 -95.5q142 -19 258.5 -77.5t177.5 -148.5q35 -56 28 -114t-41 -111zM613 458v0q57 10 112.5 28.5t88.5 46.5q-39 48 -118.5 82.5t-153.5 53.5q10 -25 21 -46 q17 -34 30 -71.5t20 -93.5zM149 455v0q63 -34 135 -46t165 13q13 91 -31 139.5t-108.5 54t-113.5 -34t-47 -126.5zM587 -286v0q-3 121 58.5 214.5t158.5 139t200 23.5q110 -29 158.5 -118t-5.5 -196q-64 -107 -165 -143t-191 -28t-121 33q-61 52 -25 72t118 32q88 12 165 42 q84 44 78.5 94.5t-71.5 72.5q-84 21 -156.5 -13t-125.5 -97t-76 -128zM0 227q29 0 56 -14.5t42.5 -42t15.5 -56.5q0 -30 -15 -57t-42 -42t-57 -15q-29 0 -56.5 15t-42 42t-14.5 57q0 29 15 56.5t42 42t56 14.5z"/>
            <glyph glyph-name="uni0572" unicode="ﺘﻤﺌ" horiz-adv-x="1222"
                   d="M724 1005v0q112 -11 165 -40t24 -59t-161 -45q-69 -8 -171 -19.5t-184 -11.5h-17q-45 -1 -72.5 9t-27.5 56q4 58 59 82.5t129 29t135 3.5q18 -1 33 0h14q37 0 35 -0.5t39 -4.5zM233 -254v0v0q-83 116 -101 254h-132v227h139q5 21 11 42q47 158 155.5 265.5t262.5 134.5 q129 22 257.5 -18.5t195.5 -160.5q9 -17 16 -38q7 -16 12 -32q22 -69 59 -128q38 -59 114 -65v-227v0q-95 -1 -156 21q-62 25 -100 65q-39 40 -63 88t-44 96q-21 58 -47 103q-26 49 -73 69q-101 32 -207.5 -17t-168.5 -154q66 38 163 40q125 -2 206.5 -59t119.5 -145 t31 -184q-13 -135 -89.5 -212t-182.5 -97.5t-209 13t-169 119.5zM546 77v0q-67 9 -112.5 -16t-58.5 -56q-13 -34 3.5 -79.5t54.5 -77.5q48 -37 106 -36.5t101 45.5q45 54 29 125t-123 95zM-1 227q29 0 56 -14.5t42.5 -42t15.5 -56.5q0 -30 -15 -57t-42 -42t-57 -15 q-29 0 -56.5 15t-42 42t-14.5 57q0 29 15 56.5t42 42t56 14.5zM1221 227q29 0 56 -14.5t42.5 -42t15.5 -56.5q0 -30 -15 -57t-42 -42t-57 -15q-29 0 -56.5 15t-42 42t-14.5 57q0 29 15 56.5t42 42t56 14.5z"/>
            <glyph glyph-name="uni0573" unicode="ﯿﻤﺌ" horiz-adv-x="1222"
                   d="M233 -254v0v0q-83 116 -101 254h-132v227h139q5 21 11 42q47 158 155.5 265.5t262.5 134.5q129 22 257.5 -18.5t195.5 -160.5q9 -17 16 -38q7 -16 12 -32q22 -69 59 -128q38 -59 114 -65v-227v0q-95 -1 -156 21q-62 25 -100 65q-39 40 -63 88t-44 96q-21 58 -47 103 q-26 49 -73 69q-101 32 -207.5 -17t-168.5 -154q66 38 163 40q125 -2 206.5 -59t119.5 -145t31 -184q-13 -135 -89.5 -212t-182.5 -97.5t-209 13t-169 119.5zM546 77v0q-67 9 -112.5 -16t-58.5 -56q-13 -34 3.5 -79.5t54.5 -77.5q48 -37 106 -36.5t101 45.5q45 54 29 125 t-123 95zM718 -507v0q112 -11 164.5 -40.5t24 -59.5t-160.5 -44q-69 -9 -171.5 -20t-183.5 -11h-18q-44 -1 -72 9t-28 56q5 57 59.5 81.5t128.5 29.5t135 3h34h13q37 1 35 0.5t40 -4.5zM-1 227q29 0 56 -14.5t42.5 -42t15.5 -56.5q0 -30 -15 -57t-42 -42t-57 -15 q-29 0 -56.5 15t-42 42t-14.5 57q0 29 15 56.5t42 42t56 14.5zM1221 227q29 0 56 -14.5t42.5 -42t15.5 -56.5q0 -30 -15 -57t-42 -42t-57 -15q-29 0 -56.5 15t-42 42t-14.5 57q0 29 15 56.5t42 42t56 14.5z"/>
            <glyph glyph-name="uni0574" unicode="ﺑﻤﺌ" horiz-adv-x="911"
                   d="M506 -166v0q74 20 136 -11.5t80 -92.5q15 -75 -27.5 -124t-94.5 -62q-103 -19 -162.5 39t-49 135.5t117.5 115.5zM412 613v0q41 77 128.5 124.5t187.5 36.5h1q9 -1 16 -2h1v0q27 -3 40 -7q13 -3 20.5 -2.5t20.5 10.5q14 11 39 33t48.5 44.5t32.5 35.5q11 16 7.5 25 t-17.5 17q-193 90 -378.5 41t-301.5 -202.5t-99 -375.5v0v-4q-14 -22 -27 -45q-25 -47 -55 -81t-76 -34v-227q87 -1 176 91q8 9 30 38q5 7 11 15q54 -103 140.5 -159.5t188.5 -60.5q73 -3 146.5 24.5t134.5 86.5q76 77 88 212v0q8 95 -30 183t-120 145q-81 57 -205 58 q-40 0 -72.5 -5t-63.5 -12q-6 -2 -12 -3zM579 400v0q107 -24 123 -95t-29 -124q-43 -45 -101 -46q-58 0 -105 36q-38 32 -55 78q-16 46 -3 80q13 31 59 56q45 24 111 15v0zM-2 227q29 0 56 -14.5t42.5 -42t15.5 -56.5q0 -30 -15 -57t-42 -42t-57 -15q-29 0 -56.5 15t-42 42 t-14.5 57q0 29 15 56.5t42 42t56 14.5zM-2 227q29 0 56 -14.5t42.5 -42t15.5 -56.5q0 -30 -15 -57t-42 -42t-57 -15q-29 0 -56.5 15t-42 42t-14.5 57q0 29 15 56.5t42 42t56 14.5z"/>
            <glyph glyph-name="uni0575" unicode="ﺗﻤﺌ" horiz-adv-x="1002"
                   d="M737 1251v0q112 -11 165 -40t24 -59t-161 -45q-69 -8 -171 -19.5t-184 -11.5h-17q-45 -1 -72.5 9t-27.5 56q4 58 59 82.5t129 29t135 3.5q18 -1 33 -1q7 1 14 1q37 0 35 -0.5t39 -4.5zM412 613v0q41 77 128.5 124.5t187.5 36.5h1q9 -1 16 -2h1v0q27 -3 40 -7 q13 -3 20.5 -2.5t20.5 10.5q14 11 39 33t48.5 44.5t32.5 35.5q11 16 7.5 25t-17.5 17q-193 90 -378.5 41t-301.5 -202.5t-99 -375.5v0v-4q-14 -22 -27 -45q-25 -47 -55 -81t-76 -34v-227q87 -1 176 91q8 9 30 38q5 7 11 15q54 -103 140.5 -159.5t188.5 -60.5 q73 -3 146.5 24.5t134.5 86.5q76 77 88 212v0q8 95 -30 183t-120 145q-81 57 -205 58q-40 0 -72.5 -5t-63.5 -12q-6 -2 -12 -3zM579 400v0q107 -24 123 -95t-29 -124q-43 -45 -101 -46q-58 0 -105 36q-38 32 -55 78q-16 46 -3 80q13 31 59 56q45 24 111 15v0zM-2 227 q29 0 56 -14.5t42.5 -42t15.5 -56.5q0 -30 -15 -57t-42 -42t-57 -15q-29 0 -56.5 15t-42 42t-14.5 57q0 29 15 56.5t42 42t56 14.5zM-2 227q29 0 56 -14.5t42.5 -42t15.5 -56.5q0 -30 -15 -57t-42 -42t-57 -15q-29 0 -56.5 15t-42 42t-14.5 57q0 29 15 56.5t42 42t56 14.5z "/>
            <glyph glyph-name="uni0576" unicode="ﭘﻤﺌ" horiz-adv-x="1000"
                   d="M261 -552v0q-4 121 57.5 214.5t159 139.5t199.5 23q110 -29 159 -118t-5 -195q-65 -108 -166 -144t-191 -28t-121 33q-61 52 -24.5 72t117.5 32q88 12 165 43q85 43 79 94t-72 72q-83 21 -156 -13t-126 -97t-75 -128zM412 613v0q41 77 128.5 124.5t187.5 36.5h1 q9 -1 16 -2h1v0q27 -3 40 -7q13 -3 20.5 -2.5t20.5 10.5q14 11 39 33t48.5 44.5t32.5 35.5q11 16 7.5 25t-17.5 17q-193 90 -378.5 41t-301.5 -202.5t-99 -375.5v0v-4q-14 -22 -27 -45q-25 -47 -55 -81t-76 -34v-227q87 -1 176 91q8 9 30 38q5 7 11 15q54 -103 140.5 -159.5 t188.5 -60.5q73 -3 146.5 24.5t134.5 86.5q76 77 88 212v0q8 95 -30 183t-120 145q-81 57 -205 58q-40 0 -72.5 -5t-63.5 -12q-6 -2 -12 -3zM579 400v0q107 -24 123 -95t-29 -124q-43 -45 -101 -46q-58 0 -105 36q-38 32 -55 78q-16 46 -3 80q13 31 59 56q45 24 111 15v0z M-2 227q29 0 56 -14.5t42.5 -42t15.5 -56.5q0 -30 -15 -57t-42 -42t-57 -15q-29 0 -56.5 15t-42 42t-14.5 57q0 29 15 56.5t42 42t56 14.5zM-2 227q29 0 56 -14.5t42.5 -42t15.5 -56.5q0 -30 -15 -57t-42 -42t-57 -15q-29 0 -56.5 15t-42 42t-14.5 57q0 29 15 56.5t42 42 t56 14.5z"/>
            <glyph glyph-name="uni0577" unicode="ﺣﻤﺌ" horiz-adv-x="1539"
                   d="M349 477v0q28 6 58.5 10.5t67.5 4.5q124 -1 206 -58q81 -57 119 -145t30 -183v0q-12 -135 -88 -212q-61 -59 -134.5 -86.5t-146.5 -24.5q-111 5 -202.5 70.5t-142.5 185.5q-58 -39 -116 -39v227h12q33 0 61 17q-3 112 27 207q64 158 225 267.5t379 129.5q-52 69 -195 138 q-85 42 -158 29t-119 -103l-10 -22q-8 -17 -16 -33q-38 -69 -78 -70.5t-57 80.5q-12 80 38.5 159t138 131.5t185.5 53.5q73 -2 137 -28.5t129 -63.5q72 -41 160 -77t207 -50q37 -3 77 -4q81 -1 149 -17.5t92 -82.5q25 -84 -6.5 -125.5t-94.5 -53.5t-132 -8 q-117 6 -282 -12.5t-311.5 -69t-208.5 -142.5zM351 222v0q-19 -16 -27 -34q-12 -34 4 -80t54 -78q47 -36 106 -36q58 1 100 46q45 53 29 124t-123 95v0q-37 5 -67 0q-37 -10 -76 -37zM0 227q29 0 56 -14.5t42.5 -42t15.5 -56.5q0 -30 -15 -57t-42 -42t-57 -15 q-29 0 -56.5 15t-42 42t-14.5 57q0 29 15 56.5t42 42t56 14.5z"/>
            <glyph glyph-name="uni0578" unicode="ﺟﻤﺌ" horiz-adv-x="1539"
                   d="M349 477v0q28 6 58.5 10.5t67.5 4.5q124 -1 206 -58q81 -57 119 -145t30 -183v0q-12 -135 -88 -212q-61 -59 -134.5 -86.5t-146.5 -24.5q-111 5 -202.5 70.5t-142.5 185.5q-58 -39 -116 -39v227h12q33 0 61 17q-3 112 27 207q64 158 225 267.5t379 129.5q-52 69 -195 138 q-85 42 -158 29t-119 -103l-10 -22q-8 -17 -16 -33q-38 -69 -78 -70.5t-57 80.5q-12 80 38.5 159t138 131.5t185.5 53.5q73 -2 137 -28.5t129 -63.5q72 -41 160 -77t207 -50q37 -3 77 -4q81 -1 149 -17.5t92 -82.5q25 -84 -6.5 -125.5t-94.5 -53.5t-132 -8 q-117 6 -282 -12.5t-311.5 -69t-208.5 -142.5zM351 222v0q-19 -16 -27 -34q-12 -34 4 -80t54 -78q47 -36 106 -36q58 1 100 46q45 53 29 124t-123 95v0q-37 5 -67 0q-37 -10 -76 -37zM1027 438v0q74 20 136 -11.5t80 -92.5q15 -75 -27.5 -124t-94.5 -61q-102 -20 -162 38 t-49.5 135.5t117.5 115.5zM0 227q29 0 56 -14.5t42.5 -42t15.5 -56.5q0 -30 -15 -57t-42 -42t-57 -15q-29 0 -56.5 15t-42 42t-14.5 57q0 29 15 56.5t42 42t56 14.5z"/>
            <glyph glyph-name="uni0579" unicode="ﺧﻤﺌ" horiz-adv-x="1539"
                   d="M314 1600v0q74 20 136 -11.5t80 -92.5q15 -75 -27.5 -124t-94.5 -61q-103 -20 -162.5 38t-49 135.5t117.5 115.5zM349 477v0q28 6 58.5 10.5t67.5 4.5q124 -1 206 -58q81 -57 119 -145t30 -183v0q-12 -135 -88 -212q-61 -59 -134.5 -86.5t-146.5 -24.5 q-111 5 -202.5 70.5t-142.5 185.5q-58 -39 -116 -39v227h12q33 0 61 17q-3 112 27 207q64 158 225 267.5t379 129.5q-52 69 -195 138q-85 42 -158 29t-119 -103l-10 -22q-8 -17 -16 -33q-38 -69 -78 -70.5t-57 80.5q-12 80 38.5 159t138 131.5t185.5 53.5q73 -2 137 -28.5 t129 -63.5q72 -41 160 -77t207 -50q37 -3 77 -4q81 -1 149 -17.5t92 -82.5q25 -84 -6.5 -125.5t-94.5 -53.5t-132 -8q-117 6 -282 -12.5t-311.5 -69t-208.5 -142.5zM351 222v0q-19 -16 -27 -34q-12 -34 4 -80t54 -78q47 -36 106 -36q58 1 100 46q45 53 29 124t-123 95v0 q-37 5 -67 0q-37 -10 -76 -37zM0 227q29 0 56 -14.5t42.5 -42t15.5 -56.5q0 -30 -15 -57t-42 -42t-57 -15q-29 0 -56.5 15t-42 42t-14.5 57q0 29 15 56.5t42 42t56 14.5z"/>
            <glyph glyph-name="uni0580" unicode="ﭼﻤﺌ" horiz-adv-x="1539"
                   d="M864 143v0q-4 121 58 214.5t159 139.5t199 23q110 -29 159 -117.5t-5 -195.5q-65 -108 -166 -144t-190.5 -28t-121.5 33q-61 52 -24.5 72t117.5 32q88 12 165 43q85 43 79 94t-72 72q-83 21 -156 -13t-125.5 -97t-75.5 -128zM349 477v0q28 6 58.5 10.5t67.5 4.5 q124 -1 206 -58q81 -57 119 -145t30 -183v0q-12 -135 -88 -212q-61 -59 -134.5 -86.5t-146.5 -24.5q-111 5 -202.5 70.5t-142.5 185.5q-58 -39 -116 -39v227h12q33 0 61 17q-3 112 27 207q64 158 225 267.5t379 129.5q-52 69 -195 138q-85 42 -158 29t-119 -103l-10 -22 q-8 -17 -16 -33q-38 -69 -78 -70.5t-57 80.5q-12 80 38.5 159t138 131.5t185.5 53.5q73 -2 137 -28.5t129 -63.5q72 -41 160 -77t207 -50q37 -3 77 -4q81 -1 149 -17.5t92 -82.5q25 -84 -6.5 -125.5t-94.5 -53.5t-132 -8q-117 6 -282 -12.5t-311.5 -69t-208.5 -142.5z M351 222v0q-19 -16 -27 -34q-12 -34 4 -80t54 -78q47 -36 106 -36q58 1 100 46q45 53 29 124t-123 95v0q-37 5 -67 0q-37 -10 -76 -37zM0 227q29 0 56 -14.5t42.5 -42t15.5 -56.5q0 -30 -15 -57t-42 -42t-57 -15q-29 0 -56.5 15t-42 42t-14.5 57q0 29 15 56.5t42 42t56 14.5 z"/>
            <glyph glyph-name="uni0581" unicode="ﻧﻤﺌ" horiz-adv-x="1003"
                   d="M471 1390v0q74 20 136 -11.5t80 -92.5q15 -75 -27.5 -124t-94.5 -61q-103 -20 -162.5 38t-49 135.5t117.5 115.5zM412 613v0q41 77 128.5 124.5t187.5 36.5h1q9 -1 16 -2h1v0q27 -3 40 -7q13 -3 20.5 -2.5t20.5 10.5q14 11 39 33t48.5 44.5t32.5 35.5q11 16 7.5 25 t-17.5 17q-193 90 -378.5 41t-301.5 -202.5t-99 -375.5v0v-4q-14 -22 -27 -45q-25 -47 -55 -81t-76 -34v-227q87 -1 176 91q8 9 30 38q5 7 11 15q54 -103 140.5 -159.5t188.5 -60.5q73 -3 146.5 24.5t134.5 86.5q76 77 88 212v0q8 95 -30 183t-120 145q-81 57 -205 58 q-40 0 -72.5 -5t-63.5 -12q-6 -2 -12 -3zM579 400v0q107 -24 123 -95t-29 -124q-43 -45 -101 -46q-58 0 -105 36q-38 32 -55 78q-16 46 -3 80q13 31 59 56q45 24 111 15v0zM-2 227q29 0 56 -14.5t42.5 -42t15.5 -56.5q0 -30 -15 -57t-42 -42t-57 -15q-29 0 -56.5 15t-42 42 t-14.5 57q0 29 15 56.5t42 42t56 14.5zM-2 227q29 0 56 -14.5t42.5 -42t15.5 -56.5q0 -30 -15 -57t-42 -42t-57 -15q-29 0 -56.5 15t-42 42t-14.5 57q0 29 15 56.5t42 42t56 14.5z"/>
            <glyph glyph-name="uni0582" unicode="ﻫﻤﺌ" horiz-adv-x="1300"
                   d="M854 625v0q-92 -13 -195.5 -44.5t-186.5 -89.5q118 -8 194.5 -65.5t112 -143.5t28.5 -179q-18 -169 -129.5 -247t-250 -69t-237.5 102q-62 63 -83 149q-49 -30 -107 -38v227q55 0 82.5 37.5t47.5 92.5q13 31 28 62v0q81 164 263 268q-144 15 -205 92.5t-51.5 176.5 t78.5 182t186 110q-31 21 -57 40q-17 12 -35 24q-30 22 -26.5 44t57.5 17q162 -23 319 -69q111 -31 220 -72q94 -34 182 -83q65 -36 114.5 -93.5t47.5 -135.5q-8 -84 -69.5 -145t-150 -98.5t-177.5 -51.5zM470 257v0q-66 10 -111.5 -15.5t-58.5 -55.5q-13 -34 3.5 -80 t54.5 -78q47 -37 105.5 -36.5t100.5 45.5q45 54 29 125t-123 95zM721 1102v0q85 -135 75 -253l24 5q187 40 206 83t-72 85.5t-233 79.5zM418 1057v0q-76 -41 -86.5 -94t35 -91.5t136.5 -36.5q49 3 66 37.5t10 91.5q-6 62 -44.5 95.5t-116.5 -2.5zM3 227q29 0 56 -14.5 t42.5 -42t15.5 -56.5q0 -30 -15 -57t-42 -42t-57 -15q-29 0 -56.5 15t-42 42t-14.5 57q0 29 15 56.5t42 42t56 14.5z"/>
            <glyph glyph-name="uni0583" unicode="ﯾﻤﺌ" horiz-adv-x="1001"
                   d="M657 -145v0q112 -11 165 -40.5t24 -59.5t-161 -44q-69 -9 -171 -20t-184 -11h-17q-45 -1 -73 9t-27 56q4 57 59 81.5t129 29.5t135 3h33h14q37 1 34.5 0.5t39.5 -4.5zM412 613v0q41 77 128.5 124.5t187.5 36.5h1q9 -1 16 -2h1v0q27 -3 40 -7q13 -3 20.5 -2.5t20.5 10.5 q14 11 39 33t48.5 44.5t32.5 35.5q11 16 7.5 25t-17.5 17q-193 90 -378.5 41t-301.5 -202.5t-99 -375.5v0v-4q-14 -22 -27 -45q-25 -47 -55 -81t-76 -34v-227q87 -1 176 91q8 9 30 38q5 7 11 15q54 -103 140.5 -159.5t188.5 -60.5q73 -3 146.5 24.5t134.5 86.5q76 77 88 212 v0q8 95 -30 183t-120 145q-81 57 -205 58q-40 0 -72.5 -5t-63.5 -12q-6 -2 -12 -3zM579 400v0q107 -24 123 -95t-29 -124q-43 -45 -101 -46q-58 0 -105 36q-38 32 -55 78q-16 46 -3 80q13 31 59 56q45 24 111 15v0zM-2 227q29 0 56 -14.5t42.5 -42t15.5 -56.5q0 -30 -15 -57 t-42 -42t-57 -15q-29 0 -56.5 15t-42 42t-14.5 57q0 29 15 56.5t42 42t56 14.5zM-2 227q29 0 56 -14.5t42.5 -42t15.5 -56.5q0 -30 -15 -57t-42 -42t-57 -15q-29 0 -56.5 15t-42 42t-14.5 57q0 29 15 56.5t42 42t56 14.5z"/>
            <glyph glyph-name="uni0584" unicode="ﺷﻤﺌ" horiz-adv-x="2055"
                   d="M161 392v0q-2 108 26 200q39 134 115 226q83 97 206.5 140.5t250 23t219.5 -113.5q48 -57 86 -132q37 -74 83.5 -129.5t122.5 -58.5v0v0h1h2v-1h3q45 -1 79 50q25 47 28 107q3 42 13 77t41 55q42 25 87 13q44 -13 63 -59q5 -23 10 -87q3 -67 14 -121q3 -18 8 -24 q5 -8 12 -10q27 -6 46 38q18 44 29 106t17 105q1 10 3 18q1 8 2 14q14 69 55 97q41 26 86 8q45 -19 72 -84q27 -81 16 -169q-10 -89 -46 -166q-42 -93 -113 -147t-156 -51t-167 82q-88 -76 -187 -78h-12v0h-2h-4v0q-107 3 -181 53.5t-125.5 126.5t-93.5 155l-22 40 q-51 81 -142.5 82t-176.5 -48.5t-117 -117.5q7 2 15 4q31 7 63.5 12t72.5 5q124 -1 205 -58q82 -57 120 -145t30 -183v0q-12 -135 -88 -212q-61 -59 -134.5 -86.5t-146.5 -24.5q-103 4 -189.5 61t-140.5 161q-7 -9 -13 -17q-22 -29 -30 -38q-96 -93 -176 -91v227 q46 -1 75.5 33t55.5 81q14 26 30 51zM582 400v0v0q-66 9 -111 -15q-46 -25 -59 -56q-13 -34 3 -80q17 -46 55 -78q47 -36 105 -36q58 1 101 46q45 53 29 124t-123 95zM1133 1104v0q-4 121 57.5 215t159 139.5t199.5 22.5q110 -29 159 -117.5t-5 -195.5q-65 -107 -166 -143.5 t-191 -28.5t-121 33q-61 52 -24.5 72t117.5 32q88 12 165 43q85 43 79 94t-72 72q-83 22 -156 -12t-126 -97t-75 -129zM0 227q29 0 56 -14.5t42.5 -42t15.5 -56.5q0 -30 -15 -57t-42 -42t-57 -15q-29 0 -56.5 15t-42 42t-14.5 57q0 29 15 56.5t42 42t56 14.5z"/>
            <glyph glyph-name="uni0585" unicode="ﻨﻢءء" horiz-adv-x="1318"
                   d="M738 1106v0q74 20 136 -11.5t80 -92.5q15 -74 -27.5 -123t-94.5 -62q-103 -20 -162.5 38.5t-49 135.5t117.5 115zM231 271v0q-16 -50 -23 -108q-81 -51 -134.5 -126.5t-61.5 -163.5q-11 -129 -6 -271l5 -325q5 -74 57 -104q51 -31 101 -1q50 29 53 135l-9 499q2 40 24 77 q48 -130 143.5 -202.5t211.5 -77.5q73 -2 146.5 25t134.5 86q76 77 88 212v0q8 95 -30 183t-119 145q-82 57 -206 58q-40 0 -72.5 -5t-63.5 -12q-7 -2 -15 -3q56 96 156 135q106 49 208 17q45 -20 72 -69l22 -40q32 -59 69 -118t84 -108t108.5 -79t144.5 -30l-1 227 q-54 0 -91 30.5t-61 75t-37 88.5q-6 17 -14 33q-6 20 -16 38q-66 113 -194 149q-128 40 -257 18q-166 -29 -268.5 -127.5t-148.5 -260.5zM625 73v0q107 -24 123 -95q16 -70 -29 -124q-42 -45 -100 -46q-59 0 -106 37q-38 31 -54 77t-4 80q13 31 59 56q45 24 111 15v0z M1317 227q29 0 56 -14.5t42.5 -42t15.5 -56.5q0 -30 -15 -57t-42 -42t-57 -15q-29 0 -56.5 15t-42 42t-14.5 57q0 29 15 56.5t42 42t56 14.5zM1317 227q29 0 56 -14.5t42.5 -42t15.5 -56.5q0 -30 -15 -57t-42 -42t-57 -15q-29 0 -56.5 15t-42 42t-14.5 57q0 29 15 56.5 t42 42t56 14.5z"/>
            <glyph glyph-name="uni0586" unicode="ﺑﻢءء" horiz-adv-x="1138"
                   d="M850 -251v0q75 20 137 -11.5t80 -92.5q15 -74 -28 -123t-95 -62q-102 -20 -161.5 38.5t-49.5 135.5t117 115zM267 28q-23 -38 -25 -77l10 -499q-3 -107 -53 -136t-101 1q-52 31 -58 104l-4 325q-6 143 5 272q8 86 59.5 160t131.5 126q14 195 133.5 326t294 168.5 t353.5 -46.5q14 -8 17.5 -17.5t-7.5 -24.5q-9 -13 -32.5 -35.5t-48.5 -44.5t-39 -33q-13 -10 -21 -11t-20 3q-13 3 -40 7v0h-1q-7 0 -16 2h-1q-100 11 -187.5 -36.5t-128.5 -124.5l12 2q31 7 63.5 12.5t72.5 5.5q124 -1 205 -58q82 -58 120 -145q38 -88 30 -183v0 q-12 -135 -88 -212q-61 -60 -134.5 -87t-146.5 -24q-117 5 -212 77t-143 203v0zM655 224v0q-66 9 -112 -16q-45 -25 -58 -56q-13 -33 3 -79q17 -46 55 -78q47 -37 105 -36q58 0 101 45q45 54 29 125q-16 70 -123 95v0z"/>
            <glyph glyph-name="uni0587" unicode="ﻫﻢءء" horiz-adv-x="1300"
                   d="M881 622v0q-86 -11 -182.5 -42t-164.5 -91q43 10 99 10q125 -1 206 -58q82 -57 120 -145t30 -183v0q-12 -135 -89 -212q-61 -59 -134 -86t-147 -25q-116 5 -211 77.5t-143 202.5q-23 -37 -25 -77l10 -499q-4 -106 -53 -135q-50 -30 -102 1q-51 30 -57 104l-4 325 q-6 142 5 271q8 88 61.5 163t134.5 127q18 98 75 192t138 142q-144 16 -205.5 93t-51.5 176.5t79 182t185 109.5q-31 21 -57 40q-17 12 -34 25q-30 21 -26.5 43t56.5 17q162 -23 319 -69q112 -31 220 -71q95 -35 182 -84q65 -35 115 -92.5t48 -136.5q-8 -84 -69.5 -145 t-150 -98.5t-177.5 -51.5zM653 266v0v0q-66 9 -112 -15q-45 -25 -59 -56q-12 -34 4 -80q17 -46 54 -77q48 -37 106 -37q58 1 101 46q44 54 28 124q-16 71 -122 95zM747 1099v0q86 -135 75 -253l25 5q186 40 205 83.5t-71.5 85.5t-233.5 79zM445 1054v0q-76 -41 -86.5 -94 t34.5 -91.5t136 -36.5q49 3 66.5 37.5t10.5 91.5q-7 62 -45.5 96t-115.5 -3z"/>
            <glyph glyph-name="uni0588" unicode="ﺋﯽءءءء" horiz-adv-x="1500"
                   d="M1189 19v0q59 -26 123 -36q27 -5 54 -12q81 -21 146 -53q57 -24 92 -61q87 -101 38.5 -195.5t-190.5 -168.5t-335.5 -114.5t-395.5 -33t-371 76t-263 212.5q-56 92 -60.5 221.5t56.5 239.5q93 148 259.5 231.5t312.5 90.5q91 2 135 -20.5t21.5 -56.5t-130.5 -64 q-37 -9 -81 -26q-188 -75 -272.5 -199t-50 -246t206 -191t494.5 -34q149 17 279 58q165 56 186.5 96.5t-53.5 69.5t-200 51q-127 21 -237 30q-81 7 -154 17q-64 12 -82 46t5 66.5t85 39.5q100 11 192.5 68t142.5 146t22 195q-30 107 -9 146t65.5 23t85 -73.5t50.5 -144.5 q12 -120 -28.5 -225.5t-138.5 -169.5zM835 682q-13 -14 -33 -21.5t-37 -3t-21 28.5q-2 21 13 50q22 40 53.5 62.5t66.5 38.5q-49 52 -35 126.5t97 103.5q71 15 109 -15.5t25 -66.5q-6 -13 -12 -15t-15 0q-9 3 -24.5 3.5t-41.5 -6.5q-39 -13 -48.5 -39.5t12 -42.5t72.5 3 l52 22q40 13 70.5 -8.5t23.5 -54.5t-80 -55l-16 -4q-61 -14 -123.5 -38t-107.5 -68v0z"/>
            <glyph glyph-name="uni0589" unicode="ﮐﻞء" horiz-adv-x="2100"
                   d="M1424 544v0l-3 -162q6 -94 58.5 -135t122.5 -40t128.5 31.5t76.5 78.5q9 35 4 69q-16 86 -81.5 121t-149.5 39t-156 -2zM1817 666v0q89 -44 136 -131.5t32 -223.5q-14 -105 -86.5 -187t-186.5 -113q-182 -43 -308 24q-25 -110 -83 -205q-114 -182 -291 -263.5t-369 -64.5 t-351.5 131t-239.5 323q-53 158 -14 313t142.5 275t243.5 173q53 20 117.5 19t80.5 -53q5 -34 -26.5 -65.5t-82.5 -68.5q-72 -51 -143 -126t-94 -191q-29 -216 96.5 -360t342.5 -142q111 6 220.5 63t182.5 151.5t72 210.5v604v501q2 81 33.5 116.5t73 33.5t74 -34.5 t32.5 -87.5v-267q3 -20 3 -44l-3 -191l5 1l9 1l8 1l9 1l6 1q38 5 77 12h2q7 1 15 3h2q7 1 15 3h2q8 2 15 3l3 1l14 2l4 1l14 3l3 1q68 14 137 34h1q8 2 16 5h2q8 3 16 5l2 1q8 2 16 5h1q9 3 17 6h1q178 57 340 162t280 272q9 13 24 27.5t32 19.5h1v0q8 2 16 -1q13 -5 20 -18 t9 -26q7 -56 -15 -109q-40 -102 -109 -179q-100 -111 -259.5 -202t-354.5 -156z"/>
            <glyph glyph-name="uni0590" unicode="ﮔﻞء" horiz-adv-x="2099"
                   d="M1421 544v0l-2 -162q6 -94 58.5 -135t122 -40t128 31.5t76.5 78.5q10 35 5 69q-17 86 -82.5 121t-149.5 39t-156 -2zM1815 666v0q89 -44 135.5 -131.5t32.5 -223.5q-14 -105 -87 -187t-187 -113q-182 -43 -308 24q-25 -110 -82 -205q-115 -182 -291.5 -263.5t-369 -64.5 t-352 131t-238.5 323q-53 158 -14.5 313t142 275t244.5 173q53 20 117.5 19t80.5 -53q5 -34 -26.5 -65.5t-82.5 -68.5q-73 -51 -143.5 -126t-93.5 -191q-29 -216 96 -360t343 -142q110 6 220 63t182.5 151.5t72.5 210.5v604v501q1 81 32.5 116.5t73 33.5t74 -34.5 t32.5 -87.5v-267q4 -20 3 -44l-2 -191l5 1l9 1l7 1l10 1l5 1q38 5 78 12h1q8 1 15 3h2q8 1 15 3h3q7 2 15 3l2 1l14 2l5 1l13 3l3 1q68 14 137 34h2q8 2 15 5h3q8 3 15 5l3 1q8 2 16 5h1q8 3 17 6v0q179 57 341 162t280 272q8 13 23 27.5t33 19.5h1v0q8 2 16 -1 q13 -5 19.5 -18t9.5 -26q7 -56 -16 -109q-39 -102 -109 -179q-99 -111 -258.5 -202t-354.5 -156zM2237 1349v0q65 41 88.5 32.5t16 -44.5t-36.5 -75q-29 -37 -67 -69t-67 -53q-3 -2 -5 -3q-50 -38 -153 -99t-208 -97t-162 0q-55 47 -37.5 101t89.5 70q125 21 224.5 64.5 t212.5 105.5q47 27 95 60q5 3 10 7z"/>
            <glyph glyph-name="uni0591" unicode="ﮑﻞء" horiz-adv-x="2100"
                   d="M69 -37v0q-53 158 -14 313t142.5 274.5t243.5 172.5q53 20 117.5 19.5t80.5 -53.5q5 -33 -26.5 -65t-82.5 -69q-73 -50 -143.5 -125t-93.5 -191q-29 -217 96 -360.5t343 -141.5q110 6 220 63t182.5 151t72.5 210v604v502q1 80 32.5 116t73.5 34t74.5 -35t32.5 -87v-252 q1 -15 1 -32l-1 -218q173 20 364 75t366.5 162.5t301.5 286.5q11 17 31 34.5t42 11.5q13 -5 20 -18t9 -26q7 -56 -15 -109q-40 -102 -110 -179q-97 -109 -252 -199t-345 -154q70 -44 112 -116.5t44 -175.5q0 -19 -2 -35q-3 -24 0.5 -46t24.5 -45q24 -33 89 -33v-227 q-72 -3 -135.5 20.5t-100.5 77.5q-65 -57 -154 -81q-181 -42 -307 24q-25 -109 -83 -205q-114 -181 -291 -262.5t-369 -64.5t-351.5 131t-239.5 323zM1420 387v0q7 -93 59.5 -133.5t122 -39.5t127.5 31.5t76 78.5q10 35 5 69q-17 86 -82.5 127.5t-149.5 52.5t-156 5l-2 -181 v-10zM2100 227q29 0 56 -14.5t42.5 -42t15.5 -56.5q0 -30 -15 -57t-42 -42t-57 -15q-29 0 -56.5 15t-42 42t-14.5 57q0 29 15 56.5t42 42t56 14.5z"/>
            <glyph glyph-name="uni0592" unicode="ﮕﻞء" horiz-adv-x="2100"
                   d="M69 -37v0q-53 158 -14 313t142.5 274.5t243.5 172.5q53 20 117.5 19.5t80.5 -53.5q5 -33 -26.5 -65t-82.5 -69q-73 -50 -143.5 -125t-93.5 -191q-29 -217 96 -360.5t343 -141.5q110 6 220 63t182.5 151t72.5 210v604v502q1 80 32.5 116t73.5 34t74.5 -35t32.5 -87v-252 q1 -15 1 -32l-1 -218q173 20 364 75t366.5 162.5t301.5 286.5q11 17 31 34.5t42 11.5q13 -5 20 -18t9 -26q7 -56 -15 -109q-40 -102 -110 -179q-97 -109 -252 -199t-345 -154q70 -44 112 -116.5t44 -175.5q0 -19 -2 -35q-3 -24 0.5 -46t24.5 -45q24 -33 89 -33l1 -227 q-73 -3 -136.5 20.5t-100.5 77.5q-65 -57 -154 -81q-181 -42 -307 24q-25 -109 -83 -205q-114 -181 -291 -262.5t-369 -64.5t-351.5 131t-239.5 323zM1420 387v0q7 -93 59.5 -133.5t122 -39.5t127.5 31.5t76 78.5q10 35 5 69q-17 86 -82.5 127.5t-149.5 52.5t-156 5l-2 -181 v-10zM2238 1355v0q65 42 88.5 33t16 -44.5t-35.5 -74.5q-29 -38 -67.5 -69.5t-67.5 -52.5q-2 -2 -5 -4q-50 -38 -152.5 -98.5t-207.5 -96.5t-162 -1q-56 47 -38.5 101.5t89.5 70.5q125 21 224.5 64t212.5 106q47 27 95 59q5 4 10 7zM2099 227q29 0 56 -14.5t42.5 -42 t15.5 -56.5q0 -30 -15 -57t-42 -42t-57 -15q-29 0 -56.5 15t-42 42t-14.5 57q0 29 15 56.5t42 42t56 14.5z"/>
            <glyph glyph-name="uni0593" unicode="ﻧﻢءء" horiz-adv-x="1102"
                   d="M598 1282v0q74 20 136 -11.5t80 -92.5q15 -74 -27.5 -123t-94.5 -62q-103 -20 -162.5 38.5t-49 135.5t117.5 115zM267 28q-23 -38 -25 -77l10 -499q-3 -107 -53 -136t-101 1q-52 31 -58 104l-4 325q-6 143 5 272q8 86 59.5 160t131.5 126q14 195 133.5 326t294 168.5 t353.5 -46.5q14 -8 17.5 -17.5t-7.5 -24.5q-9 -13 -32.5 -35.5t-48.5 -44.5t-39 -33q-13 -10 -21 -11t-20 3q-13 3 -40 7v0h-1q-7 0 -16 2h-1q-100 11 -187.5 -36.5t-128.5 -124.5l12 2q31 7 63.5 12.5t72.5 5.5q124 -1 205 -58q82 -58 120 -145q38 -88 30 -183v0 q-12 -135 -88 -212q-61 -60 -134.5 -87t-146.5 -24q-117 5 -212 77t-143 203v0zM655 224v0q-66 9 -112 -16q-45 -25 -58 -56q-13 -33 3 -79q17 -46 55 -78q47 -37 105 -36q58 0 101 45q45 54 29 125q-16 70 -123 95v0z"/>
            <glyph glyph-name="uni0594" unicode="ﭘﻢءء" horiz-adv-x="1100"
                   d="M432 -702v0q-3 122 58.5 215.5t158.5 139t200 23.5q110 -29 158.5 -118t-5.5 -196q-64 -107 -165 -143t-191 -28t-121 32q-61 52 -24.5 72.5t117.5 32.5q88 12 165 42q84 43 78.5 94t-71.5 73q-84 21 -156.5 -13t-125.5 -97t-76 -129zM267 28q-23 -38 -25 -77l10 -499 q-3 -107 -53 -136t-101 1q-52 31 -58 104l-4 325q-6 143 5 272q8 86 59.5 160t131.5 126q14 195 133.5 326t294 168.5t353.5 -46.5q14 -8 17.5 -17.5t-7.5 -24.5q-9 -13 -32.5 -35.5t-48.5 -44.5t-39 -33q-13 -10 -21 -11t-20 3q-13 3 -40 7v0h-1q-7 0 -16 2h-1 q-100 11 -187.5 -36.5t-128.5 -124.5l12 2q31 7 63.5 12.5t72.5 5.5q124 -1 205 -58q82 -58 120 -145q38 -88 30 -183v0q-12 -135 -88 -212q-61 -60 -134.5 -87t-146.5 -24q-117 5 -212 77t-143 203v0zM655 224v0q-66 9 -112 -16q-45 -25 -58 -56q-13 -33 3 -79 q17 -46 55 -78q47 -37 105 -36q58 0 101 45q45 54 29 125q-16 70 -123 95v0z"/>
            <glyph glyph-name="uni0595" unicode="ﺗﻢءء" horiz-adv-x="1099"
                   d="M267 28q-23 -38 -25 -77l10 -499q-3 -107 -53 -136t-101 1q-52 31 -58 104l-4 325q-6 143 5 272q8 86 59.5 160t131.5 126q14 195 133.5 326t294 168.5t353.5 -46.5q14 -8 17.5 -17.5t-7.5 -24.5q-9 -13 -32.5 -35.5t-48.5 -44.5t-39 -33q-13 -10 -21 -11t-20 3 q-13 3 -40 7v0h-1q-7 0 -16 2h-1q-100 11 -187.5 -36.5t-128.5 -124.5l12 2q31 7 63.5 12.5t72.5 5.5q124 -1 205 -58q82 -58 120 -145q38 -88 30 -183v0q-12 -135 -88 -212q-61 -60 -134.5 -87t-146.5 -24q-117 5 -212 77t-143 203v0zM655 224v0q-66 9 -112 -16 q-45 -25 -58 -56q-13 -33 3 -79q17 -46 55 -78q47 -37 105 -36q58 0 101 45q45 54 29 125q-16 70 -123 95v0zM820 1078v0q112 -12 164.5 -41t24 -59t-160.5 -44q-69 -9 -171 -20.5t-184 -10.5h-17q-45 -2 -73 8.5t-27 56.5q4 57 59 81.5t128.5 29.5t135.5 3h33h13 q38 0 35.5 -0.5t39.5 -3.5z"/>
            <glyph glyph-name="uni0596" unicode="ﯾﻢءء" horiz-adv-x="1100"
                   d="M267 28q-23 -38 -25 -77l10 -499q-3 -107 -53 -136t-101 1q-52 31 -58 104l-4 325q-6 143 5 272q8 86 59.5 160t131.5 126q14 195 133.5 326t294 168.5t353.5 -46.5q14 -8 17.5 -17.5t-7.5 -24.5q-9 -13 -32.5 -35.5t-48.5 -44.5t-39 -33q-13 -10 -21 -11t-20 3 q-13 3 -40 7v0h-1q-7 0 -16 2h-1q-100 11 -187.5 -36.5t-128.5 -124.5l12 2q31 7 63.5 12.5t72.5 5.5q124 -1 205 -58q82 -58 120 -145q38 -88 30 -183v0q-12 -135 -88 -212q-61 -60 -134.5 -87t-146.5 -24q-117 5 -212 77t-143 203v0zM655 224v0q-66 9 -112 -16 q-45 -25 -58 -56q-13 -33 3 -79q17 -46 55 -78q47 -37 105 -36q58 0 101 45q45 54 29 125q-16 70 -123 95v0zM830 -319v0q112 -12 165 -41t24 -59t-161 -44q-69 -9 -171 -20.5t-184 -10.5h-17q-45 -2 -72.5 8.5t-27.5 55.5q4 58 59 82.5t129 29.5t135 3h33h14q37 0 35 -0.5 t39 -3.5z"/>
            <glyph glyph-name="uni0597" unicode="ﺋﻢءء" horiz-adv-x="1098"
                   d="M450 885q-13 -13 -33.5 -21t-37 -3t-20.5 29q-3 21 12 50q22 40 54 62.5t67 38.5q-49 52 -35 126.5t96 103.5q72 15 110 -15.5t25 -66.5q-7 -14 -12.5 -16t-14.5 1q-9 2 -24.5 3t-41.5 -6q-39 -13 -48.5 -40t11.5 -42.5t73 3.5l52 21q40 13 70.5 -8t23.5 -54t-80 -55 l-16 -4q-62 -15 -124 -38.5t-107 -68.5v0zM267 28q-23 -38 -25 -77l10 -499q-3 -107 -53 -136t-101 1q-52 31 -58 104l-4 325q-6 143 5 272q8 86 59.5 160t131.5 126q14 195 133.5 326t294 168.5t353.5 -46.5q14 -8 17.5 -17.5t-7.5 -24.5q-9 -13 -32.5 -35.5t-48.5 -44.5 t-39 -33q-13 -10 -21 -11t-20 3q-13 3 -40 7v0h-1q-7 0 -16 2h-1q-100 11 -187.5 -36.5t-128.5 -124.5l12 2q31 7 63.5 12.5t72.5 5.5q124 -1 205 -58q82 -58 120 -145q38 -88 30 -183v0q-12 -135 -88 -212q-61 -60 -134.5 -87t-146.5 -24q-117 5 -212 77t-143 203v0z M655 224v0q-66 9 -112 -16q-45 -25 -58 -56q-13 -33 3 -79q17 -46 55 -78q47 -37 105 -36q58 0 101 45q45 54 29 125q-16 70 -123 95v0z"/>
            <glyph glyph-name="uni0598" unicode="ﺜﻢءء" horiz-adv-x="1318"
                   d="M334 904v0q-3 121 58.5 214.5t158.5 139t200 23.5q110 -29 158.5 -118t-4.5 -196q-65 -107 -166 -143t-191 -28t-121 33q-61 52 -24.5 72t117.5 32q88 12 165 42q84 44 78.5 94.5t-71.5 72.5q-83 21 -156 -13t-126 -97t-76 -128zM231 271v0q-16 -50 -23 -108 q-81 -51 -134.5 -126.5t-61.5 -163.5q-11 -129 -6 -271l5 -325q5 -74 57 -104q51 -31 101 -1q50 29 53 135l-9 499q2 40 24 77q48 -130 143.5 -202.5t211.5 -77.5q73 -2 146.5 25t134.5 86q76 77 88 212v0q8 95 -30 183t-119 145q-82 57 -206 58q-40 0 -72.5 -5t-63.5 -12 q-7 -2 -15 -3q56 96 156 135q106 49 208 17q45 -20 72 -69l22 -40q32 -59 69 -118t84 -108t108.5 -79t144.5 -30l-1 227q-54 0 -91 30.5t-61 75t-37 88.5q-6 17 -14 33q-6 20 -16 38q-66 113 -194 149q-128 40 -257 18q-166 -29 -268.5 -127.5t-148.5 -260.5zM625 73v0 q107 -24 123 -95q16 -70 -29 -124q-42 -45 -100 -46q-59 0 -106 37q-38 31 -54 77t-4 80q13 31 59 56q45 24 111 15v0zM1317 227q29 0 56 -14.5t42.5 -42t15.5 -56.5q0 -30 -15 -57t-42 -42t-57 -15q-29 0 -56.5 15t-42 42t-14.5 57q0 29 15 56.5t42 42t56 14.5zM1317 227 q29 0 56 -14.5t42.5 -42t15.5 -56.5q0 -30 -15 -57t-42 -42t-57 -15q-29 0 -56.5 15t-42 42t-14.5 57q0 29 15 56.5t42 42t56 14.5z"/>
            <glyph glyph-name="uni0701" unicode="ﺳﻬﺌﺌ" horiz-adv-x="1760"
                   d="M430 846v0q-5 16 -5.5 32t3.5 38q14 59 49 109q31 44 75 75q42 32 93 29q31 -7 51 -30q21 -24 31 -54q7 -19 15 -38q26 -88 75 -165h1v-1q15 -17 31 -34q39 -39 86 -62.5t103 -23.5q55 0 103 21t89 58l1 1l2 -2q41 -40 94 -64q55 -24 115 -15q78 14 135 70q55 54 87 123 q35 78 45 163q11 86 -17 168q-15 38 -42.5 65t-70.5 24q-43 -6 -65 -37.5t-30 -70.5q-3 -20 -5 -39q-1 -4 -2 -9q0 -4 -1 -9q-5 -42 -14 -84v-1v-2v-2l-14 -58q-9 -33 -28 -62q-13 -21 -35 -15q-9 3 -13 11q-6 12 -8 24q-8 42 -10 85q-2 16 -4 31v2q0 10 -1 21q-1 9 -1 20v2 l-1 1q0 11 -1 20v3q-2 12 -6 21q-16 45 -62 57q-44 11 -83 -12q-14 -8 -23 -20q-31 -52 -32 -112q-2 -55 -26 -105q-13 -23 -32.5 -37.5t-46.5 -13.5q-54 7 -82 56q-30 52 -51 109q-7 18 -15 36q-17 43 -40 85q-51 78 -141 94q-87 15 -171 -12q-137 -50 -218 -172 q-47 -69 -69 -149q-21 -76 -8 -153l2 -13q-26 -6 -52 -14q-127 -40 -204 -148q-32 -45 -48 -99q-15 -55 -5 -111q19 -81 84 -124t143 -57l29 -7q-36 -28 -76 -33q-37 -4 -113 -3v-227q153 -1 279 62q139 57 235 131l4 2h4q186 -16 348 78q60 34 108 91q48 56 55 127 q2 78 -47 135t-114 92q-218 129 -442 128zM126 437v0q-7 102 80 155q89 43 175 -6q48 -31 66 -80q16 -48 7 -104l-2 -9l-9 -2q-162 -47 -307 33l-8 4l-2 9v0zM587 439v0q-7 68 -36 130v0q-6 16 -14 31q-10 21 -18 43q0 1 -1 1l-12 28l29 -8q68 -17 152 -52q83 -35 127 -88 l8 -12l-10 -8q-38 -32 -98 -51q-59 -18 -109 -27l-15 -2l-3 15v0zM-1 227q29 0 56 -14.5t42.5 -42t15.5 -56.5q0 -30 -15 -57t-42 -42t-57 -15q-29 0 -56.5 15t-42 42t-14.5 57q0 29 15 56.5t42 42t56 14.5zM-1 227q29 0 56 -14.5t42.5 -42t15.5 -56.5q0 -30 -15 -57 t-42 -42t-57 -15q-29 0 -56.5 15t-42 42t-14.5 57q0 29 15 56.5t42 42t56 14.5z"/>
            <glyph glyph-name="uni0702" unicode="ﺷﻬﺌﺌ" horiz-adv-x="1758"
                   d="M855 1535v0q-4 121 58 215t159 139.5t200 23.5q109 -30 158 -118.5t-5 -195.5q-64 -107 -165 -143.5t-191 -28.5t-121 33q-61 52 -25 72.5t118 31.5q88 13 165 43q84 43 78.5 94t-71.5 72q-84 22 -157 -12t-125.5 -97t-75.5 -129zM430 846v0q-5 16 -5.5 32t3.5 38 q14 59 49 109q31 44 75 75q42 32 93 29q31 -7 51 -30q21 -24 31 -54q7 -19 15 -38q26 -88 75 -165h1v-1q15 -17 31 -34q39 -39 86 -62.5t103 -23.5q55 0 103 21t89 58l1 1l2 -2q41 -40 94 -64q55 -24 115 -15q78 14 135 70q55 54 87 123q35 78 45 163q11 86 -17 168 q-15 38 -42.5 65t-70.5 24q-43 -6 -65 -37.5t-30 -70.5q-3 -20 -5 -39q-1 -4 -2 -9q0 -4 -1 -9q-5 -42 -14 -84v-1v-2v-2l-14 -58q-9 -33 -28 -62q-13 -21 -35 -15q-9 3 -13 11q-6 12 -8 24q-8 42 -10 85q-2 16 -4 31v2q0 10 -1 21q-1 9 -1 20v2l-1 1q0 11 -1 20v3 q-2 12 -6 21q-16 45 -62 57q-44 11 -83 -12q-14 -8 -23 -20q-31 -52 -32 -112q-2 -55 -26 -105q-13 -23 -32.5 -37.5t-46.5 -13.5q-54 7 -82 56q-30 52 -51 109q-7 18 -15 36q-17 43 -40 85q-51 78 -141 94q-87 15 -171 -12q-137 -50 -218 -172q-47 -69 -69 -149 q-21 -76 -8 -153l2 -13q-26 -6 -52 -14q-127 -40 -204 -148q-32 -45 -48 -99q-15 -55 -5 -111q19 -81 84 -124t143 -57l29 -7q-36 -28 -76 -33q-37 -4 -113 -3v-227q153 -1 279 62q139 57 235 131l4 2h4q186 -16 348 78q60 34 108 91q48 56 55 127q2 78 -47 135t-114 92 q-218 129 -442 128zM126 437v0q-7 102 80 155q89 43 175 -6q48 -31 66 -80q16 -48 7 -104l-2 -9l-9 -2q-162 -47 -307 33l-8 4l-2 9v0zM587 439v0q-7 68 -36 130v0q-6 16 -14 31q-10 21 -18 43q0 1 -1 1l-12 28l29 -8q68 -17 152 -52q83 -35 127 -88l8 -12l-10 -8 q-38 -32 -98 -51q-59 -18 -109 -27l-15 -2l-3 15v0zM-1 227q29 0 56 -14.5t42.5 -42t15.5 -56.5q0 -30 -15 -57t-42 -42t-57 -15q-29 0 -56.5 15t-42 42t-14.5 57q0 29 15 56.5t42 42t56 14.5zM-1 227q29 0 56 -14.5t42.5 -42t15.5 -56.5q0 -30 -15 -57t-42 -42t-57 -15 q-29 0 -56.5 15t-42 42t-14.5 57q0 29 15 56.5t42 42t56 14.5z"/>
            <glyph glyph-name="uni0703" unicode="ﺳﻬﺌﺌﺌﺌ" horiz-adv-x="2111"
                   d="M2014 1245v0q-172 -175 -400.5 -282.5t-468.5 -101.5q-103 5 -175 26t-131 46q-84 38 -187 55q-65 8 -97.5 -20t-38.5 -81q159 -12 293.5 -72t202.5 -161q35 -55 28 -113t-41 -111q-56 -86 -141.5 -137.5t-173.5 -74t-151 -22.5q-159 -137 -280 -168t-248 -28h-5v227 q61 0 98 8.5t69 35.5q-159 37 -212 125t-23 190t120 180q89 74 214 103q14 165 131 254.5t276 84.5q81 -5 138 -26t106 -48q48 -26 104.5 -47.5t135.5 -27.5q182 -7 392 76t362 190q91 56 130.5 26.5t-27.5 -106.5zM614 459v0q58 9 113.5 27.5t87.5 47.5q-38 48 -117.5 82 t-154.5 53q11 -24 21 -46q17 -34 30.5 -71t19.5 -93zM151 455v0l16 -8q52 -30 100.5 -40t132.5 14q-13 121 -75 167.5t-119.5 14.5t-54.5 -148zM0 227q29 0 56 -14.5t42.5 -42t15.5 -56.5q0 -30 -15 -57t-42 -42t-57 -15q-29 0 -56.5 15t-42 42t-14.5 57q0 29 15 56.5t42 42 t56 14.5z"/>
            <glyph glyph-name="uni0704" unicode="ﺷﻬﺌﺌﺌﺌ" horiz-adv-x="2110"
                   d="M968 1431v0q-4 121 58 214.5t159 139.5t200 23q109 -29 158 -117.5t-5 -195.5q-65 -108 -165.5 -144t-190.5 -28t-121 33q-62 52 -25.5 72t118.5 32q88 12 165 43q84 43 78.5 94t-72.5 72q-83 21 -156 -13t-125.5 -97t-75.5 -128zM2013 1245v0q-172 -175 -400.5 -282.5 t-468.5 -101.5q-103 5 -175 26t-131 46q-84 38 -187 55q-65 8 -97.5 -20t-38.5 -81q159 -12 293.5 -72t202.5 -161q35 -55 28 -113t-41 -111q-56 -86 -141.5 -137.5t-173.5 -74t-151 -22.5q-159 -137 -280 -168t-248 -28h-5v227q61 0 98 8.5t69 35.5q-159 37 -212 125 t-23 190t120 180q89 74 214 103q14 165 131 254.5t276 84.5q81 -5 138 -26t106 -48q48 -26 104.5 -47.5t135.5 -27.5q182 -7 392 76t362 190q91 56 130.5 26.5t-27.5 -106.5zM613 459v0q58 9 113.5 27.5t87.5 47.5q-38 48 -117.5 82t-154.5 53q11 -24 21 -46 q17 -34 30.5 -71t19.5 -93zM150 455v0l16 -8q52 -30 100.5 -40t132.5 14q-13 121 -75 167.5t-119.5 14.5t-54.5 -148zM-1 227q29 0 56 -14.5t42.5 -42t15.5 -56.5q0 -30 -15 -57t-42 -42t-57 -15q-29 0 -56.5 15t-42 42t-14.5 57q0 29 15 56.5t42 42t56 14.5z"/>
            <glyph glyph-name="uni0705" unicode="ﻧﺤﺌ" horiz-adv-x="1205"
                   d="M245 1371v0q74 20 136 -11.5t80 -92.5q15 -74 -27.5 -123.5t-94.5 -61.5q-103 -20 -162.5 38t-49 135.5t117.5 115.5zM72 227q133 4 257 39.5t220 140.5q-221 31 -414 41q-52 3 -109 7q-91 13 -72 103q11 36 53 40q40 7 75 12q88 9 196 42q148 47 263 129 q51 42 68.5 111.5t-0.5 134.5q-30 107 -9 146t65.5 23t85 -73.5t50.5 -144.5q14 -145 -49 -265t-211 -170q168 -12 310 -48q23 -5 44 -10q12 -2 23 -5q26 -5 49 -10q17 -4 35 -7q81 -13 141 -45q17 -11 19 -38t-5 -56q-11 -48 -26 -59.5t-54 -9.5q-60 0 -106 1 q-105 2 -167 -3t-128.5 -32t-183.5 -90q-182 -101 -379 -125q-26 -5 -112 -6h-2q-29 0 -56.5 15t-42 42t-14.5 57q0 29 15 56.5t42 42t56 14.5h73z"/>
            <glyph glyph-name="uni0706" unicode="ﻧﺠﺌ" horiz-adv-x="1205"
                   d="M132 -81v0q74 20 136 -12t80 -92q15 -75 -27.5 -124t-94.5 -62q-103 -19 -162.5 39t-49 135t117.5 116zM244 1371v0q74 20 136.5 -11.5t79.5 -92.5q15 -74 -27.5 -123.5t-94.5 -61.5q-102 -20 -161.5 38t-49.5 135.5t117 115.5zM72 227q133 4 257 39.5t220 140.5 q-221 31 -414 41q-52 3 -109 7q-91 13 -72 103q11 36 53 40q40 7 75 12q88 9 196 42q148 47 263 129q51 42 68.5 111.5t-0.5 134.5q-30 107 -9 146t65.5 23t85 -73.5t50.5 -144.5q14 -145 -49 -265t-211 -170q168 -12 310 -48q23 -5 44 -10q12 -2 23 -5q26 -5 49 -10 q17 -4 35 -7q81 -13 141 -45q17 -11 19 -38t-5 -56q-11 -48 -26 -59.5t-54 -9.5q-60 0 -106 1q-105 2 -167 -3t-128.5 -32t-183.5 -90q-182 -101 -379 -125q-26 -5 -112 -6h-2q-29 0 -56.5 15t-42 42t-14.5 57q0 29 15 56.5t42 42t56 14.5h73z"/>
            <glyph glyph-name="uni0707" unicode="ﻧﭽﺌ" horiz-adv-x="1204"
                   d="M244 1371v0q74 20 136 -11.5t80 -92.5q15 -75 -27.5 -124t-94.5 -62q-103 -19 -162.5 39t-49 135.5t117.5 115.5zM214 -424v0q-3 121 58.5 215t158.5 139.5t200 22.5q110 -29 158.5 -117.5t-5.5 -195.5q-64 -108 -165 -144t-191 -28t-121 33q-61 52 -25 72t118 32 q88 12 165 43q84 43 78.5 94t-71.5 72q-84 22 -156.5 -12t-125.5 -97t-76 -129zM72 227q133 4 257 39.5t220 140.5q-221 31 -414 41q-52 3 -109 7q-91 13 -72 103q11 36 53 40q40 7 75 12q88 9 196 42q148 47 263 129q51 42 68.5 111.5t-0.5 134.5q-30 107 -9 146t65.5 23 t85 -73.5t50.5 -144.5q14 -145 -49 -265t-211 -170q168 -12 310 -48q23 -5 44 -10q12 -2 23 -5q26 -5 49 -10q17 -4 35 -7q81 -13 141 -45q17 -11 19 -38t-5 -56q-11 -48 -26 -59.5t-54 -9.5q-60 0 -106 1q-105 2 -167 -3t-128.5 -32t-183.5 -90q-182 -101 -379 -125 q-26 -5 -112 -6h-2q-29 0 -56.5 15t-42 42t-14.5 57q0 29 15 56.5t42 42t56 14.5h73z"/>
            <glyph glyph-name="uni0708" unicode="ﻧﺨﺌ" horiz-adv-x="1206"
                   d="M326 1503v0q74 20 136 -12t80 -92q15 -75 -27.5 -124t-94.5 -62q-102 -19 -162 39t-49.5 135t117.5 116zM-56 1152v0q74 20 136.5 -11.5t80.5 -92.5q15 -74 -28 -123.5t-95 -61.5q-102 -20 -161.5 38t-49.5 135.5t117 115.5zM72 227q133 4 257 39.5t220 140.5 q-221 31 -414 41q-52 3 -109 7q-91 13 -72 103q11 36 53 40q40 7 75 12q88 9 196 42q148 47 263 129q51 42 68.5 111.5t-0.5 134.5q-30 107 -9 146t65.5 23t85 -73.5t50.5 -144.5q14 -145 -49 -265t-211 -170q168 -12 310 -48q23 -5 44 -10q12 -2 23 -5q26 -5 49 -10 q17 -4 35 -7q81 -13 141 -45q17 -11 19 -38t-5 -56q-11 -48 -26 -59.5t-54 -9.5q-60 0 -106 1q-105 2 -167 -3t-128.5 -32t-183.5 -90q-182 -101 -379 -125q-26 -5 -112 -6h-2q-29 0 -56.5 15t-42 42t-14.5 57q0 29 15 56.5t42 42t56 14.5h73z"/>
            <glyph glyph-name="uni0709" unicode="ﺑﺨﺌ" horiz-adv-x="1207"
                   d="M667 -75v0q74 20 136 -11.5t80 -92.5q15 -74 -27.5 -123.5t-94.5 -61.5q-103 -20 -162.5 38t-49 135.5t117.5 115.5zM16 1092v0q74 20 136 -11.5t80 -92.5q15 -75 -27.5 -124t-94.5 -62q-103 -19 -162.5 39t-49 135.5t117.5 115.5zM72 227q133 4 257 39.5t220 140.5 q-221 31 -414 41q-52 3 -109 7q-91 13 -72 103q11 36 53 40q40 7 75 12q88 9 196 42q148 47 263 129q51 42 68.5 111.5t-0.5 134.5q-30 107 -9 146t65.5 23t85 -73.5t50.5 -144.5q14 -145 -49 -265t-211 -170q168 -12 310 -48q23 -5 44 -10q12 -2 23 -5q26 -5 49 -10 q17 -4 35 -7q81 -13 141 -45q17 -11 19 -38t-5 -56q-11 -48 -26 -59.5t-54 -9.5q-60 0 -106 1q-105 2 -167 -3t-128.5 -32t-183.5 -90q-182 -101 -379 -125q-26 -5 -112 -6h-2q-29 0 -56.5 15t-42 42t-14.5 57q0 29 15 56.5t42 42t56 14.5h73z"/>
            <glyph glyph-name="uni0710" unicode="ﺑﺠﺌ" horiz-adv-x="1205"
                   d="M806 -81v0q74 20 136 -12t80 -92q15 -75 -28 -124t-95 -62q-102 -19 -161.5 39t-49.5 135t118 116zM221 -81v0q74 20 136.5 -12t80.5 -92q15 -75 -28 -124t-95 -62q-102 -19 -161.5 39t-49.5 135t117 116zM72 227q133 4 257 39.5t220 140.5q-221 31 -414 41q-52 3 -109 7 q-91 13 -72 103q11 36 53 40q40 7 75 12q88 9 196 42q148 47 263 129q51 42 68.5 111.5t-0.5 134.5q-30 107 -9 146t65.5 23t85 -73.5t50.5 -144.5q14 -145 -49 -265t-211 -170q168 -12 310 -48q23 -5 44 -10q12 -2 23 -5q26 -5 49 -10q17 -4 35 -7q81 -13 141 -45 q17 -11 19 -38t-5 -56q-11 -48 -26 -59.5t-54 -9.5q-60 0 -106 1q-105 2 -167 -3t-128.5 -32t-183.5 -90q-182 -101 -379 -125q-26 -5 -112 -6h-2q-29 0 -56.5 15t-42 42t-14.5 57q0 29 15 56.5t42 42t56 14.5h73z"/>
            <glyph glyph-name="uni0711" unicode="ﺑﭽﺌ" horiz-adv-x="1206"
                   d="M747 -99v0q74 20 136.5 -11.5t80.5 -92.5q15 -75 -28 -124t-95 -61q-102 -20 -161.5 38t-49.5 135.5t117 115.5zM-153 -503v0q-4 122 57.5 215.5t159 139t199.5 23.5q110 -29 159 -118t-5 -196q-65 -107 -166 -143t-191 -28t-121 32q-61 52 -24.5 72.5t117.5 32.5 q88 12 165 42q85 43 79 94t-72 73q-83 21 -156 -13t-126 -97t-75 -129zM72 227q133 4 257 39.5t220 140.5q-221 31 -414 41q-52 3 -109 7q-91 13 -72 103q11 36 53 40q40 7 75 12q88 9 196 42q148 47 263 129q51 42 68.5 111.5t-0.5 134.5q-30 107 -9 146t65.5 23t85 -73.5 t50.5 -144.5q14 -145 -49 -265t-211 -170q168 -12 310 -48q23 -5 44 -10q12 -2 23 -5q26 -5 49 -10q17 -4 35 -7q81 -13 141 -45q17 -11 19 -38t-5 -56q-11 -48 -26 -59.5t-54 -9.5q-60 0 -106 1q-105 2 -167 -3t-128.5 -32t-183.5 -90q-182 -101 -379 -125q-26 -5 -112 -6 h-2q-29 0 -56.5 15t-42 42t-14.5 57q0 29 15 56.5t42 42t56 14.5h73z"/>
            <glyph glyph-name="uni0712" unicode="ﺑﺤﺌ" horiz-adv-x="1207"
                   d="M724 -81v0q74 20 136 -12t80 -92q15 -75 -27.5 -124t-94.5 -62q-103 -19 -162.5 39t-49 135t117.5 116zM72 227q133 4 257 39.5t220 140.5q-221 31 -414 41q-52 3 -109 7q-91 13 -72 103q11 36 53 40q40 7 75 12q88 9 196 42q148 47 263 129q51 42 68.5 111.5t-0.5 134.5 q-30 107 -9 146t65.5 23t85 -73.5t50.5 -144.5q14 -145 -49 -265t-211 -170q168 -12 310 -48q23 -5 44 -10q12 -2 23 -5q26 -5 49 -10q17 -4 35 -7q81 -13 141 -45q17 -11 19 -38t-5 -56q-11 -48 -26 -59.5t-54 -9.5q-60 0 -106 1q-105 2 -167 -3t-128.5 -32t-183.5 -90 q-182 -101 -379 -125q-26 -5 -112 -6h-2q-29 0 -56.5 15t-42 42t-14.5 57q0 29 15 56.5t42 42t56 14.5h73z"/>
            <glyph glyph-name="uni0713" unicode="ﺳﺌ" horiz-adv-x="1200"
                   d="M90 227q245 11 500 90q301 93 500 270q31 28 46.5 21t17 -31.5t-10.5 -50.5q-54 -112 -172 -205t-266 -162q-330 -156 -673 -159h-32q-27 1 -53 15q-28 15 -42.5 42t-14.5 57q0 29 15 56.5t42 42t56 14.5h87z"/>
            <glyph glyph-name="uni0714" unicode="ﺷﺌ" horiz-adv-x="1200"
                   d="M176 616v0q-4 121 58 214.5t159 139t199 23.5q110 -29 159 -118t-5 -196q-65 -107 -166 -143t-190.5 -28t-121.5 33q-61 52 -24.5 72t118.5 32q87 12 164 42q85 44 79 94.5t-72 72.5q-83 21 -156 -13t-125.5 -97t-75.5 -128zM90 227q245 11 500 90q301 93 500 270 q31 28 46.5 21t17 -31.5t-10.5 -50.5q-54 -112 -172 -205t-266 -162q-330 -156 -673 -159h-32q-27 1 -53 15q-28 15 -42.5 42t-14.5 57q0 29 15 56.5t42 42t56 14.5h87z"/>
            <glyph glyph-name="uni0715" unicode="آژ" horiz-adv-x="951"
                   d="M879 1028v0q3 -159 -5.5 -408.5t-29.5 -403.5q-19 -118 -54.5 -177t-67 -29t-40.5 177l-15 771q3 114 53.5 152t101.5 14t57 -96zM327 1227v0q-57 -60 -91.5 -38t-21.5 79q30 95 114 160q96 72 186 77.5t176.5 -32.5t170.5 -97q62 -40 141.5 -54t142 12t71.5 105 q1 71 -66.5 125t-142.5 54q155 23 227 -53.5t41 -200.5q-22 -75 -101 -127t-192 -52.5t-235 75.5q-131 85 -205 97.5t-115.5 -18t-71.5 -76.5zM521 478v0q21 -130 4.5 -262t-81 -243t-188.5 -178q-55 -29 -118.5 -44.5t-126.5 -6.5q-25 3 -57.5 17t-38.5 41q-2 24 22 42.5 t54.5 31t47.5 16.5q100 30 162.5 100.5t96.5 167.5q27 88 15 180q-3 36 -8 72q-6 43 -9 87q-3 25 -0.5 54t16.5 51q14 19 36 27t45 10t46.5 -2t40.5 -22q18 -21 26 -56t12 -67q1 -8 3 -16zM10 777v0q-4 121 58 214.5t159 139.5t199 23q110 -29 159 -117.5t-5 -195.5 q-65 -108 -166 -144t-190.5 -28t-121.5 33q-61 52 -24.5 72t118.5 32q87 12 164 43q85 43 79 94t-72 72q-83 22 -156 -12.5t-125.5 -97t-75.5 -128.5z"/>
            <glyph glyph-name="uni0716" unicode="آﺛ" horiz-adv-x="775"
                   d="M709 1028v0q3 -159 -5.5 -408.5t-29.5 -403.5q-19 -118 -54.5 -177t-67 -29t-40.5 177l-15 771q3 114 53.5 152t101.5 14t57 -96zM127 1247v0q-57 -60 -91.5 -38t-21.5 79q30 95 114 160q96 72 186 77.5t176.5 -32.5t170.5 -97q62 -40 141.5 -54t142 12t71.5 105 q1 71 -66.5 125t-142.5 54q155 23 227 -53.5t41 -200.5q-22 -75 -101 -127t-192 -52.5t-235 75.5q-131 85 -205 97.5t-115.5 -18t-71.5 -76.5zM0 227h14q105 9 146.5 96.5t16.5 179.5q-30 107 -9 146t65 23t85 -73.5t51 -144.5q11 -112 -25 -211.5t-121 -165.5 q-79 -62 -202 -75q-10 -2 -21 -2q-29 0 -56 15t-42 42t-15 57q0 29 15 56.5t42 42t56 14.5zM-130 819v0q-4 122 57.5 215.5t159 139t199.5 23.5q110 -30 159 -118.5t-5 -195.5q-65 -107 -166 -143t-191 -28.5t-121 32.5q-61 52 -24.5 72.5t117.5 31.5q88 13 165 43 q85 43 79 94t-72 72q-83 22 -156 -12t-126 -97t-75 -129z"/>
            <glyph glyph-name="uni0718" unicode="ﺸﯽءءءءءء" horiz-adv-x="1871"
                   d="M932 831v0q-4 122 58 215.5t159 139t200 23.5q109 -30 158 -118.5t-5 -195.5q-64 -107 -165 -143t-191 -28t-121 32q-62 52 -25.5 72.5t118.5 31.5q88 13 165 43q84 43 78.5 94t-72.5 73q-83 21 -156 -13t-125.5 -97t-75.5 -129zM1872 227q29 0 56 -14.5t42.5 -42 t15.5 -56.5q0 -30 -15 -57t-42 -42t-57 -15q-29 0 -56 15t-42 42t-15 57q0 29 15 56.5t42.5 42t55.5 14.5zM1873 227v0v-227q-154 -2 -237 79q-63 -87 -162 -79q-103 8 -164 106q-64 -68 -110.5 -87.5t-121.5 -17.5h-24q-108 2 -198 89l-2 2q-14 16 -28 33q-38 52 -72 121 q-35 72 -78 131.5t-105 74.5q-99 15 -193 -40.5t-138 -133.5q-43 -83 -29 -148q31 -145 171 -219.5t341.5 -94t418.5 0.5t403 63t296 93q50 23 67.5 25t14.5 -10t-14 -31q-11 -20 -18 -40q-5 -17 -9 -33q-10 -45 -27 -80.5t-61 -61.5q-142 -79 -367 -125t-475.5 -47 t-467.5 56t-343 186q-114 130 -100 285.5t111.5 295t235 223t270.5 69t217 -167.5q24 -53 40 -109q20 -72 52 -123.5t104 -56.5q80 5 102 52.5t24 107.5q3 42 12.5 77t38.5 55q43 24 87 12t63 -59q12 -42 12 -95q1 -40 7 -81q18 -84 51 -68.5t60.5 81t30.5 130.5 q4 69 48 96.5t90.5 -1t59.5 -129.5l1 -71q2 -12 2 -23q1 -26 7.5 -45t29.5 -29.5t76 -10.5z"/>
            <glyph glyph-name="uni0719" unicode="ﺴﯽءءءءءء" horiz-adv-x="1871"
                   d="M1872 227q29 0 56 -14.5t42.5 -42t15.5 -56.5q0 -30 -15 -57t-42 -42t-57 -15q-29 0 -56 15t-42 42t-15 57q0 29 15 56.5t42.5 42t55.5 14.5zM1873 227v0v-227q-154 -2 -237 79q-63 -87 -162 -79q-103 8 -164 106q-64 -68 -110.5 -87.5t-121.5 -17.5h-24q-108 2 -198 89 l-2 2q-14 16 -28 33q-38 52 -72 121q-35 72 -78 131.5t-105 74.5q-99 15 -193 -40.5t-138 -133.5q-43 -83 -29 -148q31 -145 171 -219.5t341.5 -94t418.5 0.5t403 63t296 93q50 23 67.5 25t14.5 -10t-14 -31q-11 -20 -18 -40q-5 -17 -9 -33q-10 -45 -27 -80.5t-61 -61.5 q-142 -79 -367 -125t-475.5 -47t-467.5 56t-343 186q-114 130 -100 285.5t111.5 295t235 223t270.5 69t217 -167.5q24 -53 40 -109q20 -72 52 -123.5t104 -56.5q80 5 102 52.5t24 107.5q3 42 12.5 77t38.5 55q43 24 87 12t63 -59q12 -42 12 -95q1 -40 7 -81q18 -84 51 -68.5 t60.5 81t30.5 130.5q4 69 48 96.5t90.5 -1t59.5 -129.5l1 -71q2 -12 2 -23q1 -26 7.5 -45t29.5 -29.5t76 -10.5z"/>
            <glyph glyph-name="uni0720" unicode="ﺳﯽءءءءءء" horiz-adv-x="1762"
                   d="M1848 48v0l10 5q14 9 31.5 17t27.5 5t1 -28q-3 -10 -13 -26q-11 -17 -17 -37q-5 -18 -9 -34q-11 -45 -28 -80t-61 -61q-141 -80 -366.5 -136.5t-475.5 -71t-467.5 32.5t-343.5 175q-102 114 -101 250.5t73.5 266t185.5 224t237 125t227 -31t155 -244.5q20 -69 46 -119v0 q34 -52 80 -55t79 51q25 47 28 108q3 41 13 76t41 56q42 24 86 12q45 -13 64 -59q5 -23 10 -87q3 -67 14 -121q3 -17 8 -24q5 -8 12 -9q27 -7 46 37q18 44 29 106t17 106q1 10 3 17q1 9 1 14q15 69 56 97q41 26 86 8t72 -84q26 -80 16 -169q-11 -89 -46 -166 q-42 -93 -113 -146q-71 -55 -157 -52q-84 3 -166 83q-91 -80 -195 -79q-105 1 -191 87q-1 1 -3 2q-13 16 -28 33q-38 52 -71 121q-36 72 -78.5 131.5t-105.5 74.5q-99 14 -192.5 -41t-137.5 -133q-53 -104 -20 -180t116 -127t179.5 -79.5t170.5 -37.5q234 -26 472.5 -8.5 t388.5 65.5q132 43 249 110q8 4 23 12t32 18z"/>
            <glyph glyph-name="uni0721" unicode="ﺷﯽءءءءءء" horiz-adv-x="1762"
                   d="M1848 48v0l10 5q14 9 31.5 17t27.5 5t1 -28q-3 -10 -13 -26q-11 -17 -17 -37q-5 -18 -9 -34q-11 -45 -28 -80t-61 -61q-141 -80 -366.5 -136.5t-475.5 -71t-467.5 32.5t-343.5 175q-102 114 -101 250.5t73.5 266t185.5 224t237 125t227 -31t155 -244.5q20 -69 46 -119v0 q34 -52 80 -55t79 51q25 47 28 108q3 41 13 76t41 56q42 24 86 12q45 -13 64 -59q5 -23 10 -87q3 -67 14 -121q3 -17 8 -24q5 -8 12 -9q27 -7 46 37q18 44 29 106t17 106q1 10 3 17q1 9 1 14q15 69 56 97q41 26 86 8t72 -84q26 -80 16 -169q-11 -89 -46 -166 q-42 -93 -113 -146q-71 -55 -157 -52q-84 3 -166 83q-91 -80 -195 -79q-105 1 -191 87q-1 1 -3 2q-13 16 -28 33q-38 52 -71 121q-36 72 -78.5 131.5t-105.5 74.5q-99 14 -192.5 -41t-137.5 -133q-53 -104 -20 -180t116 -127t179.5 -79.5t170.5 -37.5q234 -26 472.5 -8.5 t388.5 65.5q132 43 249 110q8 4 23 12t32 18zM933 831v0q-4 122 57.5 215.5t158.5 139t200 23.5q110 -30 158.5 -118.5t-4.5 -195.5q-65 -107 -166 -143t-191 -28t-121 32q-61 52 -24.5 72.5t117.5 31.5q88 13 165 43q84 43 78.5 94t-71.5 73q-83 21 -156 -13t-126 -97 t-75 -129z"/>
            <glyph glyph-name="uni0722" unicode="ﻌﻬ" horiz-adv-x="2119"
                   d="M1543 627v0q3 -2 6 -3t5.5 -2.5t3.5 -5.5l294 -139q32 122 -1.5 163t-105 32.5t-154.5 -32.5q-24 -7 -48 -13zM297 828v0q-31 20 -57 39q-16 12 -33 24q-31 22 -27 43.5t57 17.5q62 -9 123 -21q99 -21 195 -47h1q0 -1 1 -1q67 -18 173 -54.5t203 -86t138 -106.5 q40 -66 20.5 -133.5t-67.5 -121.5q-33 -38 -83 -73.5t-101 -43.5l-29 -4q23 -24 63.5 -28.5t84.5 -3.5h8h49h97.5t137.5 -1.5t195 11.5t223 74q-62 79 -147 99t-182 8q-7 -1 -15 -1q-55 -8 -99.5 -5.5t-74.5 30.5q-48 44 -31 90.5t51 84.5q65 79 179.5 141.5t245 89.5 t244.5 0t177 -127q44 -77 41.5 -152.5t-18.5 -141.5q-20 -76 -4.5 -140t83.5 -61l-1 -227q-92 0 -165.5 54.5t-108.5 146.5q-122 -102 -275 -151.5t-315 -49.5v0h-288q-150 5 -255 69t-138 127q-176 -94 -269 -135t-154 -51t-150 -10v227q105 0 161.5 6.5t95.5 38.5l-16 4 q-78 15 -143 58.5t-85 124.5q-11 57 5 111.5t48 100.5q78 109 205 149zM671 447v0l2 -16l16 3q50 8 110 26.5t98 51.5l10 9l-8 11q-43 54 -128 89.5t-152 52.5l-30 7l12 -28q10 -22 20 -43q7 -16 15 -32q28 -62 35 -131zM208 444v0v-8l8 -4q148 -81 310 -34l9 3l2 9 q10 56 -7.5 105t-66.5 80q-86 49 -176 6q-87 -53 -79 -157zM2118 227q29 0 56 -14.5t42.5 -42t15.5 -56.5q0 -30 -15 -57t-42 -42t-57 -15q-29 0 -56 15t-42 42t-15 57q0 29 15 56.5t42.5 42t55.5 14.5zM-1 227q29 0 56 -14.5t42.5 -42t15.5 -56.5q0 -30 -15 -57t-42 -42 t-57 -15q-29 0 -56 15t-42 42t-15 57q0 29 15.5 56.5t42.5 42t55 14.5z"/>
            <glyph glyph-name="uni0724" unicode="ﯾﯽ" horiz-adv-x="1603"
                   d="M1181 -1v0v0q79 -137 41.5 -235t-145.5 -158t-239 -84q-151 -30 -302 -6q-163 26 -291 122t-183 262q-43 129 -9 271q34 119 120.5 206.5t191.5 138.5t197 64q101 11 129.5 -19t-66.5 -84q-26 -14 -51 -27q-74 -36 -141 -81.5t-119 -125.5q-71 -117 -55 -227t95 -188 q112 -104 268 -120t294 40q121 52 146 112t-37.5 101.5t-201.5 37.5q-27 -1 -57 -6q-51 -10 -96 -6q-47 9 -69 45.5t-7.5 81.5t75 78.5t179.5 33.5h333v0h12q105 9 146 96.5t16 180.5q-29 107 -8 146t65 23t85 -73.5t51 -144.5q10 -112 -25.5 -211.5t-120 -165.5t-221.5 -78 zM1326 -472v0q112 -12 165 -41t24 -59t-161 -44q-69 -9 -171 -20.5t-184 -11.5q-9 1 -17 1q-45 -2 -73 8.5t-27 55.5q4 58 59 82.5t129 29.5t135 3h33h14q37 0 34.5 -0.5t39.5 -3.5z"/>
            <glyph glyph-name="uni0728" unicode="ﯿﯽ" horiz-adv-x="1703"
                   d="M880 -477v0q-151 -30 -302 -6q-163 26 -291 122t-183 262q-43 129 -9 271q34 119 120.5 206.5t191.5 138.5t197 64q101 11 129.5 -19t-66.5 -84q-26 -14 -51 -27q-74 -36 -141 -81.5t-119 -125.5q-71 -117 -55 -227t95 -188q112 -104 268 -120t294 40q121 52 146 112 t-37.5 101.5t-201.5 37.5q-27 -1 -57 -6q-51 -10 -96 -6q-47 9 -69 46t-7.5 81.5t75 78t179.5 33.5h323v0h2h8v0q69 -1 103 21.5t48 52.5q25 59 17 142q-3 56 4 116q10 57 49.5 78t78.5 -9t50 -126q1 -19 5 -38q6 -40 9 -76q4 -46 13 -82t35 -57.5t70 -21.5l-2 -227 q-87 -4 -162 38.5t-95 139.5q-29 -76 -87.5 -124t-135.5 -53v-1q79 -137 41.5 -235t-145.5 -158t-239 -84zM1455 -444v0q112 -12 164.5 -41t24 -59t-160.5 -44q-69 -9 -171 -20.5t-184 -11.5q-9 1 -18 1q-44 -2 -72 8t-27 56q4 58 59 82.5t128.5 29t135.5 3.5h33h13 q38 0 35.5 -0.5t39.5 -3.5zM1702 227q29 0 56 -14.5t42.5 -42t15.5 -56.5q0 -30 -15 -57t-42 -42t-57 -15q-29 0 -56 15t-42 42t-15 57q0 29 15 56.5t42.5 42t55.5 14.5z"/>
            <glyph glyph-name="uni0729" unicode="ﺒﯿ" horiz-adv-x="1004"
                   d="M0 0v0v227q83 0 110 20q36 22 50 54q25 59 17 142q-3 57 4 116q10 57 49.5 78t79 -9t49.5 -126q1 -19 5 -38q6 -40 9 -76q4 -46 13 -82t35 -57.5t84 -21.5v0q73 -2 108 20.5t49 52.5q25 59 17 143q-3 56 4 116q11 57 50 77.5t78.5 -9.5t49.5 -125q1 -19 5 -39 q6 -39 9 -75q4 -46 13 -82.5t35 -57.5t81 -21v-227q-100 -5 -175 38t-94 140q-30 -78 -91.5 -127t-142.5 -51v0q-100 -4 -174.5 39t-93.5 139q-30 -78 -91.5 -127t-141.5 -51zM680 -112v0q75 20 137 -11.5t80 -92.5q15 -74 -28 -123t-95 -62q-102 -19 -161.5 39t-49.5 135 t117 115zM313 -165v0q112 -11 164.5 -40t24 -59t-160.5 -45q-69 -8 -171.5 -19.5t-183.5 -11.5h-18q-44 -1 -72 9t-28 56q5 58 59.5 82.5t128.5 29t135 3.5q19 -1 34 -1q6 0 13 1q37 0 35 -0.5t40 -4.5zM1002 227q29 0 56 -14.5t42.5 -42t15.5 -56.5q0 -30 -15 -57t-42 -42 t-57 -15q-29 0 -56 15t-42 42t-15 57q0 29 15 56.5t42.5 42t55.5 14.5zM0 227q30 0 56.5 -14.5t42 -42t15.5 -56.5q0 -30 -15 -57t-42 -42t-57 -15q-29 0 -56 15t-42 42t-15 57q0 29 15 56.5t42.5 42t55.5 14.5z"/>
            <glyph glyph-name="uni0730" unicode="ﯿﺒ" horiz-adv-x="1004"
                   d="M100 -99v0q74 20 136 -11.5t80 -92.5q15 -74 -27.5 -123t-94.5 -62q-103 -20 -162.5 38.5t-49 135.5t117.5 115zM809 -169v0q112 -12 165 -41t24 -59t-161 -44q-69 -9 -171 -20.5t-184 -11.5q-9 1 -17 1q-45 -2 -73 8.5t-27 55.5q4 58 59 82.5t129 29.5t135 3h33h14 q37 0 34.5 -0.5t39.5 -3.5zM0 0v0v227q83 0 110 20q36 22 50 54q25 59 17 142q-3 57 4 116q10 57 49.5 78t79 -9t49.5 -126q1 -19 5 -38q6 -40 9 -76q4 -46 13 -82t35 -57.5t84 -21.5v0q73 -2 108 20.5t49 52.5q25 59 17 143q-3 56 4 116q11 57 50 77.5t78.5 -9.5t49.5 -125 q1 -19 5 -39q6 -39 9 -75q4 -46 13 -82.5t35 -57.5t81 -21v-227q-100 -5 -175 38t-94 140q-30 -78 -91.5 -127t-142.5 -51v0q-100 -4 -174.5 39t-93.5 139q-30 -78 -91.5 -127t-141.5 -51zM1002 227q29 0 56 -14.5t42.5 -42t15.5 -56.5q0 -30 -15 -57t-42 -42t-57 -15 q-29 0 -56 15t-42 42t-15 57q0 29 15 56.5t42.5 42t55.5 14.5zM0 227q30 0 56.5 -14.5t42 -42t15.5 -56.5q0 -30 -15 -57t-42 -42t-57 -15q-29 0 -56 15t-42 42t-15 57q0 29 15 56.5t42.5 42t55.5 14.5z"/>
            <glyph glyph-name="uni0731" unicode="ﯿﯿ" horiz-adv-x="1004"
                   d="M921 -150v0q112 -11 165 -40t24 -59.5t-161 -44.5q-69 -9 -171 -20t-184 -11h-17q-45 -1 -73 9t-27 56q4 57 59 81.5t129 29.5t135 4q18 -1 33 -1h14q37 1 34.5 0.5t39.5 -4.5zM246 -145v0q112 -11 165 -40t24 -59t-161 -45q-69 -8 -171 -19.5t-184 -11.5h-17 q-45 -1 -72.5 9t-27.5 56q4 57 59 82t129 29.5t135 3.5q18 -1 33 -1h14q37 1 35 0.5t39 -4.5zM0 0v0v227q83 0 110 20q36 22 50 54q25 59 17 142q-3 57 4 116q10 57 49.5 78t79 -9t49.5 -126q1 -19 5 -38q6 -40 9 -76q4 -46 13 -82t35 -57.5t84 -21.5v0q73 -2 108 20.5 t49 52.5q25 59 17 143q-3 56 4 116q11 57 50 77.5t78.5 -9.5t49.5 -125q1 -19 5 -39q6 -39 9 -75q4 -46 13 -82.5t35 -57.5t81 -21v-227q-100 -5 -175 38t-94 140q-30 -78 -91.5 -127t-142.5 -51v0q-100 -4 -174.5 39t-93.5 139q-30 -78 -91.5 -127t-141.5 -51zM1002 227 q29 0 56 -14.5t42.5 -42t15.5 -56.5q0 -30 -15 -57t-42 -42t-57 -15q-29 0 -56 15t-42 42t-15 57q0 29 15 56.5t42.5 42t55.5 14.5zM0 227q30 0 56.5 -14.5t42 -42t15.5 -56.5q0 -30 -15 -57t-42 -42t-57 -15q-29 0 -56 15t-42 42t-15 57q0 29 15 56.5t42.5 42t55.5 14.5z "/>
            <glyph glyph-name="uni0732" unicode="ﯾﯿ" horiz-adv-x="1107"
                   d="M0 0v0v227q74 -1 108.5 20.5t48.5 52.5q25 59 18 142q-4 57 3 116q11 57 50 78t78.5 -9t49.5 -125q1 -19 5 -39q6 -39 10 -75q3 -70 24.5 -114.5t101.5 -47.5h27h57.5h58.5h26v0h9q104 9 145.5 96.5t16.5 180.5q-29 107 -8.5 146t65 23t85 -73.5t51.5 -144.5 q10 -112 -25 -211t-119.5 -165.5t-221.5 -77.5v-1h-182q-95 0 -164.5 43t-87.5 135q-30 -78 -91.5 -126.5t-138.5 -50.5zM879 -124v0q112 -12 164.5 -41t24 -59t-160.5 -44q-69 -9 -171.5 -20t-183.5 -11h-18q-44 -2 -72 8.5t-28 56.5q5 57 59.5 81.5t128.5 29.5t135 3h34 h13q37 1 35 0t40 -4zM186 -124v0q112 -12 164.5 -41t24 -59t-160.5 -44q-69 -9 -171 -20t-184 -11h-17q-45 -2 -73 8.5t-27 56.5q4 57 59 81.5t128.5 29.5t135.5 3h33h13q38 1 35.5 0t39.5 -4zM2 227q29 0 56 -14.5t42.5 -42t15.5 -56.5q0 -30 -15 -57t-42 -42t-57 -15 q-29 0 -56 15t-42 42t-15 57q0 29 15 56.5t42.5 42t55.5 14.5z"/>
            <glyph glyph-name="uni0733" unicode="ﺗﻨ" horiz-adv-x="1099"
                   d="M93 1094v0q74 20 136 -11.5t80 -92.5q15 -75 -28 -124t-95 -61q-102 -20 -161.5 38t-49.5 135.5t118 115.5zM794 909v0q112 -12 165 -41t24 -59t-161 -44q-69 -9 -171 -20.5t-184 -11.5q-9 1 -17 1q-45 -2 -72.5 8.5t-27.5 55.5q4 58 59 82.5t129 29.5t135 3h33h14 q37 0 35 -0.5t39 -3.5zM0 0v0v227q74 -1 108.5 20.5t48.5 52.5q25 59 18 142q-4 57 3 116q11 57 50 78t78.5 -9t49.5 -125q1 -19 5 -39q6 -39 10 -75q3 -70 24.5 -114.5t101.5 -47.5h27h57.5h58.5h26v0h9q104 9 145.5 96.5t16.5 180.5q-29 107 -8.5 146t65 23t85 -73.5 t51.5 -144.5q10 -112 -25 -211t-119.5 -165.5t-221.5 -77.5v-1h-182q-95 0 -164.5 43t-87.5 135q-30 -78 -91.5 -126.5t-138.5 -50.5zM2 227q29 0 56 -14.5t42.5 -42t15.5 -56.5q0 -30 -15 -57t-42 -42t-57 -15q-29 0 -56 15t-42 42t-15 57q0 29 15 56.5t42.5 42t55.5 14.5z "/>
            <glyph glyph-name="uni0734" unicode="ﻧﺘ" horiz-adv-x="1110"
                   d="M791 1049v0q74 20 136 -11.5t80 -92.5q15 -75 -27.5 -124t-94.5 -61q-103 -20 -162.5 38t-49 135.5t117.5 115.5zM414 988v0q112 -11 164.5 -40t24 -59t-160.5 -44q-69 -9 -171 -20.5t-184 -11.5h-18q-44 -1 -72 9t-27 56q4 58 59 82.5t128.5 29t135.5 3.5h33h13 q38 0 35.5 -0.5t39.5 -4.5zM0 0v0v227q74 -1 108.5 20.5t48.5 52.5q25 59 18 142q-4 57 3 116q11 57 50 78t78.5 -9t49.5 -125q1 -19 5 -39q6 -39 10 -75q3 -70 24.5 -114.5t101.5 -47.5h27h57.5h58.5h26v0h9q104 9 145.5 96.5t16.5 180.5q-29 107 -8.5 146t65 23t85 -73.5 t51.5 -144.5q10 -112 -25 -211t-119.5 -165.5t-221.5 -77.5v-1h-182q-95 0 -164.5 43t-87.5 135q-30 -78 -91.5 -126.5t-138.5 -50.5zM2 227q29 0 56 -14.5t42.5 -42t15.5 -56.5q0 -30 -15 -57t-42 -42t-57 -15q-29 0 -56 15t-42 42t-15 57q0 29 15 56.5t42.5 42t55.5 14.5z "/>
            <glyph glyph-name="uni0735" unicode="ﺑﯿ" horiz-adv-x="1110"
                   d="M614 -85v0q74 19 136 -12.5t80 -92.5q15 -74 -28 -123t-95 -62q-102 -19 -161.5 39t-49.5 135t118 116zM223 -124v0q112 -12 164.5 -41t24 -59t-160.5 -44q-69 -9 -171 -20t-184 -11h-17q-45 -2 -73 8.5t-27 56.5q4 57 59 81.5t128.5 29.5t135.5 3h33h13q38 1 35.5 0 t39.5 -4zM0 0v0v227q74 -1 108.5 20.5t48.5 52.5q25 59 18 142q-4 57 3 116q11 57 50 78t78.5 -9t49.5 -125q1 -19 5 -39q6 -39 10 -75q3 -70 24.5 -114.5t101.5 -47.5h27h57.5h58.5h26v0h9q104 9 145.5 96.5t16.5 180.5q-29 107 -8.5 146t65 23t85 -73.5t51.5 -144.5 q10 -112 -25 -211t-119.5 -165.5t-221.5 -77.5v-1h-182q-95 0 -164.5 43t-87.5 135q-30 -78 -91.5 -126.5t-138.5 -50.5zM2 227q29 0 56 -14.5t42.5 -42t15.5 -56.5q0 -30 -15 -57t-42 -42t-57 -15q-29 0 -56 15t-42 42t-15 57q0 29 15 56.5t42.5 42t55.5 14.5z"/>
            <glyph glyph-name="uni0736" unicode="ﺘﻨ" horiz-adv-x="1006"
                   d="M0 1029v0q74 20 136.5 -12t80.5 -92q15 -75 -28 -124t-95 -62q-102 -19 -161.5 39t-49.5 135t117 116zM718 966v0q112 -12 164.5 -41t24 -59t-160.5 -44q-70 -9 -172 -20t-184 -11h-17q-45 -2 -72.5 8.5t-27.5 56.5q4 57 59 81.5t129 29.5t135 3h34h13q37 1 35 0t40 -4z M0 0v0v227q83 0 110 20q36 22 50 54q25 59 17 142q-3 57 4 116q10 57 49.5 78t79 -9t49.5 -126q1 -19 5 -38q6 -40 9 -76q4 -46 13 -82t35 -57.5t84 -21.5v0q73 -2 108 20.5t49 52.5q25 59 17 143q-3 56 4 116q11 57 50 77.5t78.5 -9.5t49.5 -125q1 -19 5 -39q6 -39 9 -75 q4 -46 13 -82.5t35 -57.5t81 -21v-227q-100 -5 -175 38t-94 140q-30 -78 -91.5 -127t-142.5 -51v0q-100 -4 -174.5 39t-93.5 139q-30 -78 -91.5 -127t-141.5 -51zM1002 227q29 0 56 -14.5t42.5 -42t15.5 -56.5q0 -30 -15 -57t-42 -42t-57 -15q-29 0 -56 15t-42 42t-15 57 q0 29 15 56.5t42.5 42t55.5 14.5zM0 227q30 0 56.5 -14.5t42 -42t15.5 -56.5q0 -30 -15 -57t-42 -42t-57 -15q-29 0 -56 15t-42 42t-15 57q0 29 15 56.5t42.5 42t55.5 14.5z"/>
            <glyph glyph-name="uni0738" unicode="ﺸﻢءء" horiz-adv-x="2126"
                   d="M235 271v0q-16 -51 -22 -108q-82 -52 -135.5 -127.5t-61.5 -162.5q-11 -129 -5 -272l4 -325q6 -73 57 -104q52 -30 102 -1q49 30 53 136l-10 499q2 39 25 77q48 -131 143 -203t211 -77q74 -3 147 24t134 87q77 77 89 212v0q8 95 -30 183q-38 87 -120 145q-81 57 -206 58 q-39 0 -71.5 -5.5t-63.5 -12.5q-8 -1 -15 -3q55 96 156 136q105 49 207 16q46 -19 72 -68q11 -20 23 -40q42 -80 94 -156.5t127 -127t184 -51.5v0v0h27q66 -1 109.5 20t104.5 85q60 -98 164 -106q98 -8 162 78q60 -87 235 -77l1 227q-52 0 -75 9q-23 11 -29.5 30t-7.5 46 q-1 10 -2 22l-1 71q-13 100 -59.5 129t-90.5 1t-48 -96q-3 -66 -31 -131t-60.5 -80.5t-50.5 68.5q-6 41 -7 81q0 53 -12 95q-19 46 -63.5 58.5t-86.5 -11.5q-29 -20 -38.5 -55.5t-12.5 -76.5q-2 -61 -24 -108.5t-102 -52.5h-4v0q-53 0 -90 30.5t-61 75t-37 89.5 q-6 16 -13 32q-6 20 -16 38q-67 113 -195 149q-128 41 -257 19q-166 -30 -268.5 -128.5t-148.5 -259.5zM630 79v0q106 -25 122 -95q16 -71 -28 -125q-43 -44 -101 -45t-106 36q-37 32 -54 78q-16 46 -4 79q14 31 59 56q46 25 112 16v0zM1214 982v0q10 2 23 -6q9 -7 18 -15 l8 -6q11 -12 24 -20q130 -75 233 -87q104 -12 155 26q50 37 17 109q-22 38 -68 62q-47 25 -102 31q-156 18 -248 -13t-139 -65q-27 -16 -44 -22q-68 -20 -88 15q-21 34 23 93q44 58 174 111q195 72 355 43q159 -30 244 -124q86 -95 58 -219q-29 -100 -104 -137 q-76 -36 -173 -26q-97 11 -188 57t-149 111v0q-4 3 -7 8q-22 24 -28 38q-7 15 6 36v0zM2125 227q29 0 56 -14.5t42.5 -42t15.5 -56.5q0 -30 -15 -57t-42 -42t-57 -15q-29 0 -56 15t-42 42t-15 57q0 29 15 56.5t42.5 42t55.5 14.5zM2125 227q29 0 56 -14.5t42.5 -42 t15.5 -56.5q0 -30 -15 -57t-42 -42t-57 -15q-29 0 -56 15t-42 42t-15 57q0 29 15 56.5t42.5 42t55.5 14.5z"/>
            <glyph glyph-name="uni0739" unicode="ﺴﻢءء" horiz-adv-x="2126"
                   d="M235 271v0q-16 -51 -22 -108q-82 -52 -135.5 -127.5t-61.5 -162.5q-11 -129 -5 -272l4 -325q6 -73 57 -104q52 -30 102 -1q49 30 53 136l-10 499q2 39 25 77q48 -131 143 -203t211 -77q74 -3 147 24t134 87q77 77 89 212v0q8 95 -30 183q-38 87 -120 145q-81 57 -206 58 q-39 0 -71.5 -5.5t-63.5 -12.5q-8 -1 -15 -3q55 96 156 136q105 49 207 16q46 -19 72 -68q11 -20 23 -40q42 -80 94 -156.5t127 -127t184 -51.5v0v0h27q66 -1 109.5 20t104.5 85q60 -98 164 -106q98 -8 162 78q60 -87 235 -77l1 227q-52 0 -75 9q-23 11 -29.5 30t-7.5 46 q-1 10 -2 22l-1 71q-13 100 -59.5 129t-90.5 1t-48 -96q-3 -66 -31 -131t-60.5 -80.5t-50.5 68.5q-6 41 -7 81q0 53 -12 95q-19 46 -63.5 58.5t-86.5 -11.5q-29 -20 -38.5 -55.5t-12.5 -76.5q-2 -61 -24 -108.5t-102 -52.5h-4v0q-53 0 -90 30.5t-61 75t-37 89.5 q-6 16 -13 32q-6 20 -16 38q-67 113 -195 149q-128 41 -257 19q-166 -30 -268.5 -128.5t-148.5 -259.5zM630 79v0q106 -25 122 -95q16 -71 -28 -125q-43 -44 -101 -45t-106 36q-37 32 -54 78q-16 46 -4 79q14 31 59 56q46 25 112 16v0zM2125 227q29 0 56 -14.5t42.5 -42 t15.5 -56.5q0 -30 -15 -57t-42 -42t-57 -15q-29 0 -56 15t-42 42t-15 57q0 29 15 56.5t42.5 42t55.5 14.5zM2125 227q29 0 56 -14.5t42.5 -42t15.5 -56.5q0 -30 -15 -57t-42 -42t-57 -15q-29 0 -56 15t-42 42t-15 57q0 29 15 56.5t42.5 42t55.5 14.5z"/>
            <glyph glyph-name="uni0740" unicode="ﺷﻢءء" horiz-adv-x="2101"
                   d="M1302 841v0q-4 121 58 214.5t159 139.5t199 23q110 -29 159 -118t-5 -195q-65 -108 -166 -144t-190.5 -28t-121.5 33q-61 52 -24.5 72t117.5 32q88 12 165 43q85 43 79 94t-72 72q-83 21 -156 -13t-125.5 -97t-75.5 -128zM246 271q46 161 148 259.5t268 128.5 q129 22 258 -19q128 -36 194 -149q10 -18 16 -38q7 -16 13 -32q13 -45 37 -89.5t61 -75t90 -30.5v0h5q47 -3 82 50q24 46 27 107q3 42 14 77q10 35 40 55q42 25 87 12q44 -12 63 -59q6 -23 10 -86q3 -68 14 -121q3 -18 9 -25q4 -8 11 -9q27 -7 46 38q19 44 29 106 q11 61 17 105q2 10 3 17q1 9 2 14q14 69 55 97q41 27 86 8q45 -18 72 -83q27 -81 16 -170q-10 -88 -45 -165q-42 -93 -114 -147q-71 -55 -156 -52q-85 4 -167 83q-86 -75 -184 -79q-12 0 -23 1v0q-108 2 -182 52.5t-126 126.5t-94 156l-22 40q-27 49 -72 68 q-102 33 -208 -16q-100 -40 -156 -136q8 2 15 3q31 7 63.5 12.5t72.5 5.5q124 -1 206 -58q81 -58 119 -145q38 -88 30 -183v0q-12 -135 -88 -212q-61 -60 -134.5 -87t-146.5 -24q-117 5 -212 77t-143 203q-22 -38 -25 -77l10 -499q-3 -106 -53 -136q-50 -29 -101 1 q-52 31 -58 104l-4 325q-6 143 5 272q9 87 62 162.5t135 127.5q7 57 23 108v0zM640 79v0q-66 9 -111 -16q-46 -25 -59 -56q-13 -33 3 -79q17 -46 55 -78q47 -37 105 -36t101 45q45 54 29 125q-16 70 -123 95v0z"/>
            <glyph glyph-name="uni0741" unicode="ﺳﻢءء" horiz-adv-x="2101"
                   d="M246 271q46 161 148 259.5t268 128.5q129 22 258 -19q128 -36 194 -149q10 -18 16 -38q7 -16 13 -32q13 -45 37 -89.5t61 -75t90 -30.5v0h5q47 -3 82 50q24 46 27 107q3 42 14 77q10 35 40 55q42 25 87 12q44 -12 63 -59q6 -23 10 -86q3 -68 14 -121q3 -18 9 -25 q4 -8 11 -9q27 -7 46 38q19 44 29 106q11 61 17 105q2 10 3 17q1 9 2 14q14 69 55 97q41 27 86 8q45 -18 72 -83q27 -81 16 -170q-10 -88 -45 -165q-42 -93 -114 -147q-71 -55 -156 -52q-85 4 -167 83q-86 -75 -184 -79q-12 0 -23 1v0q-108 2 -182 52.5t-126 126.5t-94 156 l-22 40q-27 49 -72 68q-102 33 -208 -16q-100 -40 -156 -136q8 2 15 3q31 7 63.5 12.5t72.5 5.5q124 -1 206 -58q81 -58 119 -145q38 -88 30 -183v0q-12 -135 -88 -212q-61 -60 -134.5 -87t-146.5 -24q-117 5 -212 77t-143 203q-22 -38 -25 -77l10 -499q-3 -106 -53 -136 q-50 -29 -101 1q-52 31 -58 104l-4 325q-6 143 5 272q9 87 62 162.5t135 127.5q7 57 23 108v0zM640 79v0q-66 9 -111 -16q-46 -25 -59 -56q-13 -33 3 -79q17 -46 55 -78q47 -37 105 -36t101 45q45 54 29 125q-16 70 -123 95v0z"/>
            <glyph glyph-name="uni0742" unicode="ﭘﯿ" horiz-adv-x="1110"
                   d="M0 0v0v227q73 -1 108 19q36 23 51 54q25 59 17 142q-3 57 3 116q11 57 50.5 78t78.5 -9t49 -125q2 -19 5 -39q7 -39 10 -75q3 -70 25 -114.5t101 -47.5h27h58h58.5h26.5v0h8q105 9 146 96.5t16 180.5q-29 107 -8 146t65 23t85 -73.5t51 -144.5q10 -112 -25 -211 t-119.5 -165.5t-221.5 -77.5v-1h-182q-95 0 -164.5 43t-87.5 135q-30 -78 -91.5 -126.5t-139.5 -50.5zM414 -414v0q-4 121 58 214.5t159 139.5t199 23q110 -29 159 -117.5t-5 -195.5q-65 -108 -166 -144t-190.5 -28t-121.5 33q-61 52 -24.5 72t117.5 32q88 12 165 43 q85 43 79 94t-72 72q-83 21 -156 -13t-125.5 -97t-75.5 -128zM211 -124v0q112 -12 164.5 -41t24 -59t-160.5 -44q-69 -9 -171.5 -20t-183.5 -11h-18q-44 -2 -72 8.5t-28 56.5q5 57 59.5 81.5t128.5 29.5t135 3h34h13q37 1 35 0t40 -4zM0 227q29 0 56 -14.5t42.5 -42 t15.5 -56.5q0 -30 -15 -57t-42 -42t-57 -15q-29 0 -56 15t-42 42t-15 57q0 29 15 56.5t42.5 42t55.5 14.5z"/>
            <glyph glyph-name="uni0743" unicode="ﯾﺞ" horiz-adv-x="1618"
                   d="M1156 -8v0q-169 1 -263 73t-138 210q-119 -32 -230 -89t-188.5 -146.5t-95.5 -220.5q-18 -187 88.5 -298.5t272.5 -136t324 49.5q16 9 32 19t33 21q39 28 82.5 50t87.5 16q71 -19 38.5 -113t-175.5 -183q-194 -95 -377.5 -87t-328.5 95.5t-226 230.5t-70 317 q10 125 65.5 236t139.5 203q-33 19 -84.5 64.5t-90.5 120.5t-35 182q9 128 97.5 202.5t232.5 57.5q85 -14 172.5 -63t161.5 -100q32 -22 59 -39q41 -26 95.5 -54t105.5 -44q73 -16 142 -7q65 7 104 -8q58 -34 60 -97t-52 -96q-19 -8 -100 -18q-44 -6 -101 -15 q14 -54 56.5 -77.5t106.5 -26.5q40 -3 80 4q16 3 32 11q65 36 89 111t3 148q-29 107 -8 146t65 23t85 -73.5t51 -144.5q13 -140 -45.5 -257.5t-195.5 -170.5q-76 -28 -157 -26zM294 306v0q91 72 178.5 111t158.5 49q-27 32 -104 83.5t-161 83t-132 0.5q-41 -35 -43.5 -101.5 t25.5 -131t78 -94.5zM576 64v0q74 20 136 -11.5t80 -92.5q15 -74 -28 -123.5t-95 -61.5q-102 -20 -161.5 38t-49 135.5t117.5 115.5zM1264 -174v0q112 -12 164.5 -41t24 -59t-160.5 -44q-70 -9 -172 -20t-184 -11h-17q-45 -2 -72.5 8.5t-27.5 56.5q4 57 59 81.5t129 29.5 t135 3h34h13q37 1 35 0t40 -4z"/>
            <glyph glyph-name="uni0744" unicode="ﯾﭻ" horiz-adv-x="1597"
                   d="M1156 -8v0q-169 1 -263 73t-138 210q-119 -32 -230 -89t-188.5 -146.5t-95.5 -220.5q-18 -187 88.5 -298.5t272.5 -136t324 49.5q16 9 32 19t33 21q39 28 82.5 50t87.5 16q71 -19 38.5 -113t-175.5 -183q-194 -95 -377.5 -87t-328.5 95.5t-226 230.5t-70 317 q10 125 65.5 236t139.5 203q-33 19 -84.5 64.5t-90.5 120.5t-35 182q9 128 97.5 202.5t232.5 57.5q85 -14 172.5 -63t161.5 -100q32 -22 59 -39q41 -26 95.5 -54t105.5 -44q73 -16 142 -7q65 7 104 -8q58 -34 60 -97t-52 -96q-19 -8 -100 -18q-44 -6 -101 -15 q14 -54 56.5 -77.5t106.5 -26.5q40 -3 80 4q16 3 32 11q65 36 89 111t3 148q-29 107 -8 146t65 23t85 -73.5t51 -144.5q13 -140 -45.5 -257.5t-195.5 -170.5q-76 -28 -157 -26zM294 306v0q91 72 178.5 111t158.5 49q-27 32 -104 83.5t-161 83t-132 0.5q-41 -35 -43.5 -101.5 t25.5 -131t78 -94.5zM309 -273v0q-4 121 58 215t159 139.5t199 22.5q110 -29 159 -117.5t-5 -195.5q-65 -108 -166 -144t-190.5 -28t-121.5 33q-61 52 -24.5 72t117.5 32q88 12 165 43q85 43 79 94t-72 72q-83 22 -156 -12.5t-125.5 -97t-75.5 -128.5zM1328 -193v0 q112 -12 165 -41t24 -59t-161 -44q-69 -9 -171 -20.5t-184 -11.5q-9 1 -17 1q-45 -2 -72.5 8t-27.5 56q4 58 59 82.5t129 29t135 3.5h33h14q37 0 35 -0.5t39 -3.5z"/>
            <glyph glyph-name="uni0745" unicode="ﭘﭻ" horiz-adv-x="1597"
                   d="M1156 -8v0q-169 1 -263 73t-138 210q-119 -32 -230 -89t-188.5 -146.5t-95.5 -220.5q-18 -187 88.5 -298.5t272.5 -136t324 49.5q16 9 32 19t33 21q39 28 82.5 50t87.5 16q71 -19 38.5 -113t-175.5 -183q-194 -95 -377.5 -87t-328.5 95.5t-226 230.5t-70 317 q10 125 65.5 236t139.5 203q-33 19 -84.5 64.5t-90.5 120.5t-35 182q9 128 97.5 202.5t232.5 57.5q85 -14 172.5 -63t161.5 -100q32 -22 59 -39q41 -26 95.5 -54t105.5 -44q73 -16 142 -7q65 7 104 -8q58 -34 60 -97t-52 -96q-19 -8 -100 -18q-44 -6 -101 -15 q14 -54 56.5 -77.5t106.5 -26.5q40 -3 80 4q16 3 32 11q65 36 89 111t3 148q-29 107 -8 146t65 23t85 -73.5t51 -144.5q13 -140 -45.5 -257.5t-195.5 -170.5q-76 -28 -157 -26zM294 306v0q91 72 178.5 111t158.5 49q-27 32 -104 83.5t-161 83t-132 0.5q-41 -35 -43.5 -101.5 t25.5 -131t78 -94.5zM328 -356v0q-4 121 58 214.5t159 139.5t199 23q110 -29 159 -118t-5 -195q-65 -108 -166 -144t-190.5 -28t-121.5 33q-61 52 -24.5 72t118.5 32q87 12 165 43q84 43 78 94t-72 72q-83 21 -156 -13t-125.5 -97t-75.5 -128zM1112 -381v0q-4 121 58 215 t159 139.5t199 23.5q110 -30 159 -118.5t-5 -195.5q-65 -107 -166 -143.5t-190.5 -28.5t-121.5 33q-61 52 -24.5 72t118.5 32q87 13 165 43q84 43 78 94t-72 72q-83 22 -156 -12t-125.5 -97t-75.5 -129z"/>
            <glyph glyph-name="uni0747" unicode="ﭘﯿﭻ" horiz-adv-x="2120"
                   d="M1438 -666v0q-4 121 58 214.5t159 139.5t199 23q110 -29 159 -118t-5 -195q-65 -108 -166 -144t-190.5 -28t-121.5 33q-61 52 -24.5 72t117.5 32q88 12 165 43q85 43 79 94t-72 72q-83 21 -156 -13t-125.5 -97t-75.5 -128zM248 248v0q-33 19 -84.5 64.5t-90.5 120.5 t-35 182q9 128 97.5 203t232.5 57q85 -14 172.5 -63t161.5 -100q32 -21 59 -39q40 -26 94.5 -54t106.5 -43q73 -17 142 -8q65 7 104 -8q58 -33 60 -96.5t-52 -96.5q-20 -8 -100 -18q-45 -6 -101 -15q22 -84 111 -98q66 -15 136 -5t107 71q25 59 17 142q-3 57 3 116 q11 57 50.5 78t78.5 -9t49 -125q2 -20 5 -39q7 -40 10 -76q3 -46 12 -82t35.5 -57.5t84.5 -21.5v0h12q105 10 146 97.5t16 179.5q-29 107 -8 146t65 23t85 -73.5t51 -144.5q10 -112 -25.5 -212t-120.5 -166t-224 -76v0q-101 -5 -176 38t-94 139q-28 -72 -83 -119.5 t-127 -56.5q-16 -2 -32 -2q-180 -4 -279 68t-144 215q-120 -32 -231 -88.5t-188 -146.5t-96 -221q-18 -186 89 -298t272.5 -136.5t324.5 50.5q24 13 47 28q9 6 17 12q39 27 83 49t88 16q71 -19 38 -113t-176 -183q-194 -95 -377 -87t-328 95.5t-226 230.5t-71 317 q11 125 66.5 236t139.5 203zM295 328v0q4 -3 9.5 -7t9.5 -6q92 72 179.5 111t157.5 49q-26 32 -103.5 84t-161.5 83t-131 0q-56 -53 -40.5 -154t80.5 -160zM310 -337v0q-4 121 57.5 214.5t158.5 139.5t200 23q110 -29 158.5 -117.5t-4.5 -195.5q-65 -108 -166 -144t-191 -28 t-121 33q-61 52 -24.5 72t117.5 32q88 12 165 43q85 43 79 94t-72 72q-83 21 -156 -13t-126 -97t-75 -128zM1400 -124v0q112 -12 165 -41t24 -59t-161 -44q-69 -9 -171 -20t-184 -11h-17q-45 -2 -72.5 8.5t-27.5 56.5q4 57 59 81.5t129 29.5t135 3h33h14q37 1 35 0t39 -4z "/>
            <glyph glyph-name="uni0748" unicode="ﺮﯾ" horiz-adv-x="879"
                   d="M340 -325v0q112 -11 164.5 -40.5t24 -59.5t-160.5 -44q-69 -9 -171 -20t-184 -11h-18q-44 -2 -72 8.5t-27 56.5q4 57 59 81.5t128.5 29.5t135.5 3h33h13q38 1 35.5 0.5t39.5 -4.5zM14 227q104 10 145.5 97.5t16.5 179.5q-29 107 -8 146t65 23t85 -73.5t51 -144.5 q10 -112 -25.5 -212t-120.5 -166q-81 -63 -209 -76q-7 -1 -14 -1h-3q-30 0 -57 15t-42 42t-15 57q0 29 15.5 56.5t42.5 42t56 14.5h17zM879 0q-103 -5 -180 43q-64 -154 -221 -241q-56 -30 -119.5 -45t-125.5 -7q-25 3 -57.5 17t-39.5 42q-1 23 23 41.5t54 31t47 16.5 q101 30 163 100.5t96 168.5q27 87 16 179q-4 36 -9 72q-6 44 -9 87q-2 25 0.5 54t16.5 51q14 20 36 27.5t45 9.5t46 -2t40 -21q18 -22 26.5 -57t12.5 -66q1 -9 2 -17q7 -44 10 -89q0 -4 1 -7q3 -46 12 -82t35.5 -57.5t78.5 -21.5q27 0 55 -14q27 -15 42 -42.5t15 -56.5 q0 -30 -15 -57t-42 -42t-55 -15z"/>
            <glyph glyph-name="uni0749" unicode="رﯾ" horiz-adv-x="797"
                   d="M745 484v0q21 -129 4.5 -261t-81 -243.5t-188.5 -177.5q-55 -30 -118.5 -45t-126.5 -7q-25 3 -57.5 17t-38.5 42q-2 23 22 41.5t54 31t48 16.5q100 31 162.5 101t96.5 168q27 87 15 179q-3 36 -8 72q-6 44 -9 87q-3 25 -0.5 54.5t16.5 50.5q14 20 36 27.5t45 9.5t46.5 -2 t40.5 -21q18 -22 26 -57t12 -66q1 -9 3 -17zM322 -312v0q112 -12 165 -41t24 -59t-161 -44q-69 -9 -171 -20.5t-184 -11.5q-9 1 -17 1q-45 -2 -72.5 8.5t-27.5 55.5q4 58 59 82.5t129 29.5t135 3h33h14q37 0 35 -0.5t39 -3.5zM0 227q24 1 33 3q90 15 127 94q42 88 17 180 q-30 107 -9 146t65 23t85 -73.5t51 -144.5q11 -112 -25 -212t-121 -166q-81 -63 -209 -76q-7 -1 -14 -1h-3q-30 0 -57 15t-42 42t-15 57q0 29 15.5 56.5t42.5 42t56 14.5h3z"/>
            <glyph glyph-name="uni0750" unicode="ﺰﯾ" horiz-adv-x="881"
                   d="M559 1134v0q74 20 136 -11.5t80 -92.5q15 -75 -27.5 -124t-94.5 -62q-102 -19 -162 39t-49.5 135.5t117.5 115.5zM323 -312v0q112 -12 164.5 -41t24 -59t-160.5 -44q-69 -9 -171.5 -20.5t-183.5 -10.5h-18q-44 -2 -72 8.5t-27 55.5q4 58 59 82.5t128.5 29.5t134.5 3h34 h13q38 0 35.5 -0.5t39.5 -3.5zM867 1q-97 -1 -168 42q-63 -154 -221 -241q-55 -30 -118.5 -45t-126.5 -7q-24 3 -57 17t-39 42q-1 23 22.5 41.5t54 31t47.5 17.5q100 30 162.5 100t96.5 168q27 88 15 179q-3 36 -8 72q-6 44 -9 87q-2 25 0 54.5t16 51.5q14 19 36.5 27 t45.5 9q23 2 46 -2t40 -21q18 -22 26 -56.5t12 -66.5q2 -9 3 -17q7 -44 10 -89v-7q4 -46 13 -82t35 -57.5t81 -21.5q26 -1 52 -14q27 -15 42 -42.5t15 -56.5q0 -30 -15 -57t-42 -42t-56 -15q-6 0 -11 1zM15 227q104 10 145.5 97.5t16.5 179.5q-30 107 -9 146t65.5 23 t85 -73.5t50.5 -144.5q11 -112 -24.5 -212t-120.5 -166q-79 -60 -201 -74q-13 -3 -26 -3q-30 0 -57 15t-42 42t-15 57q0 29 15.5 56.5t42.5 42t56 14.5h18z"/>
            <glyph glyph-name="uni0751" unicode="زﯾ" horiz-adv-x="820"
                   d="M745 484v0q21 -129 4.5 -261.5t-81 -243.5t-187.5 -178q-56 -29 -119.5 -44.5t-126.5 -6.5q-24 3 -57 17t-39 41q-1 24 22.5 42.5t54 31t47.5 16.5q101 30 163 100.5t96 168.5q27 87 15 179q-3 36 -8 72q-6 44 -9 87q-2 25 0 54t16 51q14 20 36.5 27.5t45.5 9.5t46 -2 t40 -22q18 -21 26 -56t12 -66q2 -9 3 -17zM559 1134v0q74 20 136 -12t80 -92q15 -75 -27.5 -124t-94.5 -62q-103 -19 -162.5 39t-49 135t117.5 116zM323 -312v0q112 -12 164.5 -41t24 -59t-160.5 -44q-70 -9 -172 -20.5t-184 -11.5q-8 0 -17 1q-45 -2 -72.5 8t-27.5 56 q4 58 59 82.5t129 29t135 3.5h34h13q37 0 35 -0.5t40 -3.5zM14 227q105 9 146.5 96.5t16.5 180.5q-30 107 -9 146t65.5 23t85 -73.5t50.5 -144.5q11 -112 -24.5 -212t-120.5 -166q-82 -63 -210 -76q-7 -1 -14 -1h-3q-30 0 -57 15t-42 42t-15 57q0 29 15.5 56.5t42.5 42 t56 14.5h17z"/>
            <glyph glyph-name="uni0752" unicode="ﺮﺑ" horiz-adv-x="883"
                   d="M64 -351v0q74 20 136 -11.5t80 -92.5q15 -75 -27.5 -124t-94.5 -61q-103 -20 -162.5 38t-49 135.5t117.5 115.5zM14 227q105 10 146.5 97.5t16.5 179.5q-30 107 -9 146t65.5 23t85 -73.5t50.5 -144.5q11 -112 -24.5 -212t-120.5 -166q-82 -63 -210 -76q-7 -1 -14 -1h-3 q-30 0 -57 15t-42 42t-15 57q0 29 15.5 56.5t42.5 42t56 14.5h17zM883 0q-107 -5 -184 43q-63 -154 -221 -241q-55 -30 -118.5 -45t-126.5 -7q-25 3 -57.5 17t-38.5 42q-2 23 22 41.5t54.5 31t47.5 16.5q100 30 162.5 100.5t96.5 168.5q27 87 15 179q-3 36 -8 72 q-6 44 -9 87q-3 25 -0.5 54t16.5 51q14 20 36 27.5t45 9.5t46.5 -2t40.5 -21q18 -22 26 -57t12 -66q1 -9 3 -17q7 -44 10 -89v-7q4 -46 13 -82t35 -57.5t82 -21.5q25 -1 51 -14q27 -15 42 -42.5t15 -56.5q0 -30 -15 -57t-42 -42q-25 -14 -51 -15z"/>
            <glyph glyph-name="uni0753" unicode="رﺑ" horiz-adv-x="796"
                   d="M745 484v0q21 -129 4.5 -261.5t-81 -243.5t-187.5 -177q-56 -30 -119.5 -45t-126.5 -7q-24 3 -57 17t-39 42q-1 23 23 41.5t54 31t47 16.5q101 31 163 101t96 168q27 87 16 179q-4 36 -9 72q-6 44 -9 87q-2 25 0 54.5t16 50.5q14 20 36.5 27.5t45.5 9.5t46 -2t40 -21 q18 -22 26.5 -57t11.5 -66q2 -9 3 -17zM64 -351v0q74 20 136 -11.5t80 -92.5q15 -75 -27.5 -124t-94.5 -61q-103 -20 -162.5 38t-49 135.5t117.5 115.5zM15 227q104 10 145.5 97.5t16.5 179.5q-30 107 -9 146t65.5 23t85 -73.5t50.5 -144.5q11 -112 -24.5 -212t-120.5 -166 q-82 -63 -210 -76q-7 -1 -14 -1h-3q-30 0 -57 15t-42 42t-15 57q0 29 15.5 56.5t42.5 42t56 14.5h18z"/>
            <glyph glyph-name="uni0754" unicode="ﺰﺑ" horiz-adv-x="883"
                   d="M64 -351v0q74 20 136 -11.5t80 -92.5q15 -75 -27.5 -124t-94.5 -61q-103 -20 -162.5 38t-49 135.5t117.5 115.5zM535 1134v0q74 20 136.5 -12t79.5 -92q15 -75 -27.5 -124t-94.5 -62q-102 -19 -161.5 39t-49.5 135t117 116zM14 227q105 10 146.5 97.5t16.5 179.5 q-30 107 -9 146t65.5 23t85 -73.5t50.5 -144.5q11 -112 -24.5 -212t-120.5 -166q-82 -63 -210 -76q-7 -1 -14 -1h-3q-30 0 -57 15t-42 42t-15 57q0 29 15.5 56.5t42.5 42t56 14.5h17zM883 0q-107 -5 -184 43q-63 -154 -221 -241q-55 -30 -118.5 -45t-126.5 -7 q-25 3 -57.5 17t-38.5 42q-2 23 22 41.5t54.5 31t47.5 16.5q100 30 162.5 100.5t96.5 168.5q27 87 15 179q-3 36 -8 72q-6 44 -9 87q-3 25 -0.5 54t16.5 51q14 20 36 27.5t45 9.5t46.5 -2t40.5 -21q18 -22 26 -57t12 -66q1 -9 3 -17q7 -44 10 -89v-7q4 -46 13 -82t35 -57.5 t82 -21.5q25 -1 51 -14q27 -15 42 -42.5t15 -56.5q0 -30 -15 -57t-42 -42q-25 -14 -51 -15z"/>
            <glyph glyph-name="uni0755" unicode="زﺑ" horiz-adv-x="819"
                   d="M745 484v0q21 -129 4.5 -261.5t-81 -243.5t-187.5 -177q-56 -30 -119.5 -45t-126.5 -7q-24 3 -57 17t-39 42q-1 23 23 41.5t54 31t47 16.5q101 31 163 101t96 168q27 87 16 179q-4 36 -9 72q-6 44 -9 87q-2 25 0 54.5t16 50.5q14 20 36.5 27.5t45.5 9.5t46 -2t40 -21 q18 -22 26.5 -57t11.5 -66q2 -9 3 -17zM64 -351v0q74 20 136 -11.5t80 -92.5q15 -75 -27.5 -124t-94.5 -61q-103 -20 -162.5 38t-49 135.5t117.5 115.5zM535 1134v0q74 20 136.5 -12t79.5 -92q15 -75 -27.5 -124t-94.5 -62q-102 -19 -161.5 39t-49.5 135t117 116zM15 227 q104 10 145.5 97.5t16.5 179.5q-30 107 -9 146t65.5 23t85 -73.5t50.5 -144.5q11 -112 -24.5 -212t-120.5 -166q-82 -63 -210 -76q-7 -1 -14 -1h-3q-30 0 -57 15t-42 42t-15 57q0 29 15.5 56.5t42.5 42t56 14.5h18z"/>
            <glyph glyph-name="uni0757" unicode="آﮔ" horiz-adv-x="980"
                   d="M250 970v0q19 -43 38 -85q46 -103 90 -212q60 -138 67 -268q-5 -184 -137 -296t-308 -109v227q103 1 159.5 33t65.5 84q10 69 -22.5 168.5t-74.5 198.5v0q-27 63 -55 124q-19 41 -35 77q-14 70 23 111t108 25q56 -18 81 -78zM470 1737v0q10 6 34 19q42 24 108 58 q64 34 126 62q60 29 96 36q34 7 17 -22q-16 -30 -107 -111q-55 -48 -167 -121q-112 -74 -220 -124q-109 -51 -151 -29q-16 10 -26 29q-10 18 -7 39q5 20 27 34q23 12 48 23q13 4 22 9l200 98v0zM205 1377v0q15 4 124 65.5t252 144t260 150.5q114 66 145 83q102 50 128.5 31 t-2.5 -73.5t-94 -110.5q-93 -78 -276.5 -209t-371.5 -234t-291 -97q-97 17 -42 103q43 68 168 147zM433 953v0q-54 -62 -89 -41t-25 79q27 95 109 163q93 76 183 84.5t177.5 -27t174.5 -90.5q62 -38 142 -49t141.5 16.5t68.5 106.5q-2 71 -71 123t-144 50q154 28 228.5 -46 t47.5 -199q-19 -76 -96.5 -130.5t-190 -59t-237.5 67.5q-133 80 -208 90t-115 -22t-69 -79q-13 -19 -27 -37zM860 581v0v-24q0 -146 -23 -320q-21 -118 -62 -177.5t-79.5 -30.5t-53.5 176q-6 64 -10 125q-4 68 -10 141q-9 103 -11 192q-2 36 -3 77l-2 24q-6 66 4.5 117 t72.5 74q93 28 131.5 -31t44.5 -153.5t2 -170.5q0 -10 -1 -19z"/>
            <glyph glyph-name="uni0758" unicode="آﮐ" horiz-adv-x="980"
                   d="M250 970v0q19 -43 38 -85q46 -103 90 -212q60 -138 67 -268q-5 -184 -137 -296t-308 -109v227q103 1 159.5 33t65.5 84q10 69 -22.5 168.5t-74.5 198.5v0q-27 63 -55 124q-19 41 -35 77q-14 70 23 111t108 25q56 -18 81 -78zM205 1377v0q15 4 124 65.5t252 144t260 150.5 q114 66 145 83q102 50 128.5 31t-2.5 -73.5t-94 -110.5q-93 -78 -276.5 -209t-371.5 -234t-291 -97q-97 17 -42 103q43 68 168 147zM433 953v0q-54 -62 -89 -41t-25 79q27 95 109 163q93 76 183 84.5t177.5 -27t174.5 -90.5q62 -38 142 -49t141.5 16.5t68.5 106.5 q-2 71 -71 123t-144 50q154 28 228.5 -46t47.5 -199q-19 -76 -96.5 -130.5t-190 -59t-237.5 67.5q-133 80 -208 90t-115 -22t-69 -79q-13 -19 -27 -37zM860 581v0v-24q0 -146 -23 -320q-21 -118 -62 -177.5t-79.5 -30.5t-53.5 176q-6 64 -10 125q-4 68 -10 141 q-9 103 -11 192q-2 36 -3 77l-2 24q-6 66 4.5 117t72.5 74q93 28 131.5 -31t44.5 -153.5t2 -170.5q0 -10 -1 -19z"/>
            <glyph glyph-name="uni0759" unicode="ﯾﻖ" horiz-adv-x="1890"
                   d="M1378 301v0v-74h83v0h14q105 10 146.5 97.5t16.5 179.5q-30 107 -9 146t65 23t85 -73.5t51 -144.5q16 -169 -70.5 -299.5t-287.5 -154.5v-1h-11v0v0h-83v0q-18 -133 -86 -248q-106 -170 -277.5 -253.5t-371.5 -66.5q-202 20 -353 136.5t-222 307.5q-67 202 17 398 q48 115 138 207t208 136q23 9 62 15.5t73.5 0t42.5 -38.5q1 -5 1 -9q-2 -18 -16 -34t-27 -27q-32 -28 -66 -53q-18 -13 -35 -26q-76 -58 -130.5 -128.5t-72.5 -167.5q-30 -222 99.5 -371.5t354.5 -147.5q168 9 303 110q133 102 169 260h-35q-92 -5 -191.5 13.5t-176.5 106.5 q-72 85 -60 215q16 123 115 205q126 96 249.5 79t205.5 -107t82 -211v0zM1177 249v0q25 72 -9.5 120t-92.5 60q-52 11 -96 -15t-56 -89q-16 -88 36 -128t119.5 -27.5t98.5 79.5zM1156 922v0q112 -11 165 -40.5t24 -59.5t-161 -44q-69 -9 -171 -20t-184 -11h-17 q-45 -1 -72.5 9t-27.5 56q4 57 59 81.5t129 29.5t135 3h33h14q37 1 35 0.5t39 -4.5zM1619 -352v0q112 -11 164.5 -40t24 -59t-160.5 -45q-70 -9 -172 -20t-184 -11h-17q-45 -1 -72.5 9t-27.5 56q4 57 59 81.5t129 29.5t135 4q18 -1 34 -1h13q37 1 35 0.5t40 -4.5z"/>
            <glyph glyph-name="uni0760" unicode="ﺗﻖ" horiz-adv-x="1890"
                   d="M1378 301v0v-74h83v0h14q105 10 146.5 97.5t16.5 179.5q-30 107 -9 146t65 23t85 -73.5t51 -144.5q16 -169 -70.5 -299.5t-287.5 -154.5v-1h-11v0v0h-83v0q-18 -133 -86 -248q-106 -170 -277.5 -253.5t-371.5 -66.5q-202 20 -353 136.5t-222 307.5q-67 202 17 398 q48 115 138 207t208 136q23 9 62 15.5t73.5 0t42.5 -38.5q1 -5 1 -9q-2 -18 -16 -34t-27 -27q-32 -28 -66 -53q-18 -13 -35 -26q-76 -58 -130.5 -128.5t-72.5 -167.5q-30 -222 99.5 -371.5t354.5 -147.5q168 9 303 110q133 102 169 260h-35q-92 -5 -191.5 13.5t-176.5 106.5 q-72 85 -60 215q16 123 115 205q126 96 249.5 79t205.5 -107t82 -211v0zM1177 249v0q25 72 -9.5 120t-92.5 60q-52 11 -96 -15t-56 -89q-16 -88 36 -128t119.5 -27.5t98.5 79.5zM1693 954v0q112 -11 164.5 -40.5t23.5 -59.5t-161 -44q-69 -9 -171 -20t-184 -11h-17 q-45 -1 -72.5 9t-27.5 56q4 57 59 81.5t129 29.5t135 3h33h14q37 1 35 0.5t40 -4.5zM1018 946v0q112 -11 165 -40t24 -59t-161 -45q-69 -8 -171 -19.5t-184 -11.5h-17q-45 -1 -73 9t-27 56q4 58 59 82.5t129 29t135 3.5q18 -1 33 0h14q37 0 34.5 -0.5t39.5 -4.5z"/>
            <glyph glyph-name="uni0761" unicode="ﺘﻖ" horiz-adv-x="1957"
                   d="M1174 249v0q26 72 -8.5 120t-92.5 60q-52 11 -96 -15t-57 -89q-16 -88 36 -128t119.5 -27.5t98.5 79.5zM1693 954v0q112 -11 164.5 -40.5t23.5 -59.5t-161 -44q-69 -9 -171 -20t-184 -11h-17q-45 -1 -72.5 9t-27.5 56q4 57 59 81.5t129 29.5t135 3h33h14q37 1 35 0.5 t40 -4.5zM1018 946v0q112 -11 165 -40t24 -59t-161 -45q-69 -8 -171 -19.5t-184 -11.5h-17q-45 -1 -73 9t-27 56q4 58 59 82.5t129 29t135 3.5q18 -1 33 0h14q37 0 34.5 -0.5t39.5 -4.5zM1957 0q-97 -4 -172 39t-94 139q-29 -75 -87 -123t-134 -54v-1h-94q-18 -133 -86 -248 q-106 -170 -278 -253.5t-371 -66.5q-202 20 -353.5 136.5t-221.5 307.5q-67 202 16 398q49 115 139 207t208 136q23 9 62 15.5t73.5 0t42.5 -38.5q1 -5 1 -9q-3 -18 -16.5 -34t-26.5 -27q-32 -28 -66 -53q-18 -13 -35 -26q-76 -58 -130.5 -128.5t-72.5 -167.5 q-30 -222 99.5 -371.5t354.5 -147.5q168 9 302 110q133 102 170 260h-36q-92 -5 -191 13.5t-176 106.5q-72 85 -60 215q16 123 114 205q126 96 250 79t206 -107t82 -211v-74h81q75 -2 111 20t50 54q25 59 18 142q-4 57 3 116q11 57 50.5 78t78.5 -9t49 -126q2 -19 5 -38 q7 -40 10 -76q3 -46 12 -82t35.5 -57.5t77.5 -21.5h1q28 0 55.5 -14.5t42.5 -42t15 -56.5q0 -30 -15 -57t-42 -42t-56 -15h-1z"/>
            <glyph glyph-name="uni0762" unicode="ﻗﺘ" horiz-adv-x="1247"
                   d="M879 616v0q-56 3 -91.5 -20.5t-38.5 -56.5q-1 -30 27.5 -53.5t75.5 -26.5q46 -2 83.5 20t44.5 55q4 27 -20 51.5t-81 30.5zM504 0q-101 -4 -176 39t-94 140q-31 -79 -92 -128t-142 -51v227q74 -1 110 21t51 53q25 58 18 143q-4 56 3 115q10 58 49.5 78.5t78.5 -10 t49 -125.5l6 -38q6 -39 9 -75q3 -46 12 -82.5t35.5 -58t82.5 -21.5l206 -1q84 -1 165 20.5t126 107.5q-67 -61 -145 -74t-147 13q-111 45 -147 131t-8.5 179t106.5 159t198 70q136 2 241 -93t109 -283q-1 -113 -53.5 -217.5t-157.5 -171.5t-261 -68zM957 1081v0 q112 -11 164.5 -40.5t24 -59.5t-160.5 -44q-69 -9 -171 -20t-184 -11h-17q-45 -2 -73 8.5t-27 56.5q4 57 59 81.5t128.5 29.5t135.5 3h33h13q38 1 35.5 0.5t39.5 -4.5zM283 923v0q112 -11 164.5 -40t24 -59.5t-160.5 -44.5q-69 -9 -171.5 -20t-183.5 -11h-18q-44 -1 -72 9 t-28 56q5 57 59.5 81.5t128.5 29.5t135 4q19 -1 34 -1h13q37 1 35 0.5t40 -4.5zM0 227q28 0 55.5 -14.5t42.5 -42t15 -56.5q0 -30 -15 -57t-42 -42t-56 -15q-30 0 -57 15t-42 42t-15 57q0 29 15.5 56.5t42.5 42t56 14.5z"/>
            <glyph glyph-name="uni0763" unicode="ﺗﻘ" horiz-adv-x="1189"
                   d="M399 115v0q-34 -67 -116.5 -91t-171.5 -24h-111v227q69 -2 124 3.5t82 25.5q-72 47 -96 131t-1.5 171.5t89.5 143.5q120 92 241 81.5t203.5 -90.5t86 -197t-112.5 -238q21 -20 57 -25.5t76 -5.5h44v0h3q104 10 145.5 97.5t16.5 179.5q-29 107 -8.5 146t65 23t85 -73.5 t51.5 -144.5q10 -111 -25 -210t-119 -165.5t-219 -78.5v-1h-7h-174q-74 0 -128 33.5t-80 81.5zM478 450v0q36 80 -2.5 108t-93.5 8.5t-70 -83.5q-10 -80 19.5 -104.5t72.5 -4.5t74 76zM1070 929v0q112 -11 164.5 -40t24 -59t-160.5 -45q-70 -8 -172 -19.5t-184 -11.5h-17 q-45 -1 -72.5 9t-27.5 56q4 57 59 82t129 29.5t135 3.5q19 -1 34 -1h13q37 1 35 0.5t40 -4.5zM557 1088v0q112 -11 164.5 -40t24 -59t-160.5 -45q-69 -8 -171.5 -19.5t-183.5 -11.5h-18q-44 -1 -72 9t-28 56q5 57 59.5 82t128.5 29.5t135 3.5q19 -1 34 -1h13q37 1 35 0.5 t40 -4.5zM1 227q28 0 55.5 -14.5t42.5 -42t15 -56.5q0 -30 -15 -57t-42 -42t-56 -15q-30 0 -57 15t-42 42t-15 57q0 29 15.5 56.5t42.5 42t56 14.5z"/>
            <glyph glyph-name="uni0764" unicode="ﺘﻘ" horiz-adv-x="1284"
                   d="M787 1v0v-1h-7h-173q-75 0 -128.5 33.5t-80.5 81.5q-34 -67 -116.5 -91t-171.5 -24h-110v227q69 0 123.5 4.5t82.5 24.5q-73 47 -96.5 131t-1 171.5t88.5 143.5q120 92 241 81.5t203.5 -90.5t86 -197t-111.5 -238q21 -20 57 -25.5t75 -5.5h32v0h2h10v0q69 0 102 22t47 52 q26 59 18 142q-3 57 3 116q11 57 50.5 78t78.5 -9t49 -126q2 -19 5 -38q7 -40 10 -76q3 -46 12 -82t35.5 -57.5t81.5 -21.5v-227q-101 3 -176 39q-75 43 -94 139q-29 -76 -88.5 -124.5t-138.5 -52.5zM477 450v0q37 80 -1.5 108t-94 8.5t-70.5 -83.5q-10 -80 20 -104.5 t73 -4.5t73 76zM1093 915v0q112 -12 165 -41t24 -59t-161 -44q-69 -9 -171 -20.5t-184 -10.5h-17q-45 -2 -72.5 8.5t-27.5 55.5q4 58 59 82.5t129 29.5t135 3h33h14q37 0 35 -0.5t39 -3.5zM583 1096v0q112 -12 165 -41t24 -59t-161 -44q-69 -9 -171 -20.5t-184 -10.5h-17 q-45 -2 -73 8.5t-27 55.5q4 58 59 82.5t129 29.5t135 3h33h14q37 0 34.5 -0.5t39.5 -3.5zM0 227q28 0 55.5 -14.5t42.5 -42t15 -56.5q0 -30 -15 -57t-42 -42t-56 -15q-30 0 -57 15t-42 42t-15 57q0 29 15.5 56.5t42.5 42t56 14.5zM1283 227q29 0 56 -14.5t42.5 -42 t15.5 -56.5q0 -30 -15 -57t-42 -42t-57 -15q-29 0 -56 15t-42 42t-15 57q0 29 15.5 56.5t42.5 42t55 14.5z"/>
            <glyph glyph-name="uni0765" unicode="ﺗﻔ" horiz-adv-x="1202"
                   d="M399 115v0q-34 -67 -117 -91t-172 -24h-110v227q69 0 124 4.5t82 24.5q-72 47 -96 131t-1.5 171.5t89.5 143.5q119 92 240 81.5t203.5 -90.5t86 -197t-111.5 -238q21 -20 57 -25.5t75 -5.5h45v0h2q105 10 146.5 97t16.5 180q-30 107 -9 146t65 23t85 -73.5t51 -144.5 q11 -111 -24 -210t-119 -165.5t-220 -78.5v-1h-6h-174q-75 0 -128.5 33.5t-79.5 81.5zM478 450v0q36 80 -2.5 108t-94 8.5t-69.5 -83.5q-10 -80 19.5 -104.5t72.5 -4.5t74 76zM332 1234v0q74 20 136 -12t80 -92q15 -75 -28 -124t-95 -62q-102 -19 -161.5 39t-49.5 135 t118 116zM1019 946v0q112 -11 164.5 -40t24 -59t-160.5 -45q-69 -8 -171.5 -19.5t-184.5 -11.5h-17q-45 -1 -72.5 9t-27.5 56q5 58 59.5 82.5t128.5 29t135 3.5q19 -1 34 -1q6 1 13 1q37 0 35 -0.5t40 -4.5zM0 227q28 0 55.5 -14.5t42.5 -42t15 -56.5q0 -30 -15 -57t-42 -42 t-56 -15q-30 0 -57 15t-42 42t-15 57q0 29 15.5 56.5t42.5 42t56 14.5z"/>
            <glyph glyph-name="uni0766" unicode="ﺘﻔ" horiz-adv-x="1284"
                   d="M399 115v0q-34 -67 -117 -91t-172 -24h-110v227q69 0 124 4.5t82 23.5q-72 48 -96 132t-1.5 171t89.5 144q119 92 240 81.5t203.5 -91t86 -197t-111.5 -237.5q21 -21 57 -26t75 -5h33v0h2h10v0q68 0 101.5 21.5t47.5 51.5q25 59 17 143q-3 56 4 116q10 57 49.5 77.5 t78.5 -9.5t49 -125q2 -19 6 -39q6 -39 9 -75q4 -46 12.5 -82.5t35 -57.5t82.5 -21v-227q-101 -5 -176.5 38t-94.5 140q-29 -77 -88.5 -125.5t-138.5 -52.5v0h-6h-174q-74 0 -128 33.5t-80 81.5zM478 450v0q36 80 -2.5 108t-94 8t-69.5 -83q-10 -80 19.5 -105t72.5 -4.5 t74 76.5zM332 1233v0q74 20 136 -11.5t80 -92.5q15 -74 -28 -123t-95 -62q-102 -20 -161.5 38.5t-49 135.5t117.5 115zM1019 946v0q112 -11 164.5 -40.5t24 -59.5t-160.5 -44q-69 -9 -171.5 -20t-183.5 -11h-18q-44 -2 -72 8.5t-28 56.5q5 57 59.5 81.5t128.5 29.5t135 3h34 h13q37 1 35 0.5t40 -4.5zM0 227q28 0 55.5 -14.5t42.5 -42t15 -56.5q0 -30 -15 -57t-42 -42t-56 -15q-30 0 -57 15t-42 42t-15 57q0 29 15.5 56.5t42.5 42t56 14.5zM1285 227q29 0 56 -14.5t42.5 -42t15.5 -56.5q0 -30 -15 -57t-42 -42t-57 -15q-29 0 -56 15t-42 42t-15 57 q0 29 15.5 56.5t42.5 42t55 14.5z"/>
            <glyph glyph-name="uni0767" unicode="ﺗﻒ" horiz-adv-x="2150"
                   d="M1166 274v0q-90 111 -74.5 230t110.5 198q122 95 240 81t194 -98t73.5 -202.5t-120.5 -234.5q66 -21 130 -21v0h9q104 10 145.5 97.5t16.5 179.5q-29 107 -8.5 146t65 23t85 -73.5t51.5 -144.5q10 -112 -25.5 -211.5t-120.5 -166t-223 -77.5v0h-1v0v0q-66 0 -164.5 27.5 t-171.5 89.5q-146 -59 -298.5 -86t-265.5 -29q-212 -4 -364 41q-80 25 -149 60q-127 65 -197.5 159t-64.5 198q11 122 92.5 201t201.5 121.5t246 54.5t225 1q92 -11 140 -29.5t13 -37.5t-194 -33q-303 -30 -428.5 -106.5t-110.5 -166t134 -159.5q84 -46 228 -66t306 -11 q147 9 275 45zM1462 450v0q36 80 -2.5 108t-94 8.5t-69.5 -83.5q-10 -80 19.5 -104.5t72.5 -4.5t74 76zM1325 1234v0q75 20 137 -12t80 -92q15 -75 -28 -124t-95 -62q-102 -19 -161.5 39t-49.5 135t117 116zM1947 983v0q112 -11 165 -40t24 -59t-161 -45q-69 -8 -171 -19.5 t-184 -11.5h-17q-45 -1 -72.5 9t-27.5 56q4 58 59 82.5t129 29t135 3.5h33h14q37 0 35 -0.5t39 -4.5z"/>
            <glyph glyph-name="uni0768" unicode="ﺘﻒ" horiz-adv-x="2212"
                   d="M1165 274v0q-89 111 -74 230t110 198q123 95 240.5 81t193.5 -98t73.5 -202.5t-119.5 -234.5q61 -20 124 -21v0h1h5v0q71 -1 106 21t49 53q25 59 17 142q-3 57 4 116q10 57 49.5 78t78.5 -9t49 -126q2 -19 6 -38q6 -40 9 -76q4 -46 13 -82t35 -57.5t77 -21.5v-227 q-100 -1 -171 39q-75 43 -95 139q-30 -78 -91 -127t-142 -51v0v0v0v0q-86 -7 -187.5 18t-148.5 99q-146 -59 -299 -86t-266 -29q-212 -4 -364 41q-80 25 -148 60q-128 65 -198 159t-65 198q11 122 93 201t202 121.5t245.5 54.5t225.5 1q91 -11 139.5 -29.5t13 -37.5 t-194.5 -33q-302 -30 -427.5 -106.5t-111 -166t134.5 -159.5q84 -46 228 -66t305 -11q148 9 275 45zM1461 450v0q37 80 -1.5 108t-94 8.5t-70.5 -83.5q-10 -80 19.5 -104.5t73 -4.5t73.5 76zM1307 1234v0q74 20 136 -12t80 -92q15 -75 -28 -124t-95 -62q-102 -19 -161.5 39 t-49 135t117.5 116zM1947 983v0q112 -11 165 -40t24 -59t-161 -45q-69 -8 -171 -19.5t-184 -11.5h-17q-45 -1 -72.5 9t-27.5 56q4 58 59 82.5t129 29t135 3.5h33h14q37 0 35 -0.5t39 -4.5zM2211 227q29 0 56 -14.5t42.5 -42t15.5 -56.5q0 -30 -15 -57t-42 -42t-57 -15 q-29 0 -56 15t-42 42t-15 57q0 29 15.5 56.5t42.5 42t55 14.5z"/>
            <glyph glyph-name="uni0769" unicode="ﺗﻠ" horiz-adv-x="1039"
                   d="M0 227v0h22q66 -1 113.5 32.5t52.5 128.5l-8 590q3 106 53.5 135t101.5 -2t56 -105l4 -415v-16v-76v0q2 -19 6 -39q14 -97 59 -165.5t155 -67.5q70 4 111.5 48t54 106.5t-4.5 121.5q-29 107 -8 146t65 23t85 -73.5t51 -144.5q10 -112 -25.5 -212t-120.5 -166t-224 -76v0 q-63 -1 -145.5 19.5t-145.5 78.5q-38 -46 -101 -72t-158 -26h-49v227zM1048 959v0q126 -12 185 -45t27 -66.5t-181 -49.5q-100 -10 -258.5 -23t-250.5 -12h-19q-50 -2 -81.5 9.5t-30.5 63.5q4 64 66 91.5t145 33t151 3.5h38h15q42 1 94.5 0t99.5 -5zM0 227q28 0 55.5 -14.5 t42.5 -42t15 -56.5q0 -30 -15 -57t-42 -42t-56 -15q-30 0 -57 15t-42 42t-15 57q0 29 15.5 56.5t42.5 42t56 14.5z"/>
            <glyph glyph-name="uni0770" unicode="ﺘﻠ" horiz-adv-x="1104"
                   d="M0 227v0q92 -1 136 31q47 35 52 130l-8 590q3 106 53.5 135t101.5 -2t56 -105l4 -416v-14v-77v0q2 -19 6 -39q13 -95 55 -162t144 -72v1q75 -3 110.5 19.5t50.5 53.5q14 29 16.5 65.5t0.5 77.5q-3 56 4 116q10 57 49.5 77.5t78.5 -9.5t49 -125q2 -19 6 -39q6 -39 9 -75 q4 -46 13 -82.5t35 -57.5t81 -21l1 -227q-101 -5 -176 38t-95 140q-30 -78 -91 -127t-141 -51v0h-1v0v0q-63 -1 -146 19.5t-146 78.5q-38 -46 -101 -72t-158 -26h-49v227zM1035 920v0q125 -13 184.5 -45.5t27 -66.5t-180.5 -50q-100 -10 -258.5 -22.5t-250.5 -12.5h-20 q-50 -1 -81 10.5t-31 62.5q5 65 66.5 92.5t144.5 33t152 3.5h38h15q41 0 94 -0.5t100 -4.5zM0 227q28 0 55.5 -14.5t42.5 -42t15 -56.5q0 -30 -15 -57t-42 -42t-56 -15q-30 0 -57 15t-42 42t-15 57q0 29 15.5 56.5t42.5 42t56 14.5zM1103 227q29 0 56 -14.5t42.5 -42 t15.5 -56.5q0 -30 -15 -57t-42 -42t-57 -15q-29 0 -56 15t-42 42t-15 57q0 29 15 56.5t42.5 42t55.5 14.5z"/>
            <glyph glyph-name="uni0771" unicode="ﺗﻞ" horiz-adv-x="2042"
                   d="M69 -35v0q-54 157 -15 312t142.5 275t244.5 173q53 20 117.5 19.5t80.5 -53.5q5 -33 -26.5 -65t-82.5 -69q-73 -51 -143.5 -125.5t-93.5 -190.5q-30 -217 95.5 -361t343.5 -141q110 5 220 62.5t182.5 151.5t72.5 210v604v501q1 81 32.5 116.5t73 33.5t74 -34.5 t32.5 -86.5v-389l1 -316v-24v-39q0 -33 5 -67q14 -93 53.5 -159t133.5 -75v0h15q105 9 146.5 96.5t15.5 180.5q-29 106 -8 145t65 23.5t85 -73.5t51 -144q16 -169 -70.5 -299.5t-285.5 -154.5v0h-7q-1 0 -2 -1h-5v1q-44 0 -99.5 11t-108.5 36q-25 -113 -84 -211 q-115 -182 -292 -263t-369 -64t-351.5 130.5t-238.5 323.5zM1891 934v0q112 -12 164.5 -41t24 -59t-160.5 -44q-70 -9 -172 -20.5t-184 -10.5h-17q-45 -2 -72.5 8.5t-27.5 55.5q4 58 59 82.5t129 29.5t135 3h34h13q37 0 35 -0.5t40 -3.5z"/>
            </font>
</defs>
</svg>
